<svg width="33" height="32" viewBox="0 0 33 32" fill="none" xmlns="http://www.w3.org/2000/svg">
<path d="M27.8655 16.1876C27.8655 22.4346 22.7837 27.5002 16.5131 27.5002C10.2426 27.5002 5.1608 22.4346 5.1608 16.1876C5.1608 9.94066 10.2426 4.87503 16.5131 4.87503C22.7837 4.87503 27.8655 9.94066 27.8655 16.1876Z" fill="#7265C5" stroke="white" stroke-width="0.5"/>
<ellipse cx="18.8336" cy="11.5626" rx="2.32047" ry="2.31252" fill="#FF0E0E"/>
<ellipse cx="22.3143" cy="15.0314" rx="1.16023" ry="1.15626" fill="#F11B1B"/>
<path d="M25.8754 4.73994C25.723 4.855 25.5753 4.98727 25.4594 5.13582C25.3383 5.2909 25.2228 5.47215 25.0859 5.61661C25.0261 5.67977 25.0121 5.76757 24.9556 5.82392C24.883 5.89627 24.853 5.97909 24.8027 6.06494C24.721 6.2046 24.6348 6.37885 24.6348 6.54824C24.6348 6.76102 24.7767 6.86129 24.8779 7.03279C24.926 7.11431 25.0037 7.18199 25.0521 7.26882C25.095 7.34588 25.2192 7.39422 25.2889 7.45989C25.3934 7.55819 25.5719 7.59501 25.7162 7.57103C25.8013 7.55691 25.9241 7.4945 25.9882 7.43741C26.0698 7.36462 26.2079 7.32904 26.2801 7.24509C26.4083 7.09612 26.6144 7.01113 26.7601 6.88043C26.8306 6.81719 26.9196 6.74705 27.0082 6.71309C27.0671 6.69053 27.1251 6.64851 27.1786 6.61568C27.2159 6.59281 27.2734 6.59729 27.3077 6.57072C27.4536 6.45763 27.6074 6.37493 27.6849 6.20107C27.7268 6.10704 27.7024 5.96464 27.7024 5.86139C27.7024 5.70195 27.6891 5.61871 27.6398 5.47675C27.587 5.32487 27.4978 5.03892 27.3303 4.96473C27.1433 4.88193 26.9664 4.73802 26.7664 4.69373C26.7252 4.68461 26.6972 4.63693 26.6523 4.62879C26.6101 4.62113 26.5613 4.62754 26.5182 4.62754C26.4393 4.62754 26.3603 4.62754 26.2814 4.62754C26.1224 4.62754 26.0683 4.78489 25.9205 4.78489" stroke="#FA0EB8" stroke-width="0.5" stroke-linecap="round"/>
<path d="M8.49727 11.3508C8.48017 12.0325 8.31144 11.6424 8.09017 11.9952C7.97639 12.1766 7.95846 12.2514 7.95846 12.4785C7.95846 12.8062 7.8507 13.2237 7.8507 13.6061C7.8507 13.952 7.91081 14.3457 7.65912 14.5965C7.52086 14.7343 7.31189 15.3412 7.31189 15.5391C7.31189 15.915 7.31189 16.2909 7.31189 16.6668C7.31189 17.0475 7.8507 17.166 7.8507 17.5259C7.8507 18.0335 7.62396 19.3464 7.98241 19.7036C8.18528 19.9058 8.42333 19.9844 8.60503 20.2107C8.8335 20.4953 8.7283 20.936 8.82654 21.2787C8.91589 21.5903 8.88661 21.9495 9.16779 22.1736C9.23974 22.231 9.52384 22.2827 9.62278 22.3108C9.75997 22.3499 9.82836 22.6167 10.0059 22.6271C10.7539 22.6709 10.8579 23.6372 11.347 23.9158C11.7013 24.1176 11.8753 24.1306 12.3228 24.1306C12.8044 24.1306 12.9971 24.3302 13.4064 24.4468C13.6767 24.5237 14.0218 24.7767 14.2326 24.9658C14.5267 25.2296 15.0267 25.2045 15.394 25.2045C15.766 25.2045 16.0475 24.9897 16.4178 24.9897C16.8179 24.9897 17.1398 25.0243 17.4954 25.1031C18.3887 25.3009 18.8742 25.4416 19.7045 24.9062C20.0469 24.6854 20.143 24.5601 20.6205 24.5601C20.9747 24.5601 21.3744 24.1311 21.5844 23.8621C21.8779 23.486 21.6821 23.168 22.0992 22.8657C22.3674 22.6713 22.854 22.843 23.1529 22.7106C24.0503 22.3131 23.9 21.8738 24.1287 21.0758C24.2409 20.6848 24.2952 20.5055 24.7693 20.4792C25.0599 20.4631 25.4159 19.7656 25.4159 19.5127C25.4159 19.0975 25.1975 17.4722 25.7392 17.4722" stroke="#A09494" stroke-width="1.2" stroke-linecap="round"/>
<path d="M8.49727 11.2434C9.14664 11.0978 9.14384 10.9026 9.14384 10.3306C9.14384 10.0302 9.53852 9.83795 9.57489 9.63255C9.6178 9.3902 9.96546 9.11915 10.1137 8.93449C10.2607 8.75134 10.8079 8.93628 11.0237 8.87483C11.1428 8.84092 11.0429 8.63395 11.1374 8.55862C11.2181 8.49432 11.3185 8.40013 11.3829 8.31997C11.5648 8.09336 11.6459 7.83376 11.9457 7.67561C12.1283 7.57923 12.4575 7.26991 12.6461 7.26991C12.9694 7.26991 13.2927 7.26991 13.616 7.26991C13.8078 7.26991 14.3585 7.36526 14.508 7.24604C14.7098 7.08519 14.7538 6.70812 15.0229 6.63152C15.5818 6.47236 16.0552 6.41077 16.6872 6.41077C17.3808 6.41077 17.6622 6.57834 18.0881 7.10882C18.4511 7.56103 19.1372 7.59209 19.7045 7.59209C20.3545 7.59209 20.7649 7.51694 21.1892 8.04552C21.3395 8.23275 21.3106 8.59404 21.5844 8.67198C21.8527 8.74839 22.0587 9.03823 22.3447 9.10155C23.0988 9.26857 23.4609 9.35667 23.7755 10.0621C23.8957 10.3316 23.7253 10.6896 23.8054 10.969C23.896 11.2848 24.2547 11.5158 24.3443 11.8281C24.4959 12.3571 25.282 12.3606 25.4099 12.8066C25.5305 13.2272 25.1521 14.3376 25.4398 14.6561C25.5979 14.8312 26.0625 14.8738 26.0625 15.0559C26.0625 15.2435 26.1584 15.8493 26.0086 15.9687C25.819 16.1199 26.0459 16.5506 25.8709 16.7443C25.7075 16.9252 25.6314 17.4499 25.6314 17.687" stroke="#A09494" stroke-width="1.2" stroke-linecap="round"/>
<ellipse cx="16.5999" cy="15.35" rx="7.04797" ry="7.25619" fill="#B893CA"/>
<path d="M10.5132 12.0748C10.5002 12.6095 10.3721 12.3035 10.2041 12.5802C10.1177 12.7226 10.1041 12.7812 10.1041 12.9593C10.1041 13.2164 10.0223 13.544 10.0223 13.8439C10.0223 14.1153 10.0679 14.4241 9.87679 14.6208C9.77181 14.7289 9.61313 15.205 9.61313 15.3603C9.61313 15.6551 9.61313 15.95 9.61313 16.2449C9.61313 16.5435 10.0223 16.6365 10.0223 16.9188C10.0223 17.317 9.85009 18.3469 10.1223 18.6271C10.2763 18.7857 10.4571 18.8473 10.595 19.0249C10.7685 19.2482 10.6886 19.5938 10.7632 19.8627C10.8311 20.1071 10.8089 20.3888 11.0224 20.5647C11.077 20.6097 11.2927 20.6502 11.3679 20.6723C11.472 20.703 11.524 20.9122 11.6588 20.9204C12.2268 20.9548 12.3057 21.7128 12.6771 21.9313C12.9462 22.0896 13.0783 22.0998 13.4181 22.0998C13.7837 22.0998 13.93 22.2564 14.2409 22.3479C14.4461 22.4082 14.7081 22.6067 14.8682 22.755C15.0915 22.962 15.4712 22.9422 15.7501 22.9422C16.0325 22.9422 16.2463 22.7738 16.5275 22.7738C16.8313 22.7738 17.0757 22.8009 17.3457 22.8627C18.024 23.0179 18.3927 23.1282 19.0232 22.7082C19.2831 22.5351 19.3561 22.4368 19.7187 22.4368C19.9876 22.4368 20.2912 22.1002 20.4506 21.8892C20.6735 21.5942 20.5248 21.3447 20.8415 21.1076C21.0452 20.9551 21.4146 21.0898 21.6416 20.9859C22.3231 20.6741 22.2089 20.3295 22.3826 19.7035C22.4677 19.3968 22.509 19.2561 22.869 19.2355C23.0897 19.2229 23.36 18.6757 23.36 18.4773C23.36 18.1516 23.1941 16.8767 23.6054 16.8767" stroke="#FFF8F8" stroke-linecap="round"/>
<path d="M10.5132 11.9905C11.0062 11.8763 11.0041 11.7232 11.0041 11.2745C11.0041 11.0388 11.3038 10.888 11.3314 10.7269C11.364 10.5368 11.628 10.3242 11.7405 10.1793C11.8522 10.0356 12.2677 10.1807 12.4315 10.1325C12.522 10.1059 12.4462 9.94354 12.5179 9.88445C12.5791 9.83401 12.6554 9.76012 12.7043 9.69724C12.8424 9.51948 12.904 9.31583 13.1316 9.19178C13.2703 9.11616 13.5203 8.87352 13.6635 8.87352C13.9089 8.87352 14.1544 8.87352 14.3999 8.87352C14.5456 8.87352 14.9637 8.94832 15.0772 8.8548C15.2305 8.72862 15.2639 8.43283 15.4682 8.37274C15.8926 8.24788 16.2521 8.19957 16.732 8.19957C17.2587 8.19957 17.4724 8.33102 17.7957 8.74715C18.0713 9.10189 18.5924 9.12625 19.0231 9.12625C19.5167 9.12625 19.8283 9.06731 20.1505 9.48195C20.2646 9.62882 20.2427 9.91223 20.4505 9.97337C20.6543 10.0333 20.8107 10.2607 21.0278 10.3103C21.6005 10.4414 21.8754 10.5105 22.1143 11.0639C22.2056 11.2753 22.0762 11.5561 22.137 11.7753C22.2058 12.023 22.4782 12.2042 22.5462 12.4492C22.6613 12.8641 23.2583 12.8669 23.3554 13.2168C23.4469 13.5467 23.1596 14.4177 23.3781 14.6676C23.4981 14.8049 23.8509 14.8384 23.8509 14.9812C23.8509 15.1284 23.9237 15.6036 23.8099 15.6973C23.666 15.8158 23.8383 16.1537 23.7054 16.3057C23.5813 16.4476 23.5236 16.8592 23.5236 17.0452" stroke="#FFF8F8" stroke-linecap="round"/>
<path d="M22.4791 12.8506C22.3145 12.834 22.2512 12.8121 22.1295 12.9143C22.0581 12.9742 21.9937 13.0092 21.9047 13.0348C21.7093 13.0912 21.7113 13.278 21.6537 13.4199C21.605 13.54 21.5781 13.7267 21.6638 13.8412C21.6782 13.8604 21.6831 14.0369 21.6845 14.0728C21.6856 14.1021 21.6767 14.1599 21.6886 14.1863C21.7034 14.2191 21.7614 14.2488 21.7623 14.2861C21.7688 14.5445 22.1185 14.9253 22.4063 14.8562C22.7421 14.7757 23.055 14.9922 23.3773 14.7775C23.4251 14.7456 23.5363 14.7351 23.6025 14.7055C23.659 14.6802 23.7606 14.6665 23.8246 14.6702C23.9998 14.6801 24.1712 14.5961 24.3519 14.602C24.6224 14.6109 24.9698 14.578 25.2308 14.5154C25.4009 14.4746 25.5726 14.4753 25.7399 14.4711C25.9041 14.467 26.0233 14.3736 26.1858 14.3267C26.3039 14.2927 26.5359 14.0657 26.5974 13.96C26.6651 13.8436 26.726 13.6221 26.7206 13.4843C26.7077 13.1542 26.7804 12.8743 26.6218 12.5715C26.5802 12.4922 26.4972 12.4293 26.4432 12.3576C26.3954 12.2942 26.3965 12.2115 26.3461 12.1518C26.2337 12.0187 26.107 11.9144 26.0018 11.7898C25.7621 11.5061 25.4895 11.4654 25.1457 11.4361C24.9652 11.4206 24.7861 11.4655 24.6261 11.5488C24.5528 11.5869 24.4567 11.6505 24.3975 11.7002C24.3185 11.7665 24.2124 11.7789 24.1298 11.8482C23.8603 12.0744 23.5343 12.2714 23.2713 12.4921C23.1899 12.5605 23.0974 12.6037 23.0163 12.6678C22.9213 12.743 22.8295 12.767 22.7322 12.8318C22.6792 12.8671 22.5731 12.9416 22.5127 12.9459C22.4434 12.9508 22.2771 13.0202 22.2206 13.0676C22.1505 13.1264 22.067 13.1582 21.9931 13.2202C21.9648 13.2439 21.7898 13.3909 21.8769 13.3177C22.0305 13.1888 22.1842 13.0599 22.3378 12.9309C22.4292 12.8542 22.5567 12.8464 22.6519 12.7822C22.7263 12.732 22.8942 12.6191 22.9802 12.6024C23.0662 12.5856 23.3959 12.3174 23.3607 12.3022" stroke="#E55CFC" stroke-opacity="0.97" stroke-width="0.65154" stroke-linecap="round"/>
<path d="M25.2255 12.0653C24.5471 12.3854 23.8468 12.6529 23.27 13.137C23.1992 13.1964 23.1067 13.2573 23.0246 13.3C22.9558 13.3358 22.8769 13.4065 22.8032 13.4271C22.6657 13.4655 22.5206 13.6439 22.4125 13.7347C22.3404 13.7951 22.3236 13.8208 22.293 13.9072C22.2805 13.9425 22.3137 13.9712 22.3123 13.9543C22.3069 13.8867 22.2491 13.7932 22.2246 13.7297C22.1957 13.6548 22.0924 13.4918 22.0995 13.4099C22.103 13.3693 22.1131 13.2225 22.1027 13.3439C22.0872 13.5235 22.0904 13.8124 22.2169 13.962C22.5798 14.3915 23.1131 14.2553 23.6019 14.2005" stroke="#E55CFC" stroke-opacity="0.97" stroke-width="0.65154" stroke-linecap="round"/>
<path d="M26.1981 13.8924C25.9181 13.956 25.6332 13.985 25.3536 14.0521C25.1735 14.0953 24.92 14.1014 24.7559 14.1764C24.5394 14.2753 24.297 14.2929 24.0741 14.3757C23.9104 14.4366 23.7325 14.4936 23.5554 14.4835C23.3371 14.4711 23.1113 14.3378 22.9622 14.1679C22.7633 13.9413 22.5885 13.7511 22.9235 13.5587C23.359 13.3087 23.9297 13.2766 24.4167 13.2116C24.7141 13.1719 25.0374 13.0866 25.3356 13.1024C25.4965 13.111 25.6742 13.0332 25.8278 13.0464C25.9903 13.0602 25.8031 13.1696 25.7417 13.2181C25.4347 13.4603 25.0047 13.6639 24.6283 13.7706C24.4277 13.8274 24.2291 13.8584 24.0235 13.9053C23.823 13.9512 23.6451 13.9058 23.4466 13.9444C23.3857 13.9562 23.2042 13.9833 23.2609 13.958C23.339 13.923 23.4939 13.948 23.5805 13.9337C24.1087 13.8467 24.6398 13.786 25.1691 13.7076C25.4713 13.6628 25.8474 13.6987 26.0881 13.4966C26.2073 13.3967 26.0699 13.0907 26.0193 12.9805C25.9337 12.7939 25.7463 12.4986 25.5628 12.3921C25.4126 12.3048 25.2745 12.146 25.116 12.2791C25.0319 12.3496 24.3789 12.7894 24.4349 12.9139C24.4882 13.0324 24.9166 12.7211 24.981 12.6748C25.1232 12.5723 25.3114 12.4388 25.4056 12.2891C25.4534 12.213 25.4496 12.1147 25.4931 12.0439" stroke="#E55CFC" stroke-opacity="0.97" stroke-width="0.65154" stroke-linecap="round"/>
<path d="M10.6485 14.2803C10.7506 14.4101 10.7787 14.4708 10.9369 14.4875C11.0297 14.4972 11.0996 14.5193 11.1799 14.5654C11.356 14.6668 11.4898 14.5359 11.6324 14.4789C11.753 14.4307 11.9066 14.3207 11.93 14.1797C11.934 14.1561 12.0583 14.0303 12.0832 14.0044C12.1036 13.9833 12.1516 13.9496 12.1625 13.9228C12.1759 13.8895 12.1572 13.8272 12.1836 13.8006C12.3659 13.617 12.399 13.1018 12.1496 12.9429C11.8586 12.7574 11.7983 12.3825 11.4196 12.2997C11.3635 12.2875 11.2788 12.2149 11.2114 12.1878C11.154 12.1647 11.0737 12.1012 11.032 12.0527C10.9177 11.9199 10.7381 11.8549 10.6172 11.721C10.4361 11.5204 10.1716 11.2936 9.94534 11.1494C9.79792 11.0555 9.67947 10.9316 9.56045 10.8143C9.4437 10.6992 9.29349 10.6783 9.147 10.594C9.04052 10.5327 8.71551 10.5233 8.59642 10.5523C8.46541 10.5843 8.26293 10.6941 8.16698 10.7934C7.93718 11.0314 7.68435 11.1731 7.57532 11.4969C7.54675 11.5818 7.55879 11.685 7.54442 11.7735C7.53169 11.8518 7.47105 11.9083 7.46284 11.9858C7.44453 12.1589 7.4568 12.3222 7.43967 12.4841C7.40064 12.8529 7.56011 13.077 7.77719 13.3444C7.89112 13.4848 8.04773 13.5824 8.21884 13.6397C8.2972 13.6659 8.40982 13.6909 8.48677 13.699C8.58947 13.7099 8.67201 13.7775 8.7794 13.7888C9.12978 13.8257 9.49828 13.9235 9.84011 13.9595C9.946 13.9706 10.0414 14.0072 10.1439 14.021C10.2642 14.0371 10.3452 14.0865 10.4595 14.1115C10.5217 14.1251 10.6492 14.1498 10.6942 14.1902C10.7457 14.2366 10.9112 14.308 10.9846 14.3158C11.0758 14.3254 11.1566 14.3633 11.2527 14.3735C11.2895 14.3773 11.5171 14.4013 11.4038 14.3894C11.204 14.3683 11.0043 14.3473 10.8046 14.3262C10.6858 14.3137 10.5917 14.2275 10.4793 14.2036C10.3914 14.1849 10.1934 14.1425 10.1216 14.0922C10.0499 14.042 9.6274 13.991 9.64087 14.0269" stroke="#E55CFC" stroke-opacity="0.97" stroke-width="0.65154" stroke-linecap="round"/>
<path d="M8.17716 12.851C8.87887 13.1166 9.55767 13.4343 10.3077 13.5132C10.3997 13.5229 10.5078 13.5471 10.5957 13.5765C10.6692 13.6011 10.775 13.6088 10.841 13.6475C10.9641 13.7197 11.1937 13.7003 11.3343 13.7151C11.428 13.7249 11.4582 13.7192 11.5419 13.6813C11.576 13.6659 11.5738 13.6221 11.5625 13.6348C11.5174 13.6855 11.4899 13.7919 11.4609 13.8535C11.4267 13.9261 11.3804 14.1133 11.3163 14.165C11.2845 14.1906 11.1713 14.285 11.2663 14.2084C11.4069 14.0951 11.6137 13.8926 11.6343 13.698C11.6935 13.1396 11.2253 12.8509 10.847 12.5377" stroke="#E55CFC" stroke-opacity="0.97" stroke-width="0.65154" stroke-linecap="round"/>
<path d="M8.82488 10.886C9.06496 11.043 9.28334 11.2276 9.52564 11.382C9.68171 11.4814 9.86184 11.6594 10.0298 11.7253C10.2514 11.8122 10.4321 11.9742 10.6465 12.0769C10.804 12.1524 10.9685 12.2407 11.084 12.3749C11.2263 12.5403 11.2863 12.795 11.2668 13.0198C11.2407 13.3198 11.2242 13.5772 10.8529 13.4698C10.3702 13.3302 9.95154 12.9424 9.56697 12.6376C9.33214 12.4514 9.04639 12.2783 8.85118 12.0531C8.74584 11.9315 8.56649 11.8578 8.4695 11.7383C8.36694 11.612 8.57577 11.6707 8.65342 11.6812C9.04138 11.7339 9.48663 11.9017 9.82467 12.0982C10.0048 12.2029 10.1649 12.3242 10.3413 12.4393C10.5134 12.5516 10.6039 12.7109 10.7693 12.8267C10.8201 12.8622 10.9655 12.9739 10.9079 12.9507C10.8285 12.9188 10.7392 12.7902 10.6689 12.7379C10.2398 12.4188 9.82794 12.0792 9.40434 11.7533C9.16255 11.5672 8.92785 11.2722 8.61481 11.2392C8.45994 11.2229 8.33383 11.5337 8.28918 11.6464C8.21354 11.8372 8.12981 12.1765 8.17982 12.3821C8.22079 12.5506 8.20164 12.7598 8.40779 12.7815C8.51708 12.793 9.28774 12.9574 9.33899 12.8308C9.38773 12.7104 8.86573 12.6183 8.78754 12.6042C8.61487 12.5731 8.38784 12.5304 8.21434 12.5665C8.12618 12.5848 8.05764 12.6557 7.97631 12.6735" stroke="#E55CFC" stroke-opacity="0.97" stroke-width="0.65154" stroke-linecap="round"/>
<path d="M15.0461 22.1223C15.1914 22.0436 15.2562 22.026 15.2989 21.8733C15.324 21.7837 15.3574 21.7186 15.4164 21.6474C15.5459 21.4912 15.4387 21.338 15.4059 21.1884C15.3782 21.0619 15.2949 20.8925 15.1593 20.8461C15.1365 20.8383 15.0327 20.6952 15.0112 20.6664C14.9937 20.6428 14.9684 20.5901 14.9436 20.5749C14.9129 20.5562 14.8482 20.5642 14.8263 20.5339C14.6748 20.3242 14.1706 20.206 13.9719 20.4247C13.7401 20.6798 13.3592 20.6768 13.2144 21.0352C13.1929 21.0883 13.1071 21.1595 13.0691 21.2212C13.0367 21.2738 12.9606 21.3421 12.9056 21.3751C12.7553 21.4653 12.6612 21.631 12.5086 21.7276C12.2801 21.8722 12.0118 22.0945 11.8316 22.2928C11.7141 22.4221 11.572 22.5179 11.4361 22.6154C11.3028 22.711 11.2572 22.8551 11.1495 22.9851C11.0712 23.0795 11.0079 23.3974 11.0169 23.5193C11.0268 23.6533 11.1018 23.8706 11.1842 23.9814C11.3815 24.2468 11.4798 24.5188 11.782 24.6798C11.8613 24.722 11.9654 24.7273 12.0506 24.7562C12.1259 24.7817 12.1717 24.8507 12.2471 24.8716C12.4153 24.9184 12.5789 24.9335 12.7363 24.9773C13.0948 25.0769 13.3429 24.9575 13.6435 24.7886C13.8013 24.6999 13.9239 24.5623 14.009 24.4036C14.048 24.331 14.0914 24.2244 14.1122 24.1502C14.1399 24.051 14.2205 23.9811 14.2495 23.8775C14.3442 23.5393 14.5021 23.1934 14.5945 22.8634C14.6231 22.7612 14.6751 22.6735 14.7057 22.575C14.7417 22.4596 14.804 22.3882 14.8477 22.28C14.8715 22.2211 14.9171 22.0999 14.9645 22.0624C15.019 22.0195 15.1171 21.8687 15.137 21.7978C15.1616 21.7098 15.2126 21.6368 15.2385 21.5439C15.2485 21.5085 15.31 21.2888 15.2794 21.3982C15.2254 21.591 15.1714 21.7838 15.1174 21.9765C15.0853 22.0912 14.9844 22.1693 14.9421 22.2758C14.909 22.3591 14.8342 22.5467 14.7726 22.6088C14.711 22.671 14.5904 23.0777 14.6281 23.0704" stroke="#E55CFC" stroke-opacity="0.97" stroke-width="0.65154" stroke-linecap="round"/>
<path d="M13.2218 24.3136C13.6011 23.6682 14.0282 23.0539 14.2309 22.3299C14.2558 22.2411 14.2977 22.1389 14.3414 22.0574C14.3779 21.9893 14.4032 21.8865 14.4524 21.8281C14.5443 21.7192 14.5632 21.4903 14.6012 21.3546C14.6265 21.2641 14.6259 21.2335 14.6023 21.1449C14.5927 21.1088 14.549 21.1037 14.5597 21.1169C14.6024 21.1697 14.703 21.2144 14.7592 21.2532C14.8254 21.2988 15.0029 21.3754 15.0434 21.447C15.0635 21.4825 15.1381 21.6094 15.0781 21.5033C14.9893 21.3463 14.8232 21.1095 14.6341 21.0569C14.0915 20.906 13.728 21.3181 13.3552 21.6379" stroke="#E55CFC" stroke-opacity="0.97" stroke-width="0.65154" stroke-linecap="round"/>
<path d="M11.385 23.3508C11.5803 23.1409 11.7992 22.957 11.9922 22.7445C12.1165 22.6077 12.3225 22.4602 12.4156 22.3061C12.5384 22.1028 12.7287 21.9521 12.866 21.7585C12.9668 21.6162 13.0816 21.4692 13.2336 21.378C13.4209 21.2657 13.6828 21.249 13.902 21.3055C14.1945 21.3809 14.4465 21.4399 14.2785 21.787C14.0602 22.2381 13.607 22.5852 13.2415 22.9125C13.0183 23.1123 12.7995 23.3644 12.5442 23.5188C12.4064 23.6021 12.3037 23.7661 12.1694 23.8416C12.0273 23.9214 12.1201 23.7259 12.1434 23.6514C12.26 23.2789 12.4999 22.8692 12.7505 22.5696C12.8841 22.41 13.0307 22.2729 13.1739 22.1186C13.3136 21.9681 13.4862 21.9056 13.6283 21.7623C13.6719 21.7183 13.8066 21.594 13.7741 21.6467C13.7293 21.7194 13.5872 21.7858 13.5238 21.8463C13.1367 22.2149 12.7323 22.5633 12.3394 22.9254C12.1152 23.1321 11.7842 23.3137 11.6996 23.6159C11.6578 23.7654 11.9443 23.941 12.0484 24.0035C12.2247 24.1096 12.5465 24.2482 12.7583 24.2332C12.9317 24.2209 13.1356 24.2745 13.1913 24.0755C13.2208 23.97 13.5115 23.24 13.3948 23.1686C13.2838 23.1007 13.1059 23.5984 13.079 23.6729C13.0195 23.8374 12.9395 24.0534 12.9464 24.2299C12.9499 24.3196 13.0087 24.3987 13.0128 24.4816" stroke="#E55CFC" stroke-opacity="0.97" stroke-width="0.65154" stroke-linecap="round"/>
<ellipse cx="19.4129" cy="15.6095" rx="0.579285" ry="0.578129" fill="white"/>
<ellipse cx="17.6734" cy="13.8751" rx="1.16023" ry="1.15626" fill="white"/>
<path d="M22.8767 17.9571C22.7555 17.8449 22.7182 17.7893 22.5593 17.7976C22.4661 17.8025 22.3936 17.7917 22.3071 17.7586C22.1172 17.6861 22.0056 17.8362 21.8738 17.9148C21.7623 17.9813 21.6278 18.114 21.6268 18.2568C21.6267 18.2808 21.5237 18.4245 21.5031 18.454C21.4862 18.478 21.4442 18.5188 21.4377 18.547C21.4296 18.582 21.4579 18.6405 21.436 18.6709C21.2848 18.8808 21.3331 19.3948 21.6044 19.5128C21.9209 19.6504 22.0394 20.0112 22.4264 20.0338C22.4838 20.0371 22.5789 20.0955 22.6496 20.1118C22.71 20.1256 22.7993 20.1757 22.8481 20.2171C22.9818 20.3304 23.1694 20.3665 23.3099 20.4799C23.5203 20.6496 23.8172 20.8322 24.0633 20.9392C24.2237 21.009 24.3601 21.1128 24.4961 21.21C24.6295 21.3054 24.7811 21.3026 24.9391 21.3629C25.0539 21.4068 25.3763 21.3653 25.4894 21.318C25.6138 21.2659 25.7965 21.1258 25.8756 21.0127C26.0652 20.7417 26.2926 20.5622 26.3494 20.2254C26.3643 20.1371 26.3362 20.037 26.3364 19.9474C26.3367 19.8681 26.3877 19.8028 26.3836 19.7249C26.3745 19.5511 26.3367 19.3918 26.3282 19.2292C26.3088 18.8588 26.1161 18.6625 25.8596 18.4323C25.725 18.3115 25.555 18.2396 25.377 18.2098C25.2955 18.1961 25.1804 18.189 25.1031 18.1931C24.9999 18.1984 24.9078 18.1446 24.8 18.1502C24.4481 18.1685 24.0688 18.1296 23.7255 18.1475C23.6192 18.153 23.5192 18.1319 23.4158 18.1343C23.2945 18.1372 23.2067 18.1011 23.0899 18.0943C23.0263 18.0905 22.8965 18.0861 22.8458 18.0532C22.7875 18.0155 22.6129 17.9708 22.5392 17.9747C22.4476 17.9794 22.3619 17.9546 22.2653 17.9596C22.2284 17.9615 21.9999 17.9734 22.1136 17.9675C22.3142 17.957 22.5148 17.9466 22.7154 17.9361C22.8347 17.9299 22.9411 18.0004 23.0559 18.0064C23.1456 18.0111 23.3479 18.022 23.4266 18.0604C23.5053 18.0988 23.9307 18.0831 23.9117 18.0498" stroke="#E55CFC" stroke-opacity="0.97" stroke-width="0.65154" stroke-linecap="round"/>
<path d="M25.5424 18.982C24.8075 18.8294 24.0872 18.6217 23.334 18.661C23.2416 18.6658 23.131 18.6587 23.0396 18.6434C22.9632 18.6306 22.8574 18.6395 22.7862 18.6117C22.6533 18.5596 22.4295 18.6147 22.2883 18.622C22.1943 18.6269 22.1653 18.6373 22.0886 18.6878C22.0573 18.7084 22.0664 18.7512 22.0756 18.7369C22.1122 18.6798 22.1226 18.5705 22.1415 18.5051C22.1638 18.428 22.1801 18.2359 22.2353 18.1748C22.2627 18.1446 22.3597 18.0336 22.2778 18.1242C22.1568 18.258 21.9845 18.4904 21.9947 18.6858C22.0241 19.2464 22.5319 19.4585 22.9549 19.7087" stroke="#E55CFC" stroke-opacity="0.97" stroke-width="0.65154" stroke-linecap="round"/>
<path d="M25.2119 21.024C24.9501 20.9064 24.7054 20.7582 24.4418 20.6436C24.272 20.5698 24.0661 20.4222 23.8898 20.3833C23.6573 20.3321 23.4533 20.2004 23.2254 20.1324C23.0581 20.0825 22.8816 20.0209 22.7465 19.9064C22.5799 19.7653 22.4806 19.5232 22.4645 19.2981C22.443 18.9978 22.4188 18.741 22.8025 18.789C23.3011 18.8514 23.7756 19.169 24.2034 19.41C24.4646 19.5571 24.7741 19.6835 25.0023 19.8754C25.1255 19.979 25.3142 20.0238 25.4288 20.1266C25.55 20.2354 25.3345 20.2101 25.2561 20.2118C24.8647 20.2203 24.3985 20.1242 24.0338 19.983C23.8394 19.9077 23.6622 19.8129 23.4699 19.7268C23.2822 19.6428 23.1678 19.4996 22.9862 19.4111C22.9304 19.3839 22.7693 19.2963 22.8298 19.3102C22.9132 19.3293 23.0216 19.4424 23.0993 19.4831C23.5733 19.7312 24.0335 20.0022 24.5032 20.2579C24.7712 20.4039 25.0495 20.6586 25.3638 20.6423C25.5193 20.6342 25.595 20.3075 25.6214 20.1893C25.666 19.989 25.6953 19.6408 25.6136 19.4455C25.5466 19.2856 25.5326 19.076 25.3256 19.0867C25.2159 19.0925 24.4289 19.0505 24.3982 19.1835C24.369 19.31 24.899 19.3194 24.9785 19.3211C25.1539 19.3249 25.3848 19.3316 25.5505 19.2688C25.6347 19.237 25.6912 19.1563 25.7687 19.1259" stroke="#E55CFC" stroke-opacity="0.97" stroke-width="0.65154" stroke-linecap="round"/>
<path d="M26.0754 5.08669C25.925 5.29275 25.8123 5.65801 25.6322 5.83751C25.5554 5.91407 25.3647 5.99593 25.3574 6.12017C25.3439 6.34872 25.454 6.9759 25.1358 6.5795C25.0969 6.531 25.1181 6.394 25.1181 6.394C25.1181 6.394 25.102 6.56278 25.1624 6.59717C25.2911 6.67045 25.4979 6.94484 25.579 7.07416C25.6776 7.2314 24.8788 6.84627 24.8788 6.59717C24.8788 6.26951 25.0929 6.11064 25.3574 5.97884C25.7291 5.79363 25.9368 5.35125 26.3147 5.18386C26.4554 5.12154 27.0594 4.66393 27.1124 5.08669C27.1343 5.26099 27.2499 5.84824 27.3916 5.96118C27.5834 6.11405 26.7114 6.14763 26.5939 6.19967C26.2883 6.33503 26.1387 6.65042 25.8759 6.79591C25.8077 6.83368 25.6041 7.06523 25.7563 7.07416C25.9211 7.08382 26.0364 6.90593 26.195 6.83566C26.5042 6.6987 26.7264 6.18483 26.6293 5.84634C26.5348 5.51677 25.9327 6.25185 25.8804 6.31892C25.8259 6.38865 25.8392 6.79065 25.8981 6.7385C26.0259 6.62531 26.1348 6.46199 26.2305 6.31892C26.3977 6.06889 26.6735 5.75461 26.913 5.56368C27.0272 5.4726 27.0358 5.11883 26.8908 5.26336C26.7652 5.38854 26.8398 5.46102 26.6338 5.56368" stroke="#FA0EB8" stroke-width="0.5" stroke-linecap="round"/>
<path d="M1.69354 16.0447C1.88423 16.0586 2.08279 16.0565 2.26829 16.0213C2.46195 15.9845 2.66878 15.9244 2.86732 15.906C2.95411 15.898 3.02277 15.8413 3.10257 15.8362C3.20503 15.8296 3.28246 15.7872 3.37709 15.7558C3.53103 15.7048 3.71121 15.6307 3.82348 15.5035C3.96449 15.3437 3.92442 15.175 3.96207 14.9796C3.97997 14.8867 3.96651 14.7848 3.98771 14.6877C4.00652 14.6016 3.94537 14.4836 3.9365 14.3884C3.92323 14.2458 3.81361 14.1007 3.68931 14.0237C3.61609 13.9783 3.48249 13.9443 3.39658 13.945C3.28705 13.9459 3.15975 13.8817 3.04989 13.8972C2.85495 13.9248 2.64388 13.8529 2.44784 13.8552C2.35299 13.8562 2.23968 13.8503 2.15064 13.8175C2.0915 13.7957 2.02008 13.789 1.95812 13.7785C1.91497 13.7711 1.87475 13.7299 1.83141 13.7273C1.64691 13.7161 1.47666 13.677 1.30321 13.7565C1.2094 13.7995 1.13335 13.9225 1.06492 14C0.959253 14.1198 0.914106 14.191 0.857045 14.3301C0.796002 14.4789 0.673508 14.7523 0.750115 14.9183C0.835602 15.1035 0.873111 15.328 0.993926 15.4929C1.0188 15.5269 1.00819 15.5811 1.03651 15.6167C1.06316 15.6503 1.10401 15.6776 1.13636 15.7059C1.19564 15.7579 1.25492 15.8099 1.31419 15.8618C1.43354 15.9664 1.57849 15.8839 1.68946 15.9812" stroke="#FA0EB8" stroke-width="0.5" stroke-linecap="round"/>
<path d="M1.77326 15.6527C2.02273 15.597 2.34941 15.3969 2.60362 15.3807C2.71204 15.3737 2.90941 15.4377 2.99726 15.3493C3.15885 15.1866 3.49183 14.6432 3.46805 15.1502C3.46514 15.2123 3.35843 15.3012 3.35843 15.3012C3.35843 15.3012 3.48234 15.185 3.45979 15.1195C3.41174 14.9798 3.43831 14.6376 3.46312 14.4871C3.49329 14.3042 3.83785 15.1191 3.67276 15.3062C3.45561 15.5522 3.18954 15.5305 2.90359 15.4554C2.50176 15.3498 2.05266 15.5453 1.65796 15.4222C1.51102 15.3764 0.75423 15.3225 0.994594 14.9701C1.09369 14.8249 1.39602 14.3078 1.36451 14.1298C1.32185 13.8888 1.99884 14.4375 2.12154 14.4757C2.44071 14.5753 2.76203 14.4369 3.05577 14.5006C3.13202 14.5172 3.43839 14.4773 3.33002 14.3705C3.21263 14.2547 3.00821 14.3124 2.84252 14.2607C2.51958 14.16 2.01222 14.3997 1.86076 14.7177C1.71328 15.0274 2.65257 14.8718 2.73632 14.8558C2.82339 14.8393 3.07985 14.5287 3.00108 14.5291C2.83013 14.53 2.64011 14.581 2.47344 14.6254C2.18214 14.703 1.76681 14.7575 1.46046 14.7433C1.3143 14.7364 1.07338 14.9964 1.27806 14.9833C1.45534 14.972 1.44737 14.8685 1.6701 14.927" stroke="#FA0EB8" stroke-width="0.5" stroke-linecap="round"/>
<path d="M5.13365 6.61631C5.25785 6.76118 5.39901 6.90035 5.55462 7.00697C5.71708 7.11828 5.90542 7.22254 6.05817 7.35026C6.12494 7.40609 6.21371 7.4148 6.27348 7.46774C6.35021 7.53572 6.43494 7.56073 6.52389 7.60569C6.66858 7.67882 6.84818 7.75432 7.01787 7.74437C7.23101 7.73188 7.32312 7.58485 7.48897 7.47407C7.5678 7.42142 7.63104 7.34018 7.71518 7.28693C7.78985 7.23967 7.83098 7.11336 7.89267 7.04009C7.98501 6.93041 8.01142 6.75068 7.97892 6.60845C7.95978 6.52467 7.89005 6.40611 7.82911 6.34577C7.7514 6.26883 7.70765 6.13349 7.61932 6.06658C7.46257 5.94785 7.36534 5.74781 7.22586 5.61051C7.15837 5.54407 7.08289 5.45965 7.04367 5.37349C7.01762 5.31627 6.97212 5.261 6.93609 5.20966C6.911 5.17391 6.9121 5.11643 6.88348 5.08389C6.76163 4.94538 6.66976 4.79728 6.49105 4.73034C6.3944 4.69414 6.25319 4.72677 6.14976 4.73283C5.99005 4.74219 5.90745 4.76035 5.76814 4.81774C5.6191 4.87914 5.33791 4.98472 5.27342 5.15573C5.20145 5.34656 5.06769 5.53107 5.03506 5.73264C5.02834 5.77415 4.98222 5.80475 4.9767 5.8499C4.97151 5.89238 4.98079 5.9405 4.98332 5.98337C4.98796 6.06191 4.99259 6.14045 4.99723 6.21899C5.00656 6.37712 5.16736 6.42176 5.17603 6.56879" stroke="#FA0EB8" stroke-width="0.5" stroke-linecap="round"/>
<path d="M5.46921 6.39705C5.68444 6.53456 6.05695 6.62522 6.24732 6.79387C6.32852 6.86581 6.42171 7.05063 6.5466 7.05064C6.77633 7.05064 7.39812 6.90428 7.01972 7.24412C6.97342 7.2857 6.83494 7.27265 6.83494 7.27265C6.83494 7.27265 7.00495 7.27872 7.03585 7.21663C7.1017 7.08431 7.36443 6.86246 7.4892 6.77419C7.64093 6.66685 7.30203 7.48418 7.0525 7.49881C6.72429 7.51804 6.55258 7.31434 6.40503 7.05893C6.19768 6.70003 5.74235 6.51941 5.55249 6.15326C5.48181 6.01695 4.98796 5.44292 5.40833 5.36535C5.58164 5.33337 6.16311 5.1838 6.26792 5.03625C6.4098 4.83651 6.49463 5.70204 6.55365 5.81587C6.70718 6.11196 7.03189 6.24223 7.19305 6.49512C7.23489 6.56077 7.47879 6.74979 7.4788 6.59783C7.4788 6.43324 7.29384 6.32905 7.21414 6.17534C7.0588 5.87576 6.531 5.68492 6.19764 5.80134C5.87305 5.91469 6.64473 6.47058 6.71499 6.51871C6.78802 6.56876 7.18994 6.53196 7.13424 6.47645C7.01336 6.35598 6.84336 6.25722 6.69443 6.1704C6.43416 6.01868 6.10316 5.7628 5.89784 5.53575C5.79989 5.42744 5.44502 5.43964 5.5983 5.57543C5.73108 5.69305 5.79931 5.61458 5.91423 5.81352" stroke="#FA0EB8" stroke-width="0.5" stroke-linecap="round"/>
<path d="M28.6504 24.1365C28.5166 24.0004 28.3663 23.871 28.2038 23.7752C28.0342 23.6751 27.8392 23.5838 27.6781 23.4667C27.6077 23.4155 27.5185 23.4128 27.4553 23.364C27.3741 23.3013 27.2879 23.2821 27.1961 23.2433C27.0468 23.1801 26.8624 23.1169 26.6938 23.1382C26.482 23.1651 26.4001 23.318 26.2422 23.4397C26.1671 23.4976 26.1095 23.5829 26.0292 23.6417C25.9579 23.6939 25.9255 23.8227 25.8689 23.9C25.7842 24.0156 25.7701 24.1967 25.8122 24.3364C25.837 24.4187 25.9146 24.5323 25.9795 24.5884C26.0623 24.6599 26.1151 24.792 26.2078 24.8528C26.3722 24.9607 26.4828 25.1537 26.6313 25.2812C26.7032 25.343 26.7842 25.4221 26.8292 25.5054C26.8591 25.5608 26.9082 25.6128 26.9477 25.6616C26.9752 25.6956 26.978 25.753 27.0087 25.7835C27.1397 25.9135 27.2414 26.0551 27.4243 26.1098C27.5232 26.1394 27.6618 26.0973 27.7646 26.0843C27.9233 26.0641 28.0045 26.0404 28.1396 25.9738C28.2841 25.9025 28.5575 25.7782 28.6102 25.6032C28.669 25.4079 28.79 25.2148 28.8088 25.0115C28.8127 24.9696 28.8566 24.936 28.8591 24.8906C28.8613 24.8478 28.8488 24.8005 28.8434 24.7579C28.8334 24.6798 28.8235 24.6018 28.8135 24.5237C28.7934 24.3666 28.63 24.3329 28.6113 24.1868" stroke="#FA0EB8" stroke-width="0.5" stroke-linecap="round"/>
<path d="M28.3305 24.3779C28.1064 24.2553 27.7286 24.19 27.5272 24.0346C27.4413 23.9683 27.3357 23.7902 27.2111 23.7986C26.9819 23.8141 26.3715 24.0021 26.7259 23.6375C26.7693 23.5929 26.9084 23.5965 26.9084 23.5965C26.9084 23.5965 26.7383 23.602 26.7117 23.666C26.655 23.8025 26.408 24.0415 26.2895 24.138C26.1454 24.2554 26.428 23.417 26.6759 23.3856C27.0021 23.3442 27.1872 23.5359 27.3518 23.7807C27.5831 24.1248 28.0496 24.2743 28.2639 24.6268C28.3437 24.758 28.8755 25.2974 28.4613 25.4032C28.2906 25.4468 27.7206 25.6352 27.6261 25.7895C27.4981 25.9984 27.3546 25.1406 27.288 25.031C27.1147 24.7459 26.7819 24.6379 26.6039 24.3965C26.5577 24.3338 26.3015 24.1617 26.3118 24.3133C26.323 24.4775 26.5146 24.569 26.6046 24.7169C26.78 25.0053 27.3195 25.1601 27.6442 25.0215C27.9603 24.8865 27.1526 24.3839 27.0793 24.3406C27.003 24.2957 26.6045 24.3595 26.6639 24.4111C26.7926 24.5232 26.969 24.6102 27.1235 24.6868C27.3934 24.8206 27.7411 25.0535 27.9614 25.2662C28.0664 25.3676 28.4197 25.3315 28.2575 25.2064C28.117 25.098 28.0543 25.1809 27.9261 24.9902" stroke="#FA0EB8" stroke-width="0.5" stroke-linecap="round"/>
<path d="M30.6629 13.4636C30.4726 13.4822 30.2773 13.5179 30.1005 13.5841C29.9159 13.6531 29.7223 13.7474 29.5298 13.7991C29.4456 13.8217 29.3877 13.8893 29.3099 13.9078C29.21 13.9316 29.141 13.9865 29.0531 14.0335C28.9101 14.1099 28.7452 14.2134 28.6562 14.3578C28.5445 14.5391 28.6128 14.6986 28.609 14.8975C28.6072 14.9921 28.6379 15.0902 28.6335 15.1895C28.6297 15.2775 28.7101 15.3834 28.7351 15.4758C28.7725 15.614 28.9052 15.7385 29.0409 15.7933C29.1208 15.8256 29.2582 15.8365 29.3428 15.8212C29.4505 15.8018 29.5869 15.8435 29.6925 15.8096C29.88 15.7494 30.1002 15.7845 30.293 15.7491C30.3863 15.7319 30.499 15.7186 30.5923 15.7358C30.6543 15.7473 30.7258 15.7418 30.7887 15.7417C30.8325 15.7416 30.8791 15.7754 30.9223 15.7707C31.106 15.7504 31.2804 15.7601 31.4378 15.6523C31.5229 15.5941 31.5769 15.46 31.6311 15.372C31.7148 15.2361 31.7471 15.1582 31.7796 15.0115C31.8144 14.8546 31.8885 14.5644 31.7847 14.4138C31.6689 14.2458 31.5936 14.0309 31.4464 13.8888C31.4161 13.8596 31.4173 13.8044 31.3833 13.774C31.3513 13.7455 31.3064 13.7255 31.2697 13.7031C31.2024 13.6619 31.1352 13.6207 31.0679 13.5796C30.9324 13.4967 30.8036 13.6025 30.6777 13.5255" stroke="#FA0EB8" stroke-width="0.5" stroke-linecap="round"/>
<path d="M30.6512 13.8634C30.4148 13.9606 30.127 14.2131 29.8793 14.2722C29.7736 14.2974 29.5682 14.2677 29.4967 14.3698C29.3652 14.5575 29.1298 15.1494 29.0667 14.6457C29.059 14.5841 29.149 14.4784 29.149 14.4784C29.149 14.4784 29.0467 14.6138 29.0801 14.6746C29.1513 14.8042 29.1835 15.1458 29.1847 15.2983C29.1862 15.4837 28.7076 14.739 28.8384 14.5267C29.0104 14.2475 29.2763 14.2238 29.5709 14.2494C29.9849 14.2853 30.3941 14.0166 30.8041 14.071C30.9567 14.0913 31.7117 14.0162 31.5349 14.4042C31.462 14.5641 31.2523 15.1249 31.3137 15.295C31.3969 15.5252 30.6361 15.0992 30.5087 15.0823C30.1772 15.0383 29.8842 15.2291 29.5838 15.216C29.5059 15.2126 29.2107 15.3038 29.3358 15.3908C29.4712 15.485 29.6628 15.3934 29.8349 15.4163C30.1703 15.4608 30.6294 15.1387 30.7244 14.7997C30.8169 14.4695 29.9179 14.782 29.838 14.8118C29.7551 14.8429 29.5553 15.1924 29.6329 15.1787C29.8012 15.1488 29.9797 15.0664 30.1364 14.9944C30.4102 14.8685 30.8102 14.7445 31.1145 14.7067C31.2597 14.6886 31.4528 14.3916 31.2533 14.4392C31.0806 14.4803 31.1061 14.581 30.8766 14.5611" stroke="#FA0EB8" stroke-width="0.5" stroke-linecap="round"/>
<path d="M15.0728 1.48103C15.0645 1.6714 15.0725 1.86912 15.1134 2.05286C15.156 2.24467 15.2224 2.44892 15.2467 2.64615C15.2574 2.73237 15.3163 2.79907 15.3238 2.87841C15.3334 2.98028 15.3783 3.05615 15.4126 3.14948C15.4684 3.30131 15.5481 3.47858 15.679 3.58663C15.8434 3.72235 16.0114 3.67741 16.2085 3.70911C16.3022 3.72417 16.404 3.70773 16.502 3.72596C16.589 3.74215 16.7055 3.67772 16.8007 3.66606C16.9433 3.64859 17.0856 3.53508 17.1592 3.40897C17.2025 3.33469 17.2327 3.20059 17.2294 3.11503C17.2252 3.00595 17.2858 2.87723 17.267 2.76826C17.2336 2.57489 17.2994 2.3625 17.2913 2.16729C17.2874 2.07283 17.29 1.95979 17.3202 1.87011C17.3403 1.81056 17.3449 1.73922 17.3537 1.67718C17.3598 1.63398 17.3999 1.59269 17.4012 1.54944C17.4069 1.36532 17.4411 1.19456 17.3562 1.02415C17.3102 0.931987 17.1846 0.859881 17.1048 0.794021C16.9816 0.692327 16.9088 0.649476 16.7676 0.596772C16.6166 0.540389 16.3387 0.426502 16.1745 0.50775C15.9913 0.598415 15.7672 0.642458 15.6054 0.76771C15.5721 0.793502 15.5174 0.784536 15.4825 0.813813C15.4496 0.84136 15.4235 0.882855 15.396 0.91593C15.3456 0.976524 15.2953 1.03712 15.2449 1.09771C15.1435 1.21971 15.2306 1.36165 15.1363 1.47508" stroke="#FA0EB8" stroke-width="0.5" stroke-linecap="round"/>
<path d="M15.4678 1.5492C15.531 1.79587 15.7412 2.11509 15.765 2.36764C15.7752 2.47536 15.7169 2.67375 15.8081 2.75855C15.976 2.91455 16.5305 3.22979 16.0215 3.22126C15.9593 3.22021 15.867 3.11664 15.867 3.11664C15.867 3.11664 15.9871 3.23652 16.0521 3.21212C16.1907 3.16011 16.5345 3.17635 16.686 3.19655C16.8703 3.22112 16.0637 3.58844 15.8713 3.42969C15.6183 3.22088 15.6322 2.95537 15.699 2.66848C15.7929 2.26533 15.5837 1.82412 15.6954 1.42755C15.7369 1.27991 15.7686 0.524961 16.1289 0.753709C16.2774 0.84802 16.8046 1.13353 16.9821 1.09685C17.2224 1.04719 16.6924 1.73747 16.6577 1.86075C16.5674 2.18144 16.7156 2.49716 16.6604 2.79146C16.6461 2.86786 16.6951 3.17165 16.799 3.06057C16.9116 2.94026 16.8477 2.7385 16.8945 2.57203C16.9859 2.24755 16.7307 1.74966 16.4075 1.60838C16.0928 1.47082 16.2765 2.40118 16.295 2.48407C16.3141 2.57025 16.633 2.81627 16.6302 2.73787C16.6243 2.56773 16.5676 2.3801 16.5181 2.21551C16.4317 1.92787 16.3648 1.51605 16.37 1.21067C16.3725 1.06498 16.1049 0.832924 16.124 1.03627C16.1406 1.21241 16.2441 1.20138 16.1921 1.42484" stroke="#FA0EB8" stroke-width="0.5" stroke-linecap="round"/>
<path d="M3.25431 22.9659C3.43484 22.9031 3.61619 22.8226 3.77235 22.7167C3.93538 22.6063 4.1012 22.4692 4.27605 22.3737C4.35249 22.3319 4.39285 22.2527 4.46404 22.2164C4.55545 22.1698 4.60958 22.1002 4.68389 22.0339C4.80477 21.926 4.94053 21.7867 4.99281 21.6255C5.05847 21.423 4.95441 21.2841 4.91101 21.0899C4.89038 20.9976 4.83737 20.9094 4.8181 20.8119C4.80101 20.7254 4.69783 20.6414 4.6517 20.5575C4.58266 20.432 4.42418 20.3422 4.2794 20.3208C4.19411 20.3082 4.05796 20.3299 3.97941 20.3646C3.87928 20.4089 3.73685 20.4004 3.64224 20.4581C3.47434 20.5606 3.25201 20.5783 3.07302 20.658C2.98641 20.6966 2.88008 20.736 2.78528 20.7412C2.72232 20.7446 2.65414 20.7668 2.59306 20.7817C2.55053 20.792 2.49718 20.7701 2.45637 20.7849C2.28264 20.8478 2.11082 20.8793 1.98339 21.021C1.91447 21.0976 1.89373 21.2406 1.86187 21.3389C1.81267 21.4906 1.79968 21.5739 1.80279 21.7241C1.80612 21.8847 1.80281 22.1842 1.93931 22.3061C2.09163 22.4422 2.21562 22.6334 2.39226 22.7368C2.42863 22.7581 2.44051 22.8121 2.48073 22.8336C2.51857 22.8538 2.56693 22.8626 2.60793 22.8758C2.68305 22.9 2.75817 22.9242 2.83329 22.9484C2.98454 22.9972 3.08463 22.864 3.22526 22.9093" stroke="#FA0EB8" stroke-width="0.5" stroke-linecap="round"/>
<path d="M3.17106 22.5747C3.37773 22.4247 3.59767 22.1117 3.82445 21.9961C3.92118 21.9468 4.12781 21.9273 4.17313 21.8113C4.2565 21.598 4.34526 20.9675 4.52573 21.4422C4.54781 21.5003 4.48535 21.6241 4.48535 21.6241C4.48535 21.6241 4.55272 21.4685 4.50588 21.4172C4.40604 21.3081 4.29394 20.9836 4.25667 20.8357C4.21136 20.6558 4.85264 21.2671 4.77576 21.5042C4.67465 21.8159 4.42188 21.9015 4.12952 21.9458C3.71869 22.0081 3.38458 22.3655 2.97332 22.4089C2.82022 22.4251 2.10427 22.6754 2.18428 22.2569C2.21726 22.0843 2.2884 21.4901 2.18847 21.3392C2.05318 21.135 2.89327 21.3703 3.02112 21.3567C3.35369 21.3216 3.59332 21.0673 3.88827 21.0094C3.96484 20.9944 4.23008 20.8365 4.08799 20.7814C3.93409 20.7216 3.76956 20.8556 3.59691 20.8738C3.26042 20.9094 2.89047 21.3303 2.87835 21.6821C2.86656 22.0247 3.66636 21.5097 3.73686 21.462C3.81015 21.4123 3.92158 21.0257 3.84947 21.0573C3.69296 21.1258 3.53893 21.2479 3.40372 21.3547C3.1674 21.5413 2.80803 21.7558 2.52124 21.8641C2.38442 21.9158 2.26705 22.2498 2.44964 22.1567C2.6078 22.0761 2.55919 21.9842 2.78691 21.9497" stroke="#FA0EB8" stroke-width="0.5" stroke-linecap="round"/>
<path d="M9.69026 29.6448C9.81083 29.4969 9.92271 29.3334 9.99985 29.1616C10.0804 28.9823 10.1493 28.7789 10.2478 28.6061C10.2908 28.5306 10.2834 28.442 10.3249 28.3738C10.3781 28.2864 10.3875 28.1988 10.4158 28.1035C10.4619 27.9485 10.504 27.7588 10.4636 27.5943C10.4128 27.3876 10.251 27.3238 10.1118 27.1813C10.0456 27.1135 9.95399 27.0662 9.88625 26.9933C9.82613 26.9286 9.69404 26.9111 9.6106 26.8639C9.48568 26.7932 9.30353 26.7997 9.16902 26.8572C9.08978 26.8911 8.98536 26.9809 8.93679 27.0515C8.87488 27.1415 8.7492 27.2088 8.69911 27.3075C8.61022 27.4826 8.43033 27.614 8.31999 27.7755C8.2666 27.8536 8.1969 27.9428 8.11894 27.9968C8.06716 28.0327 8.02083 28.0873 7.97666 28.1319C7.94591 28.1629 7.88898 28.1722 7.86203 28.2061C7.74731 28.3506 7.61772 28.4673 7.58391 28.6546C7.56562 28.7559 7.62331 28.8884 7.64796 28.9887C7.68601 29.1435 7.71885 29.2212 7.80063 29.3474C7.88813 29.4824 8.04308 29.739 8.22349 29.7714C8.42483 29.8075 8.63107 29.9053 8.8359 29.9009C8.87808 29.9 8.9166 29.9397 8.96216 29.9369C9.00503 29.9344 9.05084 29.9166 9.0927 29.9064C9.16938 29.8876 9.24606 29.8689 9.32274 29.8502C9.47713 29.8125 9.49217 29.6468 9.63571 29.6118" stroke="#FA0EB8" stroke-width="0.5" stroke-linecap="round"/>
<path d="M9.41336 29.3554C9.51023 29.1196 9.53248 28.7381 9.66458 28.521C9.72092 28.4285 9.88652 28.3038 9.86398 28.1813C9.82253 27.9562 9.56586 27.3731 9.96956 27.6827C10.019 27.7205 10.0311 27.8586 10.0311 27.8586C10.0311 27.8586 10.0064 27.6909 9.93952 27.6718C9.79704 27.6311 9.53067 27.4137 9.42103 27.3073C9.28771 27.1779 10.1555 27.3626 10.215 27.6046C10.2932 27.9228 10.1232 28.1279 9.89772 28.3186C9.58091 28.5866 9.48483 29.0655 9.15772 29.3177C9.03594 29.4116 8.55852 29.9993 8.40609 29.6012C8.34325 29.4371 8.0907 28.8941 7.92616 28.818C7.70342 28.715 8.54235 28.4757 8.64404 28.3973C8.90856 28.1933 8.97853 27.8515 9.19905 27.6479C9.25629 27.5951 9.39882 27.3219 9.24885 27.3493C9.0864 27.379 9.01695 27.5791 8.87963 27.685C8.61199 27.8913 8.51889 28.4431 8.69395 28.7489C8.8644 29.0466 9.27377 28.1898 9.30861 28.1123C9.34482 28.0317 9.23596 27.6443 9.19123 27.709C9.09414 27.8492 9.02735 28.0336 8.96855 28.1953C8.86577 28.4778 8.67296 28.8484 8.48593 29.0906C8.39671 29.2062 8.47279 29.5519 8.57915 29.3771C8.67127 29.2257 8.58152 29.173 8.75712 29.0245" stroke="#FA0EB8" stroke-width="0.5" stroke-linecap="round"/>
<path d="M17.5457 30.5443C17.5584 30.3542 17.555 30.1563 17.5184 29.9717C17.4802 29.779 17.4186 29.5732 17.3989 29.3755C17.3902 29.2891 17.3328 29.221 17.3272 29.1415C17.32 29.0395 17.2769 28.9626 17.2448 28.8685C17.1925 28.7154 17.117 28.5363 16.9886 28.4253C16.8274 28.2858 16.6584 28.3269 16.4621 28.2906C16.3687 28.2734 16.2665 28.2875 16.169 28.267C16.0825 28.2488 15.9645 28.3105 15.869 28.32C15.726 28.3342 15.5811 28.4444 15.5046 28.5688C15.4596 28.642 15.4264 28.7754 15.4277 28.861C15.4293 28.9701 15.3657 29.0974 15.382 29.2068C15.4109 29.4009 15.3402 29.6117 15.3437 29.8071C15.3454 29.9016 15.3402 30.0145 15.3079 30.1035C15.2864 30.1626 15.2802 30.2338 15.27 30.2956C15.2629 30.3386 15.2218 30.379 15.2195 30.4222C15.2095 30.6061 15.1714 30.7761 15.2523 30.9484C15.2961 31.0416 15.42 31.1166 15.4982 31.1843C15.619 31.2888 15.6909 31.3333 15.8308 31.3892C15.9804 31.4491 16.2556 31.5694 16.4217 31.4919C16.607 31.4055 16.832 31.3666 16.9967 31.2452C17.0306 31.2201 17.085 31.2304 17.1206 31.2019C17.1541 31.1751 17.1812 31.1342 17.2095 31.1018C17.2612 31.0424 17.313 30.983 17.3647 30.9236C17.4689 30.8039 17.3852 30.66 17.4821 30.5488" stroke="#FA0EB8" stroke-width="0.5" stroke-linecap="round"/>
<path d="M17.1525 30.467C17.095 30.219 16.8923 29.895 16.8743 29.6419C16.8667 29.534 16.9296 29.337 16.8403 29.2501C16.6761 29.0903 16.1291 28.7623 16.6377 28.7826C16.6999 28.7851 16.7898 28.8908 16.7898 28.8908C16.7898 28.8908 16.6725 28.7682 16.6069 28.7911C16.4671 28.8398 16.1239 28.8157 15.9728 28.792C15.7892 28.7632 16.6041 28.4146 16.7927 28.5777C17.0408 28.7923 17.0208 29.0574 16.9473 29.3427C16.8441 29.7436 17.043 30.1895 16.9222 30.5834C16.8772 30.73 16.828 31.484 16.4731 31.247C16.3269 31.1493 15.8064 30.8517 15.6281 30.8843C15.3867 30.9284 15.9326 30.2505 15.9701 30.1281C16.0678 29.8095 15.927 29.4905 15.989 29.1975C16.0051 29.1215 15.9632 28.8167 15.8567 28.9253C15.7414 29.043 15.8006 29.2462 15.7499 29.4115C15.651 29.7338 15.8946 30.2374 16.2144 30.3861C16.5259 30.5309 16.3637 29.5966 16.3473 29.5133C16.3301 29.4267 16.017 29.1734 16.018 29.2518C16.0199 29.422 16.0723 29.6109 16.1179 29.7766C16.1976 30.0662 16.255 30.4794 16.2426 30.7846C16.2368 30.9302 16.499 31.1684 16.4845 30.9646C16.4721 30.7882 16.3683 30.7968 16.4255 30.5746" stroke="#FA0EB8" stroke-width="0.5" stroke-linecap="round"/>
<path d="M18.1037 9.40126C17.9978 9.52792 17.9442 9.56804 17.961 9.72573C17.9709 9.81823 17.964 9.89096 17.9356 9.97883C17.8732 10.1717 18.0296 10.2746 18.1155 10.4016C18.1881 10.5089 18.3283 10.6356 18.4715 10.6288C18.4956 10.6277 18.6451 10.7224 18.6757 10.7413C18.7007 10.7568 18.7438 10.7965 18.7725 10.8014C18.8079 10.8076 18.8651 10.7763 18.8967 10.7964C19.1152 10.9355 19.6276 10.8597 19.7311 10.5833C19.852 10.2609 20.2071 10.1235 20.2088 9.73718C20.209 9.6799 20.2624 9.58212 20.2749 9.51085C20.2855 9.44999 20.3309 9.35849 20.3697 9.30765C20.476 9.16848 20.502 8.97985 20.608 8.8339C20.7667 8.61539 20.9337 8.31008 21.0276 8.05939C21.0888 7.89604 21.1854 7.75466 21.2756 7.61408C21.364 7.47617 21.3529 7.32542 21.4049 7.16501C21.4426 7.04841 21.3836 6.72974 21.3301 6.6198C21.2712 6.49885 21.121 6.32459 21.0033 6.25194C20.7216 6.07794 20.5294 5.86132 20.1889 5.82301C20.0996 5.81297 20.0008 5.84636 19.911 5.85091C19.8315 5.85493 19.7634 5.80768 19.6856 5.81595C19.512 5.83441 19.3543 5.88063 19.1919 5.8979C18.8218 5.93724 18.6355 6.13961 18.4187 6.40723C18.305 6.54768 18.242 6.72076 18.2218 6.89949C18.2125 6.98135 18.2117 7.09632 18.2199 7.173C18.2308 7.27534 18.1818 7.36995 18.1933 7.47695C18.2307 7.82611 18.2122 8.20566 18.2486 8.54629C18.2599 8.65181 18.2441 8.75242 18.2521 8.85523C18.2615 8.97577 18.2301 9.06505 18.2296 9.18166C18.2293 9.24517 18.2319 9.37455 18.2016 9.42684C18.167 9.48683 18.1317 9.66299 18.1395 9.73621C18.1492 9.82704 18.129 9.91373 18.1392 10.0095C18.1431 10.0462 18.1674 10.2729 18.1553 10.16C18.134 9.961 18.1127 9.76197 18.0914 9.56294C18.0787 9.44457 18.1436 9.33482 18.1434 9.22028C18.1433 9.13075 18.1433 8.92887 18.1775 8.84843C18.2117 8.76803 18.173 8.34565 18.1407 8.36629" stroke="#E55CFC" stroke-opacity="0.97" stroke-width="0.65154" stroke-linecap="round"/>
<path d="M18.9866 6.69326C18.8734 7.43273 18.7042 8.16081 18.7842 8.90816C18.794 8.99984 18.7929 9.1103 18.7825 9.20207C18.7738 9.27886 18.7884 9.38363 18.7644 9.45601C18.7194 9.59107 18.7866 9.81075 18.8016 9.95086C18.8116 10.0442 18.8236 10.0725 18.8783 10.1461C18.9006 10.1761 18.9431 10.1647 18.9283 10.1564C18.869 10.1231 18.7589 10.1186 18.6924 10.1033C18.614 10.0852 18.4206 10.0794 18.3564 10.0277C18.3246 10.0021 18.2082 9.91165 18.3033 9.98818C18.444 10.1014 18.6861 10.2603 18.8814 10.2396C19.4416 10.18 19.6266 9.66328 19.8545 9.22889" stroke="#E55CFC" stroke-opacity="0.97" stroke-width="0.65154" stroke-linecap="round"/>
<path d="M21.0504 6.91187C20.9467 7.17876 20.8115 7.4303 20.7109 7.69879C20.6461 7.87173 20.5093 8.0846 20.4799 8.26213C20.4412 8.49626 20.3202 8.70635 20.2644 8.9368C20.2234 9.10606 20.1713 9.28495 20.0638 9.42565C19.9314 9.599 19.6942 9.71093 19.4695 9.7391C19.1698 9.77668 18.9138 9.81464 18.9412 9.43028C18.9768 8.9307 19.2694 8.44132 19.4877 8.00262C19.6211 7.73473 19.7309 7.41996 19.9109 7.18248C20.0081 7.05433 20.0427 6.8641 20.1396 6.74452C20.242 6.61806 20.2283 6.83386 20.2342 6.91174C20.264 7.30081 20.1929 7.76986 20.071 8.14049C20.0061 8.33799 19.9207 8.51939 19.8448 8.71549C19.7708 8.90674 19.6335 9.02836 19.5546 9.21387C19.5304 9.27084 19.4513 9.43589 19.462 9.37492C19.4766 9.29086 19.584 9.1769 19.6206 9.09735C19.8436 8.61231 20.0903 8.1397 20.3212 7.65854C20.4529 7.38389 20.6932 7.09327 20.6598 6.78134C20.6433 6.62701 20.3119 6.56937 20.192 6.54951C19.9889 6.51587 19.6384 6.5055 19.4472 6.5974C19.2905 6.67267 19.0812 6.69793 19.1032 6.90335C19.1149 7.01226 19.1153 7.79767 19.2503 7.82104C19.3786 7.84326 19.3594 7.3153 19.3569 7.23616C19.3512 7.06138 19.3454 6.83121 19.2736 6.66973C19.2371 6.58768 19.1532 6.53577 19.1186 6.46027" stroke="#E55CFC" stroke-opacity="0.97" stroke-width="0.65154" stroke-linecap="round"/>
<path d="M13.517 9.54095C13.5319 9.70512 13.5225 9.77128 13.6463 9.87091C13.7189 9.92935 13.7656 9.98566 13.8078 10.0678C13.9006 10.2482 14.0842 10.2108 14.235 10.24C14.3625 10.2648 14.5516 10.2556 14.648 10.1499C14.6642 10.1321 14.8372 10.0938 14.8722 10.0856C14.9009 10.0789 14.9595 10.0766 14.9833 10.0599C15.0127 10.0392 15.0309 9.97683 15.0676 9.96879C15.3208 9.91321 15.6294 9.4986 15.5065 9.23017C15.3632 8.91704 15.5169 8.56967 15.244 8.29525C15.2035 8.25457 15.1719 8.14778 15.1302 8.08863C15.0945 8.03811 15.0617 7.9414 15.0531 7.8781C15.0295 7.70479 14.9141 7.55306 14.8855 7.37515C14.8427 7.10879 14.7442 6.77524 14.6328 6.53177C14.5602 6.37312 14.5282 6.20506 14.4922 6.04215C14.4569 5.88234 14.3421 5.78349 14.265 5.63348C14.209 5.52444 13.9412 5.34062 13.8253 5.3006C13.6979 5.25657 13.468 5.23918 13.3333 5.27069C13.0106 5.34615 12.721 5.32833 12.453 5.54121C12.3827 5.597 12.3366 5.6902 12.2763 5.75669C12.2229 5.81556 12.1413 5.83014 12.0921 5.89082C11.9824 6.02622 11.9037 6.16998 11.8011 6.29666C11.5673 6.58522 11.5791 6.85961 11.6156 7.20161C11.6348 7.38108 11.7131 7.54782 11.8256 7.68848C11.8771 7.7529 11.9581 7.83482 12.0183 7.88326C12.0986 7.94792 12.1311 8.04935 12.2151 8.11695C12.4893 8.33753 12.7455 8.61898 13.0129 8.83418C13.0958 8.90085 13.156 8.98314 13.2346 9.05019C13.3268 9.1288 13.3679 9.21409 13.4502 9.29692C13.4951 9.34203 13.5887 9.43173 13.6044 9.49C13.6224 9.55686 13.7225 9.70631 13.7799 9.75257C13.8513 9.80995 13.8984 9.88554 13.9736 9.94608C14.0024 9.96921 14.1804 10.1125 14.0918 10.0412C13.9355 9.91541 13.7793 9.78967 13.623 9.66392C13.5301 9.58914 13.498 9.46584 13.4167 9.38496C13.3531 9.32173 13.2099 9.17895 13.177 9.09796C13.1441 9.01702 12.8171 8.74558 12.8089 8.78294" stroke="#E55CFC" stroke-opacity="0.97" stroke-width="0.65154" stroke-linecap="round"/>
<path d="M12.2202 7.00368C12.6648 7.60641 13.0617 8.2405 13.6485 8.71266C13.7204 8.77058 13.798 8.84947 13.8558 8.92169C13.9041 8.98212 13.9888 9.04591 14.0231 9.11407C14.0871 9.24127 14.2905 9.34925 14.4005 9.43777C14.4738 9.49674 14.5023 9.5083 14.5933 9.52176C14.6303 9.52725 14.6523 9.48934 14.6359 9.49388C14.5704 9.51205 14.4893 9.58645 14.4314 9.62252C14.3632 9.66499 14.2222 9.79712 14.1402 9.80582C14.0996 9.81014 13.9531 9.82816 14.0746 9.81525C14.2544 9.79616 14.5384 9.738 14.6618 9.58577C15.0157 9.14894 14.7799 8.65314 14.6329 8.18537" stroke="#E55CFC" stroke-opacity="0.97" stroke-width="0.65154" stroke-linecap="round"/>
<path d="M13.8348 5.7041C13.9508 5.96591 14.0336 6.2391 14.153 6.49986C14.2299 6.66782 14.2842 6.91471 14.3893 7.06098C14.528 7.25388 14.5915 7.48769 14.7155 7.68997C14.8066 7.83855 14.8967 8.00178 14.9205 8.17699C14.9499 8.39286 14.8615 8.63918 14.7226 8.8174C14.5373 9.05519 14.3832 9.26241 14.1299 8.97128C13.8006 8.59287 13.6603 8.04066 13.5035 7.57656C13.4078 7.29316 13.2622 6.99314 13.221 6.69837C13.1987 6.53931 13.0883 6.38034 13.072 6.22753C13.0547 6.06593 13.1981 6.22822 13.2575 6.2791C13.5546 6.53332 13.8371 6.91512 14.0138 7.26307C14.108 7.44849 14.1764 7.63694 14.2618 7.82909C14.3451 8.0165 14.3343 8.19927 14.4101 8.38603C14.4334 8.4434 14.4946 8.6158 14.4589 8.5652C14.4096 8.49543 14.4047 8.33915 14.3742 8.25713C14.1878 7.75695 14.0269 7.24894 13.8488 6.746C13.7472 6.45892 13.7109 6.08413 13.4659 5.88706C13.3448 5.78956 13.0695 5.98227 12.9707 6.05271C12.8032 6.17203 12.548 6.41162 12.4779 6.61136C12.4205 6.77497 12.2905 6.9403 12.4517 7.07008C12.5372 7.13888 13.0948 7.694 13.2068 7.61544C13.3133 7.54072 12.9252 7.1809 12.8672 7.12674C12.7392 7.00713 12.5718 6.84844 12.4064 6.78486C12.3224 6.75255 12.2263 6.77495 12.1483 6.74591" stroke="#E55CFC" stroke-opacity="0.97" stroke-width="0.65154" stroke-linecap="round"/>
</svg>
