<svg width="33" height="32" viewBox="0 0 33 32" fill="none" xmlns="http://www.w3.org/2000/svg">
<path d="M27.7592 16.1876C27.7592 22.4346 22.6774 27.5002 16.4068 27.5002C10.1363 27.5002 5.05447 22.4346 5.05447 16.1876C5.05447 9.94066 10.1363 4.87503 16.4068 4.87503C22.6774 4.87503 27.7592 9.94066 27.7592 16.1876Z" fill="#D1C4C4" stroke="white" stroke-width="0.5"/>
<ellipse cx="18.7273" cy="11.5626" rx="2.32047" ry="2.31252" fill="#FF0E0E"/>
<ellipse cx="22.208" cy="15.0314" rx="1.16023" ry="1.15626" fill="#F11B1B"/>
<path d="M25.769 4.73994C25.6166 4.855 25.4689 4.98727 25.353 5.13582C25.232 5.2909 25.1165 5.47215 24.9796 5.61661C24.9197 5.67977 24.9058 5.76757 24.8492 5.82392C24.7766 5.89627 24.7466 5.97909 24.6964 6.06494C24.6146 6.2046 24.5284 6.37885 24.5284 6.54824C24.5284 6.76102 24.6703 6.86129 24.7715 7.03279C24.8197 7.11431 24.8973 7.18199 24.9457 7.26882C24.9887 7.34588 25.1128 7.39422 25.1826 7.45989C25.287 7.55819 25.4655 7.59501 25.6099 7.57103C25.6949 7.55691 25.8178 7.4945 25.8818 7.43741C25.9634 7.36462 26.1016 7.32904 26.1738 7.24509C26.3019 7.09612 26.508 7.01113 26.6537 6.88043C26.7243 6.81719 26.8132 6.74705 26.9019 6.71309C26.9607 6.69053 27.0187 6.64851 27.0723 6.61568C27.1096 6.59281 27.1671 6.59729 27.2014 6.57072C27.3473 6.45763 27.501 6.37493 27.5785 6.20107C27.6205 6.10704 27.5961 5.96464 27.5961 5.86139C27.5961 5.70195 27.5827 5.61871 27.5334 5.47675C27.4807 5.32487 27.3914 5.03892 27.2239 4.96473C27.037 4.88193 26.86 4.73802 26.66 4.69373C26.6188 4.68461 26.5909 4.63693 26.546 4.62879C26.5037 4.62113 26.455 4.62754 26.4119 4.62754C26.3329 4.62754 26.254 4.62754 26.175 4.62754C26.0161 4.62754 25.9619 4.78489 25.8141 4.78489" stroke="#FA0E0E" stroke-width="0.5" stroke-linecap="round"/>
<path d="M8.39095 11.3508C8.37385 12.0325 8.20512 11.6424 7.98385 11.9952C7.87006 12.1766 7.85214 12.2514 7.85214 12.4785C7.85214 12.8062 7.74438 13.2237 7.74438 13.6061C7.74438 13.952 7.80448 14.3457 7.5528 14.5965C7.41454 14.7343 7.20557 15.3412 7.20557 15.5391C7.20557 15.915 7.20557 16.2909 7.20557 16.6668C7.20557 17.0475 7.74438 17.166 7.74438 17.5259C7.74438 18.0335 7.51764 19.3464 7.87609 19.7036C8.07896 19.9058 8.31701 19.9844 8.49871 20.2107C8.72718 20.4953 8.62197 20.936 8.72022 21.2787C8.80956 21.5903 8.78029 21.9495 9.06147 22.1736C9.13342 22.231 9.41752 22.2827 9.51646 22.3108C9.65364 22.3499 9.72204 22.6167 9.89961 22.6271C10.6476 22.6709 10.7515 23.6372 11.2407 23.9158C11.595 24.1176 11.769 24.1306 12.2165 24.1306C12.6981 24.1306 12.8908 24.3302 13.3001 24.4468C13.5704 24.5237 13.9154 24.7767 14.1263 24.9658C14.4204 25.2296 14.9204 25.2045 15.2877 25.2045C15.6596 25.2045 15.9412 24.9897 16.3114 24.9897C16.7116 24.9897 17.0335 25.0243 17.3891 25.1031C18.2824 25.3009 18.7679 25.4416 19.5982 24.9062C19.9405 24.6854 20.0366 24.5601 20.5142 24.5601C20.8683 24.5601 21.2681 24.1311 21.478 23.8621C21.7716 23.486 21.5758 23.168 21.9929 22.8657C22.2611 22.6713 22.7477 22.843 23.0466 22.7106C23.944 22.3131 23.7937 21.8738 24.0224 21.0758C24.1345 20.6848 24.1889 20.5055 24.663 20.4792C24.9536 20.4631 25.3096 19.7656 25.3096 19.5127C25.3096 19.0975 25.0912 17.4722 25.6329 17.4722" stroke="#A09494" stroke-width="1.2" stroke-linecap="round"/>
<path d="M8.39091 11.2434C9.04028 11.0978 9.03749 10.9026 9.03749 10.3306C9.03749 10.0302 9.43216 9.83795 9.46853 9.63255C9.51145 9.3902 9.85911 9.11915 10.0073 8.93449C10.1544 8.75134 10.7015 8.93628 10.9173 8.87483C11.0364 8.84092 10.9366 8.63395 11.0311 8.55862C11.1117 8.49432 11.2122 8.40013 11.2765 8.31997C11.4585 8.09336 11.5396 7.83376 11.8393 7.67561C12.022 7.57923 12.3512 7.26991 12.5397 7.26991C12.863 7.26991 13.1863 7.26991 13.5096 7.26991C13.7014 7.26991 14.2521 7.36526 14.4016 7.24604C14.6034 7.08519 14.6475 6.70812 14.9165 6.63152C15.4755 6.47236 15.9489 6.41077 16.5808 6.41077C17.2745 6.41077 17.5559 6.57834 17.9817 7.10882C18.3447 7.56103 19.0309 7.59209 19.5982 7.59209C20.2482 7.59209 20.6586 7.51694 21.0829 8.04552C21.2332 8.23275 21.2043 8.59404 21.478 8.67198C21.7464 8.74839 21.9524 9.03823 22.2383 9.10155C22.9925 9.26857 23.3546 9.35667 23.6692 10.0621C23.7894 10.3316 23.619 10.6896 23.6991 10.969C23.7897 11.2848 24.1484 11.5158 24.2379 11.8281C24.3896 12.3571 25.1757 12.3606 25.3036 12.8066C25.4241 13.2272 25.0458 14.3376 25.3335 14.6561C25.4916 14.8312 25.9561 14.8738 25.9561 15.0559C25.9561 15.2435 26.052 15.8493 25.9022 15.9687C25.7126 16.1199 25.9395 16.5506 25.7645 16.7443C25.6011 16.9252 25.5251 17.4499 25.5251 17.687" stroke="#A09494" stroke-width="1.2" stroke-linecap="round"/>
<ellipse cx="16.4935" cy="15.35" rx="7.04797" ry="7.25619" fill="#EADEDE"/>
<path d="M10.4069 12.0748C10.3939 12.6095 10.2658 12.3035 10.0977 12.5802C10.0113 12.7226 9.99773 12.7812 9.99773 12.9593C9.99773 13.2164 9.91591 13.544 9.91591 13.8439C9.91591 14.1153 9.96155 14.4241 9.77044 14.6208C9.66545 14.7289 9.50677 15.205 9.50677 15.3603C9.50677 15.6551 9.50677 15.95 9.50677 16.2449C9.50677 16.5435 9.91591 16.6365 9.91591 16.9188C9.91591 17.317 9.74374 18.3469 10.0159 18.6271C10.17 18.7857 10.3507 18.8473 10.4887 19.0249C10.6622 19.2482 10.5823 19.5938 10.6569 19.8627C10.7247 20.1071 10.7025 20.3888 10.916 20.5647C10.9706 20.6097 11.1864 20.6502 11.2615 20.6723C11.3657 20.703 11.4176 20.9122 11.5524 20.9204C12.1204 20.9548 12.1993 21.7128 12.5707 21.9313C12.8398 22.0896 12.9719 22.0998 13.3117 22.0998C13.6774 22.0998 13.8237 22.2564 14.1345 22.3479C14.3398 22.4082 14.6018 22.6067 14.7618 22.755C14.9852 22.962 15.3648 22.9422 15.6438 22.9422C15.9262 22.9422 16.14 22.7738 16.4211 22.7738C16.725 22.7738 16.9693 22.8009 17.2394 22.8627C17.9177 23.0179 18.2864 23.1282 18.9168 22.7082C19.1768 22.5351 19.2497 22.4368 19.6123 22.4368C19.8813 22.4368 20.1848 22.1002 20.3442 21.8892C20.5671 21.5942 20.4185 21.3447 20.7352 21.1076C20.9388 20.9551 21.3083 21.0898 21.5353 20.9859C22.2167 20.6741 22.1025 20.3295 22.2762 19.7035C22.3614 19.3968 22.4026 19.2561 22.7627 19.2355C22.9833 19.2229 23.2536 18.6757 23.2536 18.4773C23.2536 18.1516 23.0878 16.8767 23.4991 16.8767" stroke="#FFF8F8" stroke-linecap="round"/>
<path d="M10.4068 11.9905C10.8999 11.8763 10.8978 11.7232 10.8978 11.2745C10.8978 11.0388 11.1974 10.888 11.2251 10.7269C11.2576 10.5368 11.5216 10.3242 11.6342 10.1793C11.7458 10.0356 12.1613 10.1807 12.3252 10.1325C12.4156 10.1059 12.3398 9.94354 12.4115 9.88445C12.4728 9.83401 12.5491 9.76012 12.5979 9.69724C12.7361 9.51948 12.7976 9.31583 13.0252 9.19178C13.164 9.11616 13.4139 8.87352 13.5571 8.87352C13.8026 8.87352 14.0481 8.87352 14.2936 8.87352C14.4392 8.87352 14.8574 8.94832 14.9709 8.8548C15.1241 8.72862 15.1576 8.43283 15.3618 8.37274C15.7863 8.24788 16.1458 8.19957 16.6256 8.19957C17.1523 8.19957 17.366 8.33102 17.6893 8.74715C17.965 9.10189 18.486 9.12625 18.9167 9.12625C19.4103 9.12625 19.7219 9.06731 20.0441 9.48195C20.1583 9.62882 20.1363 9.91223 20.3442 9.97337C20.5479 10.0333 20.7044 10.2607 20.9215 10.3103C21.4941 10.4414 21.7691 10.5105 22.008 11.0639C22.0992 11.2753 21.9699 11.5561 22.0307 11.7753C22.0995 12.023 22.3718 12.2042 22.4398 12.4492C22.555 12.8641 23.1519 12.8669 23.249 13.2168C23.3406 13.5467 23.0533 14.4177 23.2717 14.6676C23.3918 14.8049 23.7445 14.8384 23.7445 14.9812C23.7445 15.1284 23.8173 15.6036 23.7036 15.6973C23.5596 15.8158 23.7319 16.1537 23.599 16.3057C23.475 16.4476 23.4172 16.8592 23.4172 17.0452" stroke="#FFF8F8" stroke-linecap="round"/>
<path d="M22.3728 12.8506C22.2082 12.834 22.1449 12.8121 22.0231 12.9143C21.9517 12.9742 21.8874 13.0092 21.7984 13.0348C21.603 13.0912 21.605 13.278 21.5474 13.4199C21.4987 13.54 21.4718 13.7267 21.5575 13.8412C21.5719 13.8604 21.5768 14.0369 21.5782 14.0728C21.5793 14.1021 21.5704 14.1599 21.5823 14.1863C21.597 14.2191 21.6551 14.2488 21.656 14.2861C21.6625 14.5445 22.0122 14.9253 22.3 14.8562C22.6357 14.7757 22.9487 14.9922 23.2709 14.7775C23.3187 14.7456 23.4299 14.7351 23.4962 14.7055C23.5527 14.6802 23.6542 14.6665 23.7182 14.6702C23.8935 14.6801 24.0649 14.5961 24.2456 14.602C24.5161 14.6109 24.8635 14.578 25.1245 14.5154C25.2946 14.4746 25.4663 14.4753 25.6336 14.4711C25.7978 14.467 25.917 14.3736 26.0794 14.3267C26.1975 14.2927 26.4296 14.0657 26.4911 13.96C26.5587 13.8436 26.6197 13.6221 26.6143 13.4843C26.6014 13.1542 26.6741 12.8743 26.5155 12.5715C26.4739 12.4922 26.3909 12.4293 26.3369 12.3576C26.289 12.2942 26.2902 12.2115 26.2398 12.1518C26.1273 12.0187 26.0007 11.9144 25.8955 11.7898C25.6558 11.5061 25.3832 11.4654 25.0394 11.4361C24.8589 11.4206 24.6797 11.4655 24.5198 11.5488C24.4465 11.5869 24.3504 11.6505 24.2912 11.7002C24.2122 11.7665 24.1061 11.7789 24.0235 11.8482C23.754 12.0744 23.4279 12.2714 23.165 12.4921C23.0836 12.5605 22.991 12.6037 22.91 12.6678C22.815 12.743 22.7232 12.767 22.6259 12.8318C22.5729 12.8671 22.4667 12.9416 22.4063 12.9459C22.337 12.9508 22.1708 13.0202 22.1143 13.0676C22.0441 13.1264 21.9607 13.1582 21.8867 13.2202C21.8585 13.2439 21.6834 13.3909 21.7706 13.3177C21.9242 13.1888 22.0778 13.0599 22.2315 12.9309C22.3228 12.8542 22.4504 12.8464 22.5456 12.7822C22.62 12.732 22.7879 12.6191 22.8739 12.6024C22.9599 12.5856 23.2896 12.3174 23.2544 12.3022" stroke="#FC5C5C" stroke-opacity="0.97" stroke-width="0.65154" stroke-linecap="round"/>
<path d="M25.1192 12.0653C24.4407 12.3854 23.7405 12.6529 23.1637 13.137C23.0929 13.1964 23.0004 13.2573 22.9183 13.3C22.8495 13.3358 22.7706 13.4065 22.6969 13.4271C22.5594 13.4655 22.4143 13.6439 22.3061 13.7347C22.2341 13.7951 22.2173 13.8208 22.1867 13.9072C22.1742 13.9425 22.2074 13.9712 22.206 13.9543C22.2006 13.8867 22.1428 13.7932 22.1183 13.7297C22.0894 13.6548 21.9861 13.4918 21.9932 13.4099C21.9966 13.3693 22.0068 13.2225 21.9964 13.3439C21.9809 13.5235 21.9841 13.8124 22.1106 13.962C22.4735 14.3915 23.0068 14.2553 23.4956 14.2005" stroke="#FC5C5C" stroke-opacity="0.97" stroke-width="0.65154" stroke-linecap="round"/>
<path d="M26.0918 13.8924C25.8118 13.956 25.5269 13.985 25.2473 14.0521C25.0672 14.0953 24.8136 14.1014 24.6495 14.1764C24.4331 14.2753 24.1907 14.2929 23.9678 14.3757C23.8041 14.4366 23.6261 14.4936 23.449 14.4835C23.2308 14.4711 23.005 14.3378 22.8559 14.1679C22.6569 13.9413 22.4821 13.7511 22.8172 13.5587C23.2526 13.3087 23.8233 13.2766 24.3104 13.2116C24.6078 13.1719 24.931 13.0866 25.2293 13.1024C25.3902 13.111 25.5678 13.0332 25.7214 13.0464C25.8839 13.0602 25.6967 13.1696 25.6353 13.2181C25.3283 13.4603 24.8984 13.6639 24.522 13.7706C24.3214 13.8274 24.1227 13.8584 23.9172 13.9053C23.7167 13.9512 23.5387 13.9058 23.3403 13.9444C23.2794 13.9562 23.0979 13.9833 23.1545 13.958C23.2326 13.923 23.3875 13.948 23.4741 13.9337C24.0023 13.8467 24.5334 13.786 25.0628 13.7076C25.3649 13.6628 25.741 13.6987 25.9818 13.4966C26.1009 13.3967 25.9635 13.0907 25.9129 12.9805C25.8273 12.7939 25.6399 12.4986 25.4565 12.3921C25.3063 12.3048 25.1682 12.146 25.0096 12.2791C24.9255 12.3496 24.2725 12.7894 24.3286 12.9139C24.3819 13.0324 24.8103 12.7211 24.8747 12.6748C25.0169 12.5723 25.2051 12.4388 25.2992 12.2891C25.347 12.213 25.3433 12.1147 25.3867 12.0439" stroke="#FC5C5C" stroke-opacity="0.97" stroke-width="0.65154" stroke-linecap="round"/>
<path d="M10.5421 14.2803C10.6442 14.4101 10.6723 14.4708 10.8306 14.4875C10.9234 14.4972 10.9933 14.5193 11.0735 14.5654C11.2497 14.6668 11.3834 14.5359 11.526 14.4789C11.6466 14.4307 11.8003 14.3207 11.8237 14.1797C11.8276 14.1561 11.9519 14.0303 11.9769 14.0044C11.9973 13.9833 12.0452 13.9496 12.0561 13.9228C12.0696 13.8895 12.0509 13.8272 12.0772 13.8006C12.2596 13.617 12.2926 13.1018 12.0432 12.9429C11.7522 12.7574 11.6919 12.3825 11.3133 12.2997C11.2571 12.2875 11.1724 12.2149 11.1051 12.1878C11.0476 12.1647 10.9674 12.1012 10.9256 12.0527C10.8114 11.9199 10.6318 11.8549 10.5108 11.721C10.3297 11.5204 10.0652 11.2936 9.83899 11.1494C9.69157 11.0555 9.57312 10.9316 9.4541 10.8143C9.33735 10.6992 9.18714 10.6783 9.04065 10.594C8.93417 10.5327 8.60915 10.5233 8.49007 10.5523C8.35905 10.5843 8.15658 10.6941 8.06063 10.7934C7.83082 11.0314 7.578 11.1731 7.46897 11.4969C7.44039 11.5818 7.45244 11.685 7.43806 11.7735C7.42534 11.8518 7.36469 11.9083 7.35649 11.9858C7.33817 12.1589 7.35045 12.3222 7.33332 12.4841C7.29429 12.8529 7.45375 13.077 7.67084 13.3444C7.78477 13.4848 7.94138 13.5824 8.11248 13.6397C8.19085 13.6659 8.30347 13.6909 8.38042 13.699C8.48312 13.7099 8.56566 13.7775 8.67304 13.7888C9.02343 13.8257 9.39193 13.9235 9.73376 13.9595C9.83965 13.9706 9.93504 14.0072 10.0376 14.021C10.1578 14.0371 10.2388 14.0865 10.3531 14.1115C10.4154 14.1251 10.5428 14.1498 10.5878 14.1902C10.6394 14.2366 10.8048 14.308 10.8783 14.3158C10.9694 14.3254 11.0502 14.3633 11.1464 14.3735C11.1831 14.3773 11.4107 14.4013 11.2974 14.3894C11.0977 14.3683 10.8979 14.3473 10.6982 14.3262C10.5794 14.3137 10.4853 14.2275 10.3729 14.2036C10.2851 14.1849 10.087 14.1425 10.0153 14.0922C9.94356 14.042 9.52105 13.991 9.53452 14.0269" stroke="#FC5C5C" stroke-opacity="0.97" stroke-width="0.65154" stroke-linecap="round"/>
<path d="M8.07081 12.851C8.77252 13.1166 9.45132 13.4343 10.2013 13.5132C10.2933 13.5229 10.4015 13.5471 10.4893 13.5765C10.5628 13.6011 10.6687 13.6088 10.7346 13.6475C10.8577 13.7197 11.0873 13.7003 11.2279 13.7151C11.3216 13.7249 11.3519 13.7192 11.4356 13.6813C11.4697 13.6659 11.4675 13.6221 11.4562 13.6348C11.411 13.6855 11.3835 13.7919 11.3545 13.8535C11.3204 13.9261 11.274 14.1133 11.2099 14.165C11.1781 14.1906 11.0649 14.285 11.16 14.2084C11.3005 14.0951 11.5073 13.8926 11.5279 13.698C11.5871 13.1396 11.119 12.8509 10.7406 12.5377" stroke="#FC5C5C" stroke-opacity="0.97" stroke-width="0.65154" stroke-linecap="round"/>
<path d="M8.71853 10.886C8.9586 11.043 9.17699 11.2276 9.41929 11.382C9.57535 11.4814 9.75549 11.6594 9.92349 11.7253C10.1451 11.8122 10.3258 11.9742 10.5402 12.0769C10.6976 12.1524 10.8622 12.2407 10.9777 12.3749C11.1199 12.5403 11.18 12.795 11.1604 13.0198C11.1344 13.3198 11.1179 13.5772 10.7465 13.4698C10.2639 13.3302 9.84519 12.9424 9.46062 12.6376C9.22579 12.4514 8.94004 12.2783 8.74482 12.0531C8.63948 11.9315 8.46014 11.8578 8.36315 11.7383C8.26059 11.612 8.46942 11.6707 8.54707 11.6812C8.93502 11.7339 9.38028 11.9017 9.71831 12.0982C9.89845 12.2029 10.0585 12.3242 10.235 12.4393C10.4071 12.5516 10.4975 12.7109 10.663 12.8267C10.7138 12.8622 10.8591 12.9739 10.8015 12.9507C10.7222 12.9188 10.6329 12.7902 10.5625 12.7379C10.1335 12.4188 9.72158 12.0792 9.29798 11.7533C9.0562 11.5672 8.8215 11.2722 8.50846 11.2392C8.35359 11.2229 8.22747 11.5337 8.18282 11.6464C8.10719 11.8372 8.02345 12.1765 8.07347 12.3821C8.11444 12.5506 8.09529 12.7598 8.30144 12.7815C8.41073 12.793 9.18138 12.9574 9.23263 12.8308C9.28138 12.7104 8.75937 12.6183 8.68119 12.6042C8.50852 12.5731 8.28149 12.5304 8.10799 12.5665C8.01983 12.5848 7.95129 12.6557 7.86996 12.6735" stroke="#FC5C5C" stroke-opacity="0.97" stroke-width="0.65154" stroke-linecap="round"/>
<path d="M14.9398 22.1223C15.0851 22.0436 15.1498 22.026 15.1926 21.8733C15.2177 21.7837 15.2511 21.7186 15.3101 21.6474C15.4396 21.4912 15.3323 21.338 15.2996 21.1884C15.2719 21.0619 15.1885 20.8925 15.053 20.8461C15.0302 20.8383 14.9264 20.6952 14.9049 20.6664C14.8874 20.6428 14.862 20.5901 14.8373 20.5749C14.8066 20.5562 14.7419 20.5642 14.7199 20.5339C14.5685 20.3242 14.0643 20.206 13.8656 20.4247C13.6338 20.6798 13.2529 20.6768 13.1081 21.0352C13.0866 21.0883 13.0007 21.1595 12.9628 21.2212C12.9304 21.2738 12.8542 21.3421 12.7993 21.3751C12.649 21.4653 12.5549 21.631 12.4023 21.7276C12.1738 21.8722 11.9054 22.0945 11.7252 22.2928C11.6078 22.4221 11.4656 22.5179 11.3298 22.6154C11.1965 22.711 11.1509 22.8551 11.0432 22.9851C10.9649 23.0795 10.9016 23.3974 10.9106 23.5193C10.9205 23.6533 10.9955 23.8706 11.0779 23.9814C11.2752 24.2468 11.3734 24.5188 11.6757 24.6798C11.755 24.722 11.8591 24.7273 11.9442 24.7562C12.0196 24.7817 12.0654 24.8507 12.1408 24.8716C12.309 24.9184 12.4726 24.9335 12.63 24.9773C12.9884 25.0769 13.2366 24.9575 13.5372 24.7886C13.695 24.6999 13.8176 24.5623 13.9027 24.4036C13.9416 24.331 13.9851 24.2244 14.0059 24.1502C14.0336 24.051 14.1142 23.9811 14.1432 23.8775C14.2379 23.5393 14.3958 23.1934 14.4882 22.8634C14.5168 22.7612 14.5688 22.6735 14.5994 22.575C14.6354 22.4596 14.6977 22.3882 14.7414 22.28C14.7652 22.2211 14.8107 22.0999 14.8582 22.0624C14.9127 22.0195 15.0108 21.8687 15.0306 21.7978C15.0553 21.7098 15.1062 21.6368 15.1322 21.5439C15.1422 21.5085 15.2037 21.2888 15.173 21.3982C15.1191 21.591 15.0651 21.7838 15.0111 21.9765C14.979 22.0912 14.8781 22.1693 14.8358 22.2758C14.8027 22.3591 14.7279 22.5467 14.6662 22.6088C14.6047 22.671 14.4841 23.0777 14.5218 23.0704" stroke="#FC5C5C" stroke-opacity="0.97" stroke-width="0.65154" stroke-linecap="round"/>
<path d="M13.1155 24.3136C13.4948 23.6682 13.9219 23.0539 14.1246 22.3299C14.1494 22.2411 14.1914 22.1389 14.2351 22.0574C14.2716 21.9893 14.2969 21.8865 14.3461 21.8281C14.4379 21.7192 14.4569 21.4903 14.4949 21.3546C14.5202 21.2641 14.5196 21.2335 14.496 21.1449C14.4863 21.1088 14.4427 21.1037 14.4534 21.1169C14.4961 21.1697 14.5967 21.2144 14.6529 21.2532C14.719 21.2988 14.8966 21.3754 14.9371 21.447C14.9572 21.4825 15.0318 21.6094 14.9717 21.5033C14.883 21.3463 14.7169 21.1095 14.5278 21.0569C13.9852 20.906 13.6217 21.3181 13.2489 21.6379" stroke="#FC5C5C" stroke-opacity="0.97" stroke-width="0.65154" stroke-linecap="round"/>
<path d="M11.2786 23.3508C11.4739 23.1409 11.6928 22.957 11.8858 22.7445C12.0102 22.6077 12.2161 22.4602 12.3093 22.3061C12.4321 22.1028 12.6224 21.9521 12.7597 21.7585C12.8605 21.6162 12.9752 21.4692 13.1272 21.378C13.3145 21.2657 13.5764 21.249 13.7957 21.3055C14.0882 21.3809 14.3401 21.4399 14.1722 21.787C13.9539 22.2381 13.5006 22.5852 13.1351 22.9125C12.9119 23.1123 12.6931 23.3644 12.4378 23.5188C12.3001 23.6021 12.1973 23.7661 12.063 23.8416C11.9209 23.9214 12.0137 23.7259 12.037 23.6514C12.1536 23.2789 12.3936 22.8692 12.6442 22.5696C12.7777 22.41 12.9243 22.2729 13.0675 22.1186C13.2072 21.9681 13.3799 21.9056 13.5219 21.7623C13.5656 21.7183 13.7002 21.594 13.6677 21.6467C13.6229 21.7194 13.4809 21.7858 13.4174 21.8463C13.0304 22.2149 12.626 22.5633 12.2331 22.9254C12.0088 23.1321 11.6779 23.3137 11.5933 23.6159C11.5514 23.7654 11.838 23.941 11.942 24.0035C12.1183 24.1096 12.4401 24.2482 12.6519 24.2332C12.8254 24.2209 13.0292 24.2745 13.0849 24.0755C13.1145 23.97 13.4052 23.24 13.2884 23.1686C13.1774 23.1007 12.9996 23.5984 12.9726 23.6729C12.9131 23.8374 12.8332 24.0534 12.8401 24.2299C12.8436 24.3196 12.9023 24.3987 12.9064 24.4816" stroke="#FC5C5C" stroke-opacity="0.97" stroke-width="0.65154" stroke-linecap="round"/>
<ellipse cx="19.3065" cy="15.6095" rx="0.579285" ry="0.578129" fill="white"/>
<ellipse cx="17.567" cy="13.8751" rx="1.16023" ry="1.15626" fill="white"/>
<path d="M22.7704 17.9571C22.6492 17.8449 22.6119 17.7893 22.4529 17.7976C22.3597 17.8025 22.2872 17.7917 22.2007 17.7586C22.0108 17.6861 21.8993 17.8362 21.7674 17.9148C21.6559 17.9813 21.5214 18.114 21.5205 18.2568C21.5203 18.2808 21.4173 18.4245 21.3967 18.454C21.3799 18.478 21.3378 18.5188 21.3313 18.547C21.3232 18.582 21.3515 18.6405 21.3296 18.6709C21.1784 18.8808 21.2267 19.3948 21.4981 19.5128C21.8146 19.6504 21.9331 20.0112 22.3201 20.0338C22.3775 20.0371 22.4725 20.0955 22.5433 20.1118C22.6037 20.1256 22.6929 20.1757 22.7418 20.2171C22.8755 20.3304 23.0631 20.3665 23.2036 20.4799C23.4139 20.6496 23.7108 20.8322 23.9569 20.9392C24.1173 21.009 24.2538 21.1128 24.3897 21.21C24.5231 21.3054 24.6748 21.3026 24.8327 21.3629C24.9475 21.4068 25.27 21.3653 25.383 21.318C25.5074 21.2659 25.6901 21.1258 25.7693 21.0127C25.9588 20.7417 26.1863 20.5622 26.243 20.2254C26.2579 20.1371 26.2298 20.037 26.2301 19.9474C26.2304 19.8681 26.2814 19.8028 26.2773 19.7249C26.2682 19.5511 26.2304 19.3918 26.2219 19.2292C26.2024 18.8588 26.0097 18.6625 25.7533 18.4323C25.6187 18.3115 25.4487 18.2396 25.2707 18.2098C25.1892 18.1961 25.074 18.189 24.9967 18.1931C24.8936 18.1984 24.8014 18.1446 24.6936 18.1502C24.3418 18.1685 23.9624 18.1296 23.6192 18.1475C23.5128 18.153 23.4129 18.1319 23.3094 18.1343C23.1881 18.1372 23.1004 18.1011 22.9836 18.0943C22.92 18.0905 22.7902 18.0861 22.7394 18.0532C22.6812 18.0155 22.5066 17.9708 22.4328 17.9747C22.3413 17.9794 22.2555 17.9546 22.1589 17.9596C22.122 17.9615 21.8935 17.9734 22.0073 17.9675C22.2079 17.957 22.4084 17.9466 22.609 17.9361C22.7283 17.9299 22.8348 18.0004 22.9495 18.0064C23.0393 18.0111 23.2415 18.022 23.3203 18.0604C23.399 18.0988 23.8243 18.0831 23.8054 18.0498" stroke="#FC5C5C" stroke-opacity="0.97" stroke-width="0.65154" stroke-linecap="round"/>
<path d="M25.436 18.982C24.7012 18.8294 23.9808 18.6217 23.2277 18.661C23.1353 18.6658 23.0247 18.6587 22.9333 18.6434C22.8568 18.6306 22.751 18.6395 22.6798 18.6117C22.5469 18.5596 22.3232 18.6147 22.182 18.622C22.0879 18.6269 22.0589 18.6373 21.9823 18.6878C21.951 18.7084 21.96 18.7512 21.9692 18.7369C22.0058 18.6798 22.0162 18.5705 22.0352 18.5051C22.0575 18.428 22.0738 18.2359 22.129 18.1748C22.1563 18.1446 22.2533 18.0336 22.1715 18.1242C22.0505 18.258 21.8781 18.4904 21.8884 18.6858C21.9178 19.2464 22.4256 19.4585 22.8485 19.7087" stroke="#FC5C5C" stroke-opacity="0.97" stroke-width="0.65154" stroke-linecap="round"/>
<path d="M25.1056 21.024C24.8437 20.9064 24.599 20.7582 24.3354 20.6436C24.1656 20.5698 23.9597 20.4222 23.7834 20.3833C23.5509 20.3321 23.347 20.2004 23.1191 20.1324C22.9517 20.0825 22.7753 20.0209 22.6401 19.9064C22.4736 19.7653 22.3742 19.5232 22.3581 19.2981C22.3367 18.9978 22.3125 18.741 22.6961 18.789C23.1947 18.8514 23.6693 19.169 24.0971 19.41C24.3583 19.5571 24.6677 19.6835 24.896 19.8754C25.0191 19.979 25.2079 20.0238 25.3224 20.1266C25.4436 20.2354 25.2281 20.2101 25.1498 20.2118C24.7583 20.2203 24.2922 20.1242 23.9274 19.983C23.733 19.9077 23.5559 19.8129 23.3635 19.7268C23.1759 19.6428 23.0614 19.4996 22.8798 19.4111C22.824 19.3839 22.6629 19.2963 22.7234 19.3102C22.8069 19.3293 22.9153 19.4424 22.993 19.4831C23.4669 19.7312 23.9272 20.0022 24.3968 20.2579C24.6649 20.4039 24.9431 20.6586 25.2574 20.6423C25.413 20.6342 25.4886 20.3075 25.515 20.1893C25.5597 19.989 25.589 19.6408 25.5072 19.4455C25.4403 19.2856 25.4263 19.076 25.2193 19.0867C25.1095 19.0925 24.3225 19.0505 24.2918 19.1835C24.2626 19.31 24.7927 19.3194 24.8721 19.3211C25.0475 19.3249 25.2785 19.3316 25.4441 19.2688C25.5283 19.237 25.5849 19.1563 25.6624 19.1259" stroke="#FC5C5C" stroke-opacity="0.97" stroke-width="0.65154" stroke-linecap="round"/>
<path d="M25.969 5.08669C25.8187 5.29275 25.706 5.65801 25.5259 5.83751C25.449 5.91407 25.2584 5.99593 25.2511 6.12017C25.2376 6.34872 25.3477 6.9759 25.0295 6.5795C24.9906 6.531 25.0118 6.394 25.0118 6.394C25.0118 6.394 24.9957 6.56278 25.0561 6.59717C25.1848 6.67045 25.3916 6.94484 25.4727 7.07416C25.5713 7.2314 24.7725 6.84627 24.7725 6.59717C24.7725 6.26951 24.9866 6.11064 25.2511 5.97884C25.6228 5.79363 25.8304 5.35125 26.2084 5.18386C26.349 5.12154 26.953 4.66393 27.0061 5.08669C27.0279 5.26099 27.1436 5.84824 27.2853 5.96118C27.477 6.11405 26.605 6.14763 26.4876 6.19967C26.182 6.33503 26.0324 6.65042 25.7696 6.79591C25.7014 6.83368 25.4977 7.06523 25.65 7.07416C25.8148 7.08382 25.93 6.90593 26.0887 6.83566C26.3979 6.6987 26.6201 6.18483 26.523 5.84634C26.4285 5.51677 25.8264 6.25185 25.774 6.31892C25.7196 6.38865 25.7329 6.79065 25.7918 6.7385C25.9195 6.62531 26.0284 6.46199 26.1242 6.31892C26.2914 6.06889 26.5672 5.75461 26.8066 5.56368C26.9209 5.4726 26.9295 5.11883 26.7845 5.26336C26.6589 5.38854 26.7335 5.46102 26.5274 5.56368" stroke="#FA0E0E" stroke-width="0.5" stroke-linecap="round"/>
<path d="M1.58721 16.0447C1.77791 16.0586 1.97646 16.0565 2.16196 16.0213C2.35562 15.9845 2.56246 15.9244 2.761 15.906C2.84779 15.898 2.91645 15.8413 2.99624 15.8362C3.09871 15.8296 3.17614 15.7872 3.27077 15.7558C3.42471 15.7048 3.60489 15.6307 3.71715 15.5035C3.85817 15.3437 3.81809 15.175 3.85574 14.9796C3.87364 14.8867 3.86018 14.7848 3.88138 14.6877C3.9002 14.6016 3.83905 14.4836 3.83018 14.3884C3.81691 14.2458 3.70729 14.1007 3.58299 14.0237C3.50977 13.9783 3.37617 13.9443 3.29025 13.945C3.18072 13.9459 3.05342 13.8817 2.94356 13.8972C2.74862 13.9248 2.53755 13.8529 2.34152 13.8552C2.24666 13.8562 2.13336 13.8503 2.04431 13.8175C1.98518 13.7957 1.91376 13.789 1.85179 13.7785C1.80865 13.7711 1.76843 13.7299 1.72508 13.7273C1.54058 13.7161 1.37033 13.677 1.19689 13.7565C1.10308 13.7995 1.02702 13.9225 0.958593 14C0.852929 14.1198 0.807782 14.191 0.750722 14.3301C0.689678 14.4789 0.567185 14.7523 0.643792 14.9183C0.729279 15.1035 0.766788 15.328 0.887603 15.4929C0.912481 15.5269 0.901862 15.5811 0.930188 15.6167C0.956839 15.6503 0.997682 15.6776 1.03004 15.7059C1.08932 15.7579 1.14859 15.8099 1.20787 15.8618C1.32722 15.9664 1.47217 15.8839 1.58314 15.9812" stroke="#FA0E0E" stroke-width="0.5" stroke-linecap="round"/>
<path d="M1.6669 15.6527C1.91637 15.597 2.24306 15.3969 2.49726 15.3807C2.60568 15.3737 2.80305 15.4377 2.8909 15.3493C3.0525 15.1866 3.38548 14.6432 3.3617 15.1502C3.35879 15.2123 3.25207 15.3012 3.25207 15.3012C3.25207 15.3012 3.37599 15.185 3.35344 15.1195C3.30539 14.9798 3.33196 14.6376 3.35677 14.4871C3.38693 14.3042 3.7315 15.1191 3.56641 15.3062C3.34926 15.5522 3.08319 15.5305 2.79724 15.4554C2.39541 15.3498 1.94631 15.5453 1.55161 15.4222C1.40467 15.3764 0.647876 15.3225 0.88824 14.9701C0.987339 14.8249 1.28967 14.3078 1.25816 14.1298C1.2155 13.8888 1.89248 14.4375 2.01519 14.4757C2.33436 14.5753 2.65567 14.4369 2.94941 14.5006C3.02567 14.5172 3.33204 14.4773 3.22366 14.3705C3.10627 14.2547 2.90186 14.3124 2.73617 14.2607C2.41322 14.16 1.90586 14.3997 1.7544 14.7177C1.60693 15.0274 2.54621 14.8718 2.62996 14.8558C2.71703 14.8393 2.97349 14.5287 2.89472 14.5291C2.72377 14.53 2.53376 14.581 2.36708 14.6254C2.07579 14.703 1.66045 14.7575 1.3541 14.7433C1.20795 14.7364 0.96703 14.9964 1.1717 14.9833C1.34899 14.972 1.34101 14.8685 1.56374 14.927" stroke="#FA0E0E" stroke-width="0.5" stroke-linecap="round"/>
<path d="M5.02729 6.61631C5.1515 6.76118 5.29266 6.90035 5.44827 7.00697C5.61073 7.11828 5.79906 7.22254 5.95181 7.35026C6.01859 7.40609 6.10736 7.4148 6.16712 7.46774C6.24386 7.53572 6.32858 7.56073 6.41753 7.60569C6.56223 7.67882 6.74183 7.75432 6.91151 7.74437C7.12465 7.73188 7.21676 7.58485 7.38261 7.47407C7.46145 7.42142 7.52469 7.34018 7.60882 7.28693C7.6835 7.23967 7.72463 7.11336 7.78632 7.04009C7.87866 6.93041 7.90506 6.75068 7.87257 6.60845C7.85343 6.52467 7.7837 6.40611 7.72275 6.34577C7.64505 6.26883 7.6013 6.13349 7.51296 6.06658C7.35621 5.94785 7.25899 5.74781 7.11951 5.61051C7.05202 5.54407 6.97654 5.45965 6.93732 5.37349C6.91126 5.31627 6.86577 5.261 6.82974 5.20966C6.80464 5.17391 6.80575 5.11643 6.77712 5.08389C6.65528 4.94538 6.56341 4.79728 6.3847 4.73034C6.28804 4.69414 6.14684 4.72677 6.04341 4.73283C5.8837 4.74219 5.8011 4.76035 5.66179 4.81774C5.51275 4.87914 5.23155 4.98472 5.16706 5.15573C5.0951 5.34656 4.96133 5.53107 4.92871 5.73264C4.92199 5.77415 4.87586 5.80475 4.87035 5.8499C4.86516 5.89238 4.87444 5.9405 4.87697 5.98337C4.8816 6.06191 4.88624 6.14045 4.89087 6.21899C4.9002 6.37712 5.061 6.42176 5.06968 6.56879" stroke="#FA0E0E" stroke-width="0.5" stroke-linecap="round"/>
<path d="M5.36285 6.39705C5.57809 6.53456 5.95059 6.62522 6.14097 6.79387C6.22217 6.86581 6.31535 7.05063 6.44024 7.05064C6.66997 7.05064 7.29176 6.90428 6.91336 7.24412C6.86706 7.2857 6.72859 7.27265 6.72859 7.27265C6.72859 7.27265 6.8986 7.27872 6.9295 7.21663C6.99535 7.08431 7.25807 6.86246 7.38285 6.77419C7.53457 6.66685 7.19568 7.48418 6.94615 7.49881C6.61793 7.51804 6.44622 7.31434 6.29867 7.05893C6.09133 6.70003 5.636 6.51941 5.44614 6.15326C5.37546 6.01695 4.88161 5.44292 5.30198 5.36535C5.47529 5.33337 6.05675 5.1838 6.16157 5.03625C6.30345 4.83651 6.38827 5.70204 6.4473 5.81587C6.60083 6.11196 6.92553 6.24223 7.0867 6.49512C7.12854 6.56077 7.37244 6.74979 7.37244 6.59783C7.37245 6.43324 7.18749 6.32905 7.10778 6.17534C6.95244 5.87576 6.42465 5.68492 6.09128 5.80134C5.76669 5.91469 6.53838 6.47058 6.60863 6.51871C6.68167 6.56876 7.08358 6.53196 7.02788 6.47645C6.90701 6.35598 6.73701 6.25722 6.58808 6.1704C6.3278 6.01868 5.9968 5.7628 5.79149 5.53575C5.69354 5.42744 5.33866 5.43964 5.49195 5.57543C5.62472 5.69305 5.69295 5.61458 5.80788 5.81352" stroke="#FA0E0E" stroke-width="0.5" stroke-linecap="round"/>
<path d="M28.544 24.1365C28.4103 24.0004 28.26 23.871 28.0975 23.7752C27.9278 23.6751 27.7328 23.5838 27.5717 23.4667C27.5013 23.4155 27.4122 23.4128 27.3489 23.364C27.2678 23.3013 27.1815 23.2821 27.0897 23.2433C26.9404 23.1801 26.7561 23.1169 26.5875 23.1382C26.3757 23.1651 26.2938 23.318 26.1358 23.4397C26.0607 23.4976 26.0032 23.5829 25.9228 23.6417C25.8516 23.6939 25.8191 23.8227 25.7625 23.9C25.6779 24.0156 25.6637 24.1967 25.7058 24.3364C25.7306 24.4187 25.8082 24.5323 25.8732 24.5884C25.9559 24.6599 26.0088 24.792 26.1014 24.8528C26.2659 24.9607 26.3765 25.1537 26.525 25.2812C26.5968 25.343 26.6779 25.4221 26.7229 25.5054C26.7527 25.5608 26.8019 25.6128 26.8413 25.6616C26.8688 25.6956 26.8716 25.753 26.9024 25.7835C27.0334 25.9135 27.1351 26.0551 27.3179 26.1098C27.4168 26.1394 27.5555 26.0973 27.6583 26.0843C27.817 26.0641 27.8982 26.0404 28.0332 25.9738C28.1778 25.9025 28.4511 25.7782 28.5039 25.6032C28.5627 25.4079 28.6836 25.2148 28.7025 25.0115C28.7063 24.9696 28.7503 24.936 28.7527 24.8906C28.755 24.8478 28.7425 24.8005 28.737 24.7579C28.7271 24.6798 28.7171 24.6018 28.7071 24.5237C28.6871 24.3666 28.5236 24.3329 28.505 24.1868" stroke="#FA0E0E" stroke-width="0.5" stroke-linecap="round"/>
<path d="M28.2241 24.3779C28 24.2553 27.6222 24.19 27.4208 24.0346C27.3349 23.9683 27.2294 23.7902 27.1048 23.7986C26.8756 23.8141 26.2652 24.0021 26.6196 23.6375C26.663 23.5929 26.802 23.5965 26.802 23.5965C26.802 23.5965 26.632 23.602 26.6054 23.666C26.5487 23.8025 26.3016 24.0415 26.1831 24.138C26.039 24.2554 26.3216 23.417 26.5696 23.3856C26.8957 23.3442 27.0809 23.5359 27.2455 23.7807C27.4767 24.1248 27.9433 24.2743 28.1576 24.6268C28.2374 24.758 28.7691 25.2974 28.355 25.4032C28.1842 25.4468 27.6143 25.6352 27.5197 25.7895C27.3917 25.9984 27.2483 25.1406 27.1817 25.031C27.0084 24.7459 26.6755 24.6379 26.4976 24.3965C26.4514 24.3338 26.1952 24.1617 26.2055 24.3133C26.2167 24.4775 26.4083 24.569 26.4983 24.7169C26.6736 25.0053 27.2132 25.1601 27.5378 25.0215C27.854 24.8865 27.0463 24.3839 26.9729 24.3406C26.8967 24.2957 26.4982 24.3595 26.5575 24.4111C26.6863 24.5232 26.8626 24.6102 27.0171 24.6868C27.2871 24.8206 27.6347 25.0535 27.855 25.2662C27.9601 25.3676 28.3133 25.3315 28.1512 25.2064C28.0107 25.098 27.948 25.1809 27.8198 24.9902" stroke="#FA0E0E" stroke-width="0.5" stroke-linecap="round"/>
<path d="M30.5565 13.4636C30.3662 13.4822 30.1709 13.5179 29.9941 13.5841C29.8095 13.6531 29.616 13.7474 29.4235 13.7991C29.3393 13.8217 29.2813 13.8893 29.2035 13.9078C29.1037 13.9316 29.0346 13.9865 28.9467 14.0335C28.8037 14.1099 28.6388 14.2134 28.5499 14.3578C28.4382 14.5391 28.5064 14.6986 28.5027 14.8975C28.5009 14.9921 28.5315 15.0902 28.5272 15.1895C28.5233 15.2775 28.6037 15.3834 28.6287 15.4758C28.6661 15.614 28.7989 15.7385 28.9345 15.7933C29.0144 15.8256 29.1519 15.8365 29.2364 15.8212C29.3442 15.8018 29.4806 15.8435 29.5862 15.8096C29.7736 15.7494 29.9939 15.7845 30.1867 15.7491C30.28 15.7319 30.3926 15.7186 30.486 15.7358C30.548 15.7473 30.6195 15.7418 30.6823 15.7417C30.7261 15.7416 30.7728 15.7754 30.8159 15.7707C30.9997 15.7504 31.1741 15.7601 31.3315 15.6523C31.4166 15.5941 31.4705 15.46 31.5247 15.372C31.6084 15.2361 31.6408 15.1582 31.6733 15.0115C31.7081 14.8546 31.7821 14.5644 31.6783 14.4138C31.5625 14.2458 31.4872 14.0309 31.3401 13.8888C31.3097 13.8596 31.311 13.8044 31.277 13.774C31.245 13.7455 31.2001 13.7255 31.1634 13.7031C31.0961 13.6619 31.0288 13.6207 30.9615 13.5796C30.8261 13.4967 30.6973 13.6025 30.5713 13.5255" stroke="#FA0E0E" stroke-width="0.5" stroke-linecap="round"/>
<path d="M30.5448 13.8634C30.3085 13.9606 30.0207 14.2131 29.773 14.2722C29.6673 14.2974 29.4619 14.2677 29.3904 14.3698C29.2589 14.5575 29.0235 15.1494 28.9604 14.6457C28.9527 14.5841 29.0427 14.4784 29.0427 14.4784C29.0427 14.4784 28.9404 14.6138 28.9738 14.6746C29.045 14.8042 29.0772 15.1458 29.0784 15.2983C29.0799 15.4837 28.6013 14.739 28.7321 14.5267C28.9041 14.2475 29.17 14.2238 29.4646 14.2494C29.8786 14.2853 30.2878 14.0166 30.6978 14.071C30.8504 14.0913 31.6054 14.0162 31.4286 14.4042C31.3557 14.5641 31.146 15.1249 31.2074 15.295C31.2906 15.5252 30.5298 15.0992 30.4024 15.0823C30.0709 15.0383 29.7778 15.2291 29.4775 15.216C29.3995 15.2126 29.1044 15.3038 29.2295 15.3908C29.3649 15.485 29.5565 15.3934 29.7286 15.4163C30.064 15.4608 30.5231 15.1387 30.6181 14.7997C30.7106 14.4695 29.8115 14.782 29.7317 14.8118C29.6487 14.8429 29.449 15.1924 29.5265 15.1787C29.6948 15.1488 29.8734 15.0664 30.0301 14.9944C30.3039 14.8685 30.7039 14.7445 31.0082 14.7067C31.1534 14.6886 31.3465 14.3916 31.147 14.4392C30.9742 14.4803 30.9997 14.581 30.7703 14.5611" stroke="#FA0E0E" stroke-width="0.5" stroke-linecap="round"/>
<path d="M14.9664 1.48103C14.9581 1.6714 14.9662 1.86912 15.007 2.05286C15.0497 2.24467 15.1161 2.44892 15.1404 2.64615C15.151 2.73237 15.21 2.79907 15.2175 2.87841C15.2271 2.98028 15.2719 3.05615 15.3062 3.14948C15.362 3.30131 15.4417 3.47858 15.5726 3.58663C15.7371 3.72235 15.905 3.67741 16.1021 3.70911C16.1958 3.72417 16.2977 3.70773 16.3957 3.72596C16.4826 3.74215 16.5991 3.67772 16.6944 3.66606C16.837 3.64859 16.9793 3.53508 17.0528 3.40897C17.0962 3.33469 17.1263 3.20059 17.123 3.11503C17.1188 3.00595 17.1795 2.87723 17.1606 2.76826C17.1272 2.57489 17.193 2.3625 17.1849 2.16729C17.181 2.07283 17.1836 1.95979 17.2139 1.87011C17.234 1.81056 17.2385 1.73922 17.2473 1.67718C17.2534 1.63398 17.2936 1.59269 17.2949 1.54944C17.3006 1.36532 17.3347 1.19456 17.2498 1.02415C17.2039 0.931987 17.0783 0.859881 16.9985 0.794021C16.8753 0.692327 16.8024 0.649476 16.6613 0.596772C16.5102 0.540389 16.2323 0.426502 16.0681 0.50775C15.8849 0.598415 15.6608 0.642458 15.499 0.76771C15.4657 0.793502 15.411 0.784536 15.3761 0.813813C15.3432 0.84136 15.3171 0.882855 15.2896 0.91593C15.2393 0.976524 15.1889 1.03712 15.1386 1.09771C15.0372 1.21971 15.1242 1.36165 15.03 1.47508" stroke="#FA0E0E" stroke-width="0.5" stroke-linecap="round"/>
<path d="M15.3614 1.5492C15.4247 1.79587 15.6349 2.11509 15.6587 2.36764C15.6688 2.47536 15.6105 2.67375 15.7018 2.75855C15.8696 2.91455 16.4241 3.22979 15.9152 3.22126C15.8529 3.22021 15.7607 3.11664 15.7607 3.11664C15.7607 3.11664 15.8807 3.23652 15.9458 3.21212C16.0844 3.16011 16.4281 3.17635 16.5796 3.19655C16.7639 3.22112 15.9573 3.58844 15.765 3.42969C15.512 3.22088 15.5258 2.95537 15.5926 2.66848C15.6866 2.26533 15.4774 1.82412 15.589 1.42755C15.6306 1.27991 15.6623 0.524961 16.0225 0.753709C16.171 0.84802 16.6982 1.13353 16.8757 1.09685C17.116 1.04719 16.5861 1.73747 16.5514 1.86075C16.4611 2.18144 16.6093 2.49716 16.5541 2.79146C16.5398 2.86786 16.5887 3.17165 16.6927 3.06057C16.8052 2.94026 16.7413 2.7385 16.7882 2.57203C16.8795 2.24755 16.6244 1.74966 16.3011 1.60838C15.9864 1.47082 16.1702 2.40118 16.1886 2.48407C16.2077 2.57025 16.5266 2.81627 16.5239 2.73787C16.5179 2.56773 16.4612 2.3801 16.4118 2.21551C16.3253 1.92787 16.2585 1.51605 16.2637 1.21067C16.2662 1.06498 15.9985 0.832924 16.0177 1.03627C16.0343 1.21241 16.1378 1.20138 16.0857 1.42484" stroke="#FA0E0E" stroke-width="0.5" stroke-linecap="round"/>
<path d="M3.14799 22.9659C3.32852 22.9031 3.50987 22.8226 3.66603 22.7167C3.82906 22.6063 3.99488 22.4692 4.16973 22.3737C4.24617 22.3319 4.28652 22.2527 4.35771 22.2164C4.44912 22.1698 4.50325 22.1002 4.57756 22.0339C4.69845 21.926 4.83421 21.7867 4.88649 21.6255C4.95215 21.423 4.84809 21.2841 4.80469 21.0899C4.78406 20.9976 4.73104 20.9094 4.71178 20.8119C4.69468 20.7254 4.59151 20.6414 4.54538 20.5575C4.47633 20.432 4.31785 20.3422 4.17307 20.3208C4.08779 20.3082 3.95163 20.3299 3.87309 20.3646C3.77295 20.4089 3.63053 20.4004 3.53591 20.4581C3.36802 20.5606 3.14569 20.5783 2.9667 20.658C2.88008 20.6966 2.77376 20.736 2.67896 20.7412C2.616 20.7446 2.54781 20.7668 2.48674 20.7817C2.44421 20.792 2.39086 20.7701 2.35005 20.7849C2.17632 20.8478 2.0045 20.8793 1.87706 21.021C1.80814 21.0976 1.78741 21.2406 1.75555 21.3389C1.70635 21.4906 1.69336 21.5739 1.69647 21.7241C1.6998 21.8847 1.69649 22.1842 1.83299 22.3061C1.98531 22.4422 2.1093 22.6334 2.28594 22.7368C2.32231 22.7581 2.33419 22.8121 2.37441 22.8336C2.41225 22.8538 2.4606 22.8626 2.50161 22.8758C2.57673 22.9 2.65185 22.9242 2.72697 22.9484C2.87822 22.9972 2.97831 22.864 3.11894 22.9093" stroke="#FA0E0E" stroke-width="0.5" stroke-linecap="round"/>
<path d="M3.0647 22.5747C3.27138 22.4247 3.49132 22.1117 3.7181 21.9961C3.81482 21.9468 4.02146 21.9273 4.06678 21.8113C4.15014 21.598 4.23891 20.9675 4.41937 21.4422C4.44145 21.5003 4.379 21.6241 4.379 21.6241C4.379 21.6241 4.44636 21.4685 4.39952 21.4172C4.29969 21.3081 4.18758 20.9836 4.15032 20.8357C4.10501 20.6558 4.74628 21.2671 4.66941 21.5042C4.5683 21.8159 4.31552 21.9015 4.02317 21.9458C3.61233 22.0081 3.27823 22.3655 2.86697 22.4089C2.71387 22.4251 1.99792 22.6754 2.07792 22.2569C2.11091 22.0843 2.18205 21.4901 2.08211 21.3392C1.94683 21.135 2.78691 21.3703 2.91477 21.3567C3.24734 21.3216 3.48697 21.0673 3.78192 21.0094C3.85849 20.9944 4.12373 20.8365 3.98164 20.7814C3.82774 20.7216 3.6632 20.8556 3.49056 20.8738C3.15407 20.9094 2.78411 21.3303 2.772 21.6821C2.7602 22.0247 3.56 21.5097 3.6305 21.462C3.7038 21.4123 3.81523 21.0257 3.74311 21.0573C3.58661 21.1258 3.43258 21.2479 3.29736 21.3547C3.06105 21.5413 2.70168 21.7558 2.41488 21.8641C2.27806 21.9158 2.1607 22.2498 2.34329 22.1567C2.50145 22.0761 2.45284 21.9842 2.68056 21.9497" stroke="#FA0E0E" stroke-width="0.5" stroke-linecap="round"/>
<path d="M9.58391 29.6448C9.70447 29.4969 9.81635 29.3334 9.8935 29.1616C9.97404 28.9823 10.0429 28.7789 10.1414 28.6061C10.1845 28.5306 10.1771 28.442 10.2185 28.3738C10.2718 28.2864 10.2812 28.1988 10.3095 28.1035C10.3556 27.9485 10.3977 27.7588 10.3572 27.5943C10.3064 27.3876 10.1447 27.3238 10.0054 27.1813C9.93923 27.1135 9.84764 27.0662 9.7799 26.9933C9.71977 26.9286 9.58769 26.9111 9.50424 26.8639C9.37933 26.7932 9.19717 26.7997 9.06266 26.8572C8.98343 26.8911 8.879 26.9809 8.83044 27.0515C8.76853 27.1415 8.64285 27.2088 8.59275 27.3075C8.50386 27.4826 8.32397 27.614 8.21364 27.7755C8.16025 27.8536 8.09055 27.9428 8.01259 27.9968C7.96081 28.0327 7.91447 28.0873 7.87031 28.1319C7.83956 28.1629 7.78262 28.1722 7.75568 28.2061C7.64096 28.3506 7.51136 28.4673 7.47756 28.6546C7.45927 28.7559 7.51695 28.8884 7.5416 28.9887C7.57966 29.1435 7.61249 29.2212 7.69428 29.3474C7.78177 29.4824 7.93672 29.739 8.11714 29.7714C8.31847 29.8075 8.52472 29.9053 8.72955 29.9009C8.77173 29.9 8.81025 29.9397 8.85581 29.9369C8.89868 29.9344 8.94449 29.9166 8.98634 29.9064C9.06302 29.8876 9.1397 29.8689 9.21638 29.8502C9.37077 29.8125 9.38581 29.6468 9.52936 29.6118" stroke="#FA0E0E" stroke-width="0.5" stroke-linecap="round"/>
<path d="M9.307 29.3554C9.40387 29.1196 9.42613 28.7381 9.55822 28.521C9.61457 28.4285 9.78017 28.3038 9.75763 28.1813C9.71618 27.9562 9.45951 27.3731 9.86321 27.6827C9.91261 27.7205 9.92471 27.8586 9.92471 27.8586C9.92471 27.8586 9.90002 27.6909 9.83317 27.6718C9.69068 27.6311 9.42432 27.4137 9.31467 27.3073C9.18135 27.1779 10.0492 27.3626 10.1087 27.6046C10.1869 27.9228 10.0168 28.1279 9.79137 28.3186C9.47456 28.5866 9.37848 29.0655 9.05136 29.3177C8.92959 29.4116 8.45216 29.9993 8.29974 29.6012C8.2369 29.4371 7.98434 28.8941 7.8198 28.818C7.59706 28.715 8.43599 28.4757 8.53769 28.3973C8.80221 28.1933 8.87218 27.8515 9.09269 27.6479C9.14994 27.5951 9.29247 27.3219 9.14249 27.3493C8.98005 27.379 8.9106 27.5791 8.77328 27.685C8.50563 27.8913 8.41254 28.4431 8.58759 28.7489C8.75804 29.0466 9.16742 28.1898 9.20225 28.1123C9.23846 28.0317 9.12961 27.6443 9.08487 27.709C8.98779 27.8492 8.921 28.0336 8.86219 28.1953C8.75942 28.4778 8.56661 28.8484 8.37958 29.0906C8.29035 29.2062 8.36644 29.5519 8.47279 29.3771C8.56492 29.2257 8.47516 29.173 8.65076 29.0245" stroke="#FA0E0E" stroke-width="0.5" stroke-linecap="round"/>
<path d="M17.4393 30.5443C17.4521 30.3542 17.4486 30.1563 17.4121 29.9717C17.3739 29.779 17.3122 29.5732 17.2925 29.3755C17.2839 29.2891 17.2265 29.221 17.2208 29.1415C17.2136 29.0395 17.1705 28.9626 17.1384 28.8685C17.0862 28.7154 17.0106 28.5363 16.8822 28.4253C16.721 28.2858 16.552 28.3269 16.3557 28.2906C16.2624 28.2734 16.1602 28.2875 16.0627 28.267C15.9761 28.2488 15.8581 28.3105 15.7626 28.32C15.6197 28.3342 15.4748 28.4444 15.3983 28.5688C15.3532 28.642 15.32 28.7754 15.3213 28.861C15.323 28.9701 15.2594 29.0974 15.2756 29.2068C15.3045 29.4009 15.2339 29.6117 15.2374 29.8071C15.2391 29.9016 15.2339 30.0145 15.2015 30.1035C15.1801 30.1626 15.1739 30.2338 15.1636 30.2956C15.1565 30.3386 15.1154 30.379 15.1131 30.4222C15.1032 30.6061 15.065 30.7761 15.146 30.9484C15.1897 31.0416 15.3136 31.1166 15.3919 31.1843C15.5127 31.2888 15.5845 31.3333 15.7244 31.3892C15.8741 31.4491 16.1493 31.5694 16.3153 31.4919C16.5006 31.4055 16.7257 31.3666 16.8903 31.2452C16.9242 31.2201 16.9787 31.2304 17.0143 31.2019C17.0478 31.1751 17.0749 31.1342 17.1031 31.1018C17.1549 31.0424 17.2066 30.983 17.2584 30.9236C17.3626 30.8039 17.2788 30.66 17.3757 30.5488" stroke="#FA0E0E" stroke-width="0.5" stroke-linecap="round"/>
<path d="M17.0462 30.467C16.9887 30.219 16.7859 29.895 16.768 29.6419C16.7604 29.534 16.8233 29.337 16.734 29.2501C16.5698 29.0903 16.0228 28.7623 16.5314 28.7826C16.5936 28.7851 16.6834 28.8908 16.6834 28.8908C16.6834 28.8908 16.5662 28.7682 16.5006 28.7911C16.3608 28.8398 16.0176 28.8157 15.8665 28.792C15.6828 28.7632 16.4978 28.4146 16.6864 28.5777C16.9345 28.7923 16.9145 29.0574 16.841 29.3427C16.7377 29.7436 16.9367 30.1895 16.8158 30.5834C16.7709 30.73 16.7217 31.484 16.3668 31.247C16.2205 31.1493 15.7001 30.8517 15.5218 30.8843C15.2804 30.9284 15.8262 30.2505 15.8638 30.1281C15.9615 29.8095 15.8207 29.4905 15.8827 29.1975C15.8988 29.1215 15.8569 28.8167 15.7504 28.9253C15.6351 29.043 15.6943 29.2462 15.6435 29.4115C15.5447 29.7338 15.7882 30.2374 16.1081 30.3861C16.4195 30.5309 16.2574 29.5966 16.2409 29.5133C16.2238 29.4267 15.9107 29.1734 15.9116 29.2518C15.9136 29.422 15.9659 29.6109 16.0116 29.7766C16.0913 30.0662 16.1486 30.4794 16.1363 30.7846C16.1304 30.9302 16.3927 31.1684 16.3782 30.9646C16.3657 30.7882 16.262 30.7968 16.3192 30.5746" stroke="#FA0E0E" stroke-width="0.5" stroke-linecap="round"/>
<path d="M17.9973 9.40126C17.8914 9.52792 17.8378 9.56804 17.8547 9.72573C17.8646 9.81823 17.8577 9.89096 17.8292 9.97883C17.7668 10.1717 17.9232 10.2746 18.0091 10.4016C18.0818 10.5089 18.222 10.6356 18.3652 10.6288C18.3892 10.6277 18.5388 10.7224 18.5694 10.7413C18.5944 10.7568 18.6375 10.7965 18.6661 10.8014C18.7016 10.8076 18.7588 10.7763 18.7904 10.7964C19.0089 10.9355 19.5212 10.8597 19.6248 10.5833C19.7456 10.2609 20.1007 10.1235 20.1024 9.73718C20.1027 9.6799 20.1561 9.58212 20.1685 9.51085C20.1791 9.44999 20.2245 9.35849 20.2634 9.30765C20.3696 9.16848 20.3957 8.97985 20.5017 8.8339C20.6604 8.61539 20.8273 8.31008 20.9213 8.05939C20.9825 7.89604 21.0791 7.75466 21.1692 7.61408C21.2576 7.47617 21.2466 7.32542 21.2985 7.16501C21.3362 7.04841 21.2773 6.72974 21.2237 6.6198C21.1648 6.49885 21.0146 6.32459 20.897 6.25194C20.6152 6.07794 20.4231 5.86132 20.0825 5.82301C19.9932 5.81297 19.8945 5.84636 19.8047 5.85091C19.7252 5.85493 19.6571 5.80768 19.5792 5.81595C19.4056 5.83441 19.248 5.88063 19.0855 5.8979C18.7154 5.93724 18.5291 6.13961 18.3124 6.40723C18.1986 6.54768 18.1357 6.72076 18.1154 6.89949C18.1062 6.98135 18.1053 7.09632 18.1135 7.173C18.1245 7.27534 18.0755 7.36995 18.0869 7.47695C18.1243 7.82611 18.1058 8.20566 18.1423 8.54629C18.1536 8.65181 18.1377 8.75242 18.1458 8.85523C18.1552 8.97577 18.1238 9.06505 18.1232 9.18166C18.123 9.24517 18.1255 9.37455 18.0953 9.42684C18.0606 9.48683 18.0253 9.66299 18.0332 9.73621C18.0429 9.82704 18.0226 9.91373 18.0329 10.0095C18.0368 10.0462 18.061 10.2729 18.049 10.16C18.0277 9.961 18.0064 9.76197 17.9851 9.56294C17.9724 9.44457 18.0372 9.33482 18.0371 9.22028C18.0369 9.13075 18.0369 8.92887 18.0712 8.84843C18.1053 8.76803 18.0666 8.34565 18.0343 8.36629" stroke="#FC5C5C" stroke-opacity="0.97" stroke-width="0.65154" stroke-linecap="round"/>
<path d="M18.8802 6.69326C18.767 7.43273 18.5978 8.16081 18.6778 8.90816C18.6877 8.99984 18.6866 9.1103 18.6762 9.20207C18.6675 9.27886 18.6821 9.38363 18.658 9.45601C18.613 9.59107 18.6803 9.81075 18.6953 9.95086C18.7053 10.0442 18.7172 10.0725 18.772 10.1461C18.7943 10.1761 18.8367 10.1647 18.8219 10.1564C18.7627 10.1231 18.6526 10.1186 18.586 10.1033C18.5076 10.0852 18.3142 10.0794 18.2501 10.0277C18.2183 10.0021 18.1019 9.91165 18.197 9.98818C18.3377 10.1014 18.5798 10.2603 18.775 10.2396C19.3352 10.18 19.5202 9.66328 19.7481 9.22889" stroke="#FC5C5C" stroke-opacity="0.97" stroke-width="0.65154" stroke-linecap="round"/>
<path d="M20.9441 6.91187C20.8404 7.17876 20.7051 7.4303 20.6045 7.69879C20.5397 7.87173 20.403 8.0846 20.3736 8.26213C20.3348 8.49626 20.2138 8.70635 20.158 8.9368C20.1171 9.10606 20.0649 9.28495 19.9575 9.42565C19.8251 9.599 19.5879 9.71093 19.3632 9.7391C19.0634 9.77668 18.8074 9.81464 18.8348 9.43028C18.8705 8.9307 19.163 8.44132 19.3814 8.00262C19.5147 7.73473 19.6246 7.41996 19.8046 7.18248C19.9017 7.05433 19.9364 6.8641 20.0333 6.74452C20.1357 6.61806 20.1219 6.83386 20.1279 6.91174C20.1576 7.30081 20.0865 7.76986 19.9647 8.14049C19.8997 8.33799 19.8144 8.51939 19.7385 8.71549C19.6644 8.90674 19.5271 9.02836 19.4482 9.21387C19.424 9.27084 19.345 9.43589 19.3556 9.37492C19.3703 9.29086 19.4777 9.1769 19.5142 9.09735C19.7373 8.61231 19.9839 8.1397 20.2148 7.65854C20.3466 7.38389 20.5868 7.09327 20.5534 6.78134C20.5369 6.62701 20.2055 6.56937 20.0856 6.54951C19.8825 6.51587 19.5321 6.5055 19.3408 6.5974C19.1842 6.67267 18.9749 6.69793 18.9969 6.90335C19.0085 7.01226 19.009 7.79767 19.1439 7.82104C19.2723 7.84326 19.2531 7.3153 19.2505 7.23616C19.2448 7.06138 19.239 6.83121 19.1672 6.66973C19.1307 6.58768 19.0468 6.53577 19.0122 6.46027" stroke="#FC5C5C" stroke-opacity="0.97" stroke-width="0.65154" stroke-linecap="round"/>
<path d="M13.4106 9.54095C13.4256 9.70512 13.4161 9.77128 13.5399 9.87091C13.6126 9.92935 13.6593 9.98566 13.7015 10.0678C13.7942 10.2482 13.9778 10.2108 14.1286 10.24C14.2562 10.2648 14.4452 10.2556 14.5417 10.1499C14.5579 10.1321 14.7308 10.0938 14.7659 10.0856C14.7945 10.0789 14.8532 10.0766 14.8769 10.0599C14.9064 10.0392 14.9246 9.97683 14.9612 9.96879C15.2144 9.91321 15.523 9.4986 15.4002 9.23017C15.2569 8.91704 15.4105 8.56967 15.1376 8.29525C15.0972 8.25457 15.0656 8.14778 15.0238 8.08863C14.9881 8.03811 14.9553 7.9414 14.9467 7.8781C14.9232 7.70479 14.8077 7.55306 14.7792 7.37515C14.7364 7.10879 14.6378 6.77524 14.5264 6.53177C14.4538 6.37312 14.4218 6.20506 14.3858 6.04215C14.3505 5.88234 14.2358 5.78349 14.1587 5.63348C14.1026 5.52444 13.8348 5.34062 13.719 5.3006C13.5915 5.25657 13.3617 5.23918 13.2269 5.27069C12.9042 5.34615 12.6147 5.32833 12.3466 5.54121C12.2764 5.597 12.2302 5.6902 12.17 5.75669C12.1166 5.81556 12.0349 5.83014 11.9857 5.89082C11.876 6.02622 11.7973 6.16998 11.6947 6.29666C11.4609 6.58522 11.4727 6.85961 11.5093 7.20161C11.5285 7.38108 11.6068 7.54782 11.7193 7.68848C11.7708 7.7529 11.8517 7.83482 11.9119 7.88326C11.9923 7.94792 12.0248 8.04935 12.1088 8.11695C12.3829 8.33753 12.6391 8.61898 12.9066 8.83418C12.9894 8.90085 13.0496 8.98314 13.1282 9.05019C13.2204 9.1288 13.2615 9.21409 13.3439 9.29692C13.3887 9.34203 13.4823 9.43173 13.498 9.49C13.5161 9.55686 13.6161 9.70631 13.6736 9.75257C13.7449 9.80995 13.7921 9.88554 13.8673 9.94608C13.896 9.96921 14.0741 10.1125 13.9854 10.0412C13.8292 9.91541 13.6729 9.78967 13.5166 9.66392C13.4237 9.58914 13.3917 9.46584 13.3103 9.38496C13.2467 9.32173 13.1035 9.17895 13.0706 9.09796C13.0378 9.01702 12.7107 8.74558 12.7025 8.78294" stroke="#FC5C5C" stroke-opacity="0.97" stroke-width="0.65154" stroke-linecap="round"/>
<path d="M12.1139 7.00368C12.5584 7.60641 12.9553 8.2405 13.5421 8.71266C13.6141 8.77058 13.6917 8.84947 13.7494 8.92169C13.7978 8.98212 13.8824 9.04591 13.9168 9.11407C13.9808 9.24127 14.1842 9.34925 14.2942 9.43777C14.3675 9.49674 14.396 9.5083 14.4869 9.52176C14.524 9.52725 14.5459 9.48934 14.5296 9.49388C14.464 9.51205 14.383 9.58645 14.325 9.62252C14.2568 9.66499 14.1159 9.79712 14.0339 9.80582C13.9932 9.81014 13.8467 9.82816 13.9683 9.81525C14.1481 9.79616 14.4321 9.738 14.5554 9.58577C14.9093 9.14894 14.6736 8.65314 14.5265 8.18537" stroke="#FC5C5C" stroke-opacity="0.97" stroke-width="0.65154" stroke-linecap="round"/>
<path d="M13.7285 5.7041C13.8445 5.96591 13.9273 6.2391 14.0466 6.49986C14.1235 6.66782 14.1778 6.91471 14.283 7.06098C14.4216 7.25388 14.4851 7.48769 14.6092 7.68997C14.7003 7.83855 14.7903 8.00178 14.8142 8.17699C14.8435 8.39286 14.7552 8.63918 14.6163 8.8174C14.4309 9.05519 14.2768 9.26241 14.0235 8.97128C13.6943 8.59287 13.554 8.04066 13.3972 7.57656C13.3014 7.29316 13.1558 6.99314 13.1146 6.69837C13.0924 6.53931 12.982 6.38034 12.9656 6.22753C12.9483 6.06593 13.0917 6.22822 13.1512 6.2791C13.4482 6.53332 13.7307 6.91512 13.9075 7.26307C14.0017 7.44849 14.07 7.63694 14.1554 7.82909C14.2388 8.0165 14.228 8.19927 14.3038 8.38603C14.3271 8.4434 14.3883 8.6158 14.3525 8.5652C14.3033 8.49543 14.2984 8.33915 14.2678 8.25713C14.0814 7.75695 13.9205 7.24894 13.7425 6.746C13.6408 6.45892 13.6045 6.08413 13.3596 5.88706C13.2384 5.78956 12.9632 5.98227 12.8643 6.05271C12.6968 6.17203 12.4416 6.41162 12.3716 6.61136C12.3142 6.77497 12.1841 6.9403 12.3454 7.07008C12.4309 7.13888 12.9884 7.694 13.1004 7.61544C13.207 7.54072 12.8188 7.1809 12.7609 7.12674C12.6328 7.00713 12.4655 6.84844 12.3001 6.78486C12.2161 6.75255 12.1199 6.77495 12.0419 6.74591" stroke="#FC5C5C" stroke-opacity="0.97" stroke-width="0.65154" stroke-linecap="round"/>
</svg>
