<svg width="33" height="32" viewBox="0 0 33 32" fill="none" xmlns="http://www.w3.org/2000/svg">
<path d="M27.8123 16.1876C27.8123 22.4346 22.7305 27.5002 16.46 27.5002C10.1894 27.5002 5.10764 22.4346 5.10764 16.1876C5.10764 9.94066 10.1894 4.87503 16.46 4.87503C22.7305 4.87503 27.8123 9.94066 27.8123 16.1876Z" fill="#83CD9C" stroke="white" stroke-width="0.5"/>
<ellipse cx="18.7805" cy="11.5626" rx="2.32047" ry="2.31252" fill="#FF0E0E"/>
<ellipse cx="22.2612" cy="15.0314" rx="1.16023" ry="1.15626" fill="#F11B1B"/>
<path d="M25.8222 4.73994C25.6698 4.855 25.5221 4.98727 25.4062 5.13582C25.2852 5.2909 25.1697 5.47215 25.0328 5.61661C24.9729 5.67977 24.959 5.76757 24.9024 5.82392C24.8298 5.89627 24.7998 5.97909 24.7496 6.06494C24.6678 6.2046 24.5816 6.37885 24.5816 6.54824C24.5816 6.76102 24.7235 6.86129 24.8247 7.03279C24.8729 7.11431 24.9505 7.18199 24.9989 7.26882C25.0419 7.34588 25.166 7.39422 25.2358 7.45989C25.3402 7.55819 25.5187 7.59501 25.6631 7.57103C25.7481 7.55691 25.871 7.4945 25.935 7.43741C26.0166 7.36462 26.1548 7.32904 26.227 7.24509C26.3551 7.09612 26.5612 7.01113 26.7069 6.88043C26.7774 6.81719 26.8664 6.74705 26.9551 6.71309C27.0139 6.69053 27.0719 6.64851 27.1255 6.61568C27.1628 6.59281 27.2203 6.59729 27.2545 6.57072C27.4005 6.45763 27.5542 6.37493 27.6317 6.20107C27.6737 6.10704 27.6493 5.96464 27.6493 5.86139C27.6493 5.70195 27.6359 5.61871 27.5866 5.47675C27.5339 5.32487 27.4446 5.03892 27.2771 4.96473C27.0902 4.88193 26.9132 4.73802 26.7132 4.69373C26.672 4.68461 26.6441 4.63693 26.5992 4.62879C26.5569 4.62113 26.5082 4.62754 26.4651 4.62754C26.3861 4.62754 26.3072 4.62754 26.2282 4.62754C26.0693 4.62754 26.0151 4.78489 25.8673 4.78489" stroke="#12FA0E" stroke-width="0.5" stroke-linecap="round"/>
<path d="M8.44411 11.3508C8.42701 12.0325 8.25828 11.6424 8.03701 11.9952C7.92322 12.1766 7.9053 12.2514 7.9053 12.4785C7.9053 12.8062 7.79754 13.2237 7.79754 13.6061C7.79754 13.952 7.85765 14.3457 7.60596 14.5965C7.4677 14.7343 7.25873 15.3412 7.25873 15.5391C7.25873 15.915 7.25873 16.2909 7.25873 16.6668C7.25873 17.0475 7.79754 17.166 7.79754 17.5259C7.79754 18.0335 7.5708 19.3464 7.92925 19.7036C8.13212 19.9058 8.37017 19.9844 8.55187 20.2107C8.78034 20.4953 8.67514 20.936 8.77338 21.2787C8.86273 21.5903 8.83345 21.9495 9.11463 22.1736C9.18658 22.231 9.47068 22.2827 9.56962 22.3108C9.7068 22.3499 9.7752 22.6167 9.95278 22.6271C10.7008 22.6709 10.8047 23.6372 11.2938 23.9158C11.6482 24.1176 11.8222 24.1306 12.2697 24.1306C12.7513 24.1306 12.9439 24.3302 13.3533 24.4468C13.6236 24.5237 13.9686 24.7767 14.1794 24.9658C14.4735 25.2296 14.9736 25.2045 15.3409 25.2045C15.7128 25.2045 15.9944 24.9897 16.3646 24.9897C16.7648 24.9897 17.0866 25.0243 17.4422 25.1031C18.3355 25.3009 18.8211 25.4416 19.6513 24.9062C19.9937 24.6854 20.0898 24.5601 20.5673 24.5601C20.9215 24.5601 21.3212 24.1311 21.5312 23.8621C21.8247 23.486 21.629 23.168 22.0461 22.8657C22.3143 22.6713 22.8008 22.843 23.0997 22.7106C23.9972 22.3131 23.8468 21.8738 24.0756 21.0758C24.1877 20.6848 24.242 20.5055 24.7162 20.4792C25.0068 20.4631 25.3627 19.7656 25.3627 19.5127C25.3627 19.0975 25.1443 17.4722 25.686 17.4722" stroke="#A09494" stroke-width="1.2" stroke-linecap="round"/>
<path d="M8.44411 11.2434C9.09348 11.0978 9.09068 10.9026 9.09068 10.3306C9.09068 10.0302 9.48535 9.83795 9.52173 9.63255C9.56464 9.3902 9.9123 9.11915 10.0605 8.93449C10.2076 8.75134 10.7547 8.93628 10.9705 8.87483C11.0896 8.84092 10.9898 8.63395 11.0843 8.55862C11.1649 8.49432 11.2654 8.40013 11.3297 8.31997C11.5116 8.09336 11.5927 7.83376 11.8925 7.67561C12.0752 7.57923 12.4044 7.26991 12.5929 7.26991C12.9162 7.26991 13.2395 7.26991 13.5628 7.26991C13.7546 7.26991 14.3053 7.36526 14.4548 7.24604C14.6566 7.08519 14.7007 6.70812 14.9697 6.63152C15.5287 6.47236 16.0021 6.41077 16.634 6.41077C17.3277 6.41077 17.6091 6.57834 18.0349 7.10882C18.3979 7.56103 19.0841 7.59209 19.6513 7.59209C20.3014 7.59209 20.7118 7.51694 21.1361 8.04552C21.2864 8.23275 21.2575 8.59404 21.5312 8.67198C21.7996 8.74839 22.0056 9.03823 22.2915 9.10155C23.0457 9.26857 23.4077 9.35667 23.7224 10.0621C23.8425 10.3316 23.6722 10.6896 23.7523 10.969C23.8428 11.2848 24.2016 11.5158 24.2911 11.8281C24.4427 12.3571 25.2289 12.3606 25.3567 12.8066C25.4773 13.2272 25.099 14.3376 25.3867 14.6561C25.5448 14.8312 26.0093 14.8738 26.0093 15.0559C26.0093 15.2435 26.1052 15.8493 25.9554 15.9687C25.7658 16.1199 25.9927 16.5506 25.8177 16.7443C25.6543 16.9252 25.5783 17.4499 25.5783 17.687" stroke="#A09494" stroke-width="1.2" stroke-linecap="round"/>
<ellipse cx="16.5467" cy="15.35" rx="7.04797" ry="7.25619" fill="#AACEA7"/>
<path d="M10.46 12.0748C10.447 12.6095 10.3189 12.3035 10.1509 12.5802C10.0645 12.7226 10.0509 12.7812 10.0509 12.9593C10.0509 13.2164 9.96907 13.544 9.96907 13.8439C9.96907 14.1153 10.0147 14.4241 9.8236 14.6208C9.71861 14.7289 9.55994 15.205 9.55994 15.3603C9.55994 15.6551 9.55994 15.95 9.55994 16.2449C9.55994 16.5435 9.96907 16.6365 9.96907 16.9188C9.96907 17.317 9.7969 18.3469 10.0691 18.6271C10.2231 18.7857 10.4039 18.8473 10.5419 19.0249C10.7153 19.2482 10.6355 19.5938 10.7101 19.8627C10.7779 20.1071 10.7557 20.3888 10.9692 20.5647C11.0238 20.6097 11.2395 20.6502 11.3147 20.6723C11.4188 20.703 11.4708 20.9122 11.6056 20.9204C12.1736 20.9548 12.2525 21.7128 12.6239 21.9313C12.893 22.0896 13.0251 22.0998 13.3649 22.0998C13.7306 22.0998 13.8768 22.2564 14.1877 22.3479C14.3929 22.4082 14.6549 22.6067 14.815 22.755C15.0383 22.962 15.418 22.9422 15.6969 22.9422C15.9793 22.9422 16.1931 22.7738 16.4743 22.7738C16.7781 22.7738 17.0225 22.8009 17.2925 22.8627C17.9709 23.0179 18.3395 23.1282 18.97 22.7082C19.2299 22.5351 19.3029 22.4368 19.6655 22.4368C19.9344 22.4368 20.238 22.1002 20.3974 21.8892C20.6203 21.5942 20.4716 21.3447 20.7883 21.1076C20.992 20.9551 21.3614 21.0898 21.5884 20.9859C22.2699 20.6741 22.1557 20.3295 22.3294 19.7035C22.4145 19.3968 22.4558 19.2561 22.8158 19.2355C23.0365 19.2229 23.3068 18.6757 23.3068 18.4773C23.3068 18.1516 23.1409 16.8767 23.5523 16.8767" stroke="#FFF8F8" stroke-linecap="round"/>
<path d="M10.46 11.9905C10.9531 11.8763 10.9509 11.7232 10.9509 11.2745C10.9509 11.0388 11.2506 10.888 11.2783 10.7269C11.3108 10.5368 11.5748 10.3242 11.6874 10.1793C11.799 10.0356 12.2145 10.1807 12.3784 10.1325C12.4688 10.1059 12.393 9.94354 12.4647 9.88445C12.526 9.83401 12.6023 9.76012 12.6511 9.69724C12.7893 9.51948 12.8508 9.31583 13.0784 9.19178C13.2172 9.11616 13.4671 8.87352 13.6103 8.87352C13.8558 8.87352 14.1013 8.87352 14.3467 8.87352C14.4924 8.87352 14.9105 8.94832 15.0241 8.8548C15.1773 8.72862 15.2108 8.43283 15.415 8.37274C15.8395 8.24788 16.1989 8.19957 16.6788 8.19957C17.2055 8.19957 17.4192 8.33102 17.7425 8.74715C18.0182 9.10189 18.5392 9.12625 18.9699 9.12625C19.4635 9.12625 19.7751 9.06731 20.0973 9.48195C20.2115 9.62882 20.1895 9.91223 20.3974 9.97337C20.6011 10.0333 20.7576 10.2607 20.9747 10.3103C21.5473 10.4414 21.8223 10.5105 22.0612 11.0639C22.1524 11.2753 22.0231 11.5561 22.0839 11.7753C22.1526 12.023 22.425 12.2042 22.493 12.4492C22.6082 12.8641 23.2051 12.8669 23.3022 13.2168C23.3938 13.5467 23.1065 14.4177 23.3249 14.6676C23.445 14.8049 23.7977 14.8384 23.7977 14.9812C23.7977 15.1284 23.8705 15.6036 23.7568 15.6973C23.6128 15.8158 23.7851 16.1537 23.6522 16.3057C23.5282 16.4476 23.4704 16.8592 23.4704 17.0452" stroke="#FFF8F8" stroke-linecap="round"/>
<path d="M22.426 12.8506C22.2614 12.834 22.198 12.8121 22.0763 12.9143C22.0049 12.9742 21.9405 13.0092 21.8515 13.0348C21.6562 13.0912 21.6581 13.278 21.6006 13.4199C21.5519 13.54 21.5249 13.7267 21.6107 13.8412C21.6251 13.8604 21.6299 14.0369 21.6313 14.0728C21.6325 14.1021 21.6236 14.1599 21.6355 14.1863C21.6502 14.2191 21.7082 14.2488 21.7092 14.2861C21.7157 14.5445 22.0653 14.9253 22.3531 14.8562C22.6889 14.7757 23.0018 14.9922 23.3241 14.7775C23.3719 14.7456 23.4831 14.7351 23.5493 14.7055C23.6059 14.6802 23.7074 14.6665 23.7714 14.6702C23.9466 14.6801 24.1181 14.5961 24.2988 14.602C24.5693 14.6109 24.9166 14.578 25.1777 14.5154C25.3478 14.4746 25.5194 14.4753 25.6868 14.4711C25.8509 14.467 25.9701 14.3736 26.1326 14.3267C26.2507 14.2927 26.4828 14.0657 26.5443 13.96C26.6119 13.8436 26.6728 13.6221 26.6674 13.4843C26.6546 13.1542 26.7273 12.8743 26.5686 12.5715C26.527 12.4922 26.444 12.4293 26.39 12.3576C26.3422 12.2942 26.3434 12.2115 26.293 12.1518C26.1805 12.0187 26.0539 11.9144 25.9486 11.7898C25.7089 11.5061 25.4364 11.4654 25.0925 11.4361C24.9121 11.4206 24.7329 11.4655 24.5729 11.5488C24.4996 11.5869 24.4035 11.6505 24.3443 11.7002C24.2653 11.7665 24.1593 11.7789 24.0767 11.8482C23.8071 12.0744 23.4811 12.2714 23.2182 12.4921C23.1367 12.5605 23.0442 12.6037 22.9632 12.6678C22.8682 12.743 22.7763 12.767 22.6791 12.8318C22.6261 12.8671 22.5199 12.9416 22.4595 12.9459C22.3902 12.9508 22.2239 13.0202 22.1674 13.0676C22.0973 13.1264 22.0139 13.1582 21.9399 13.2202C21.9116 13.2439 21.7366 13.3909 21.8237 13.3177C21.9774 13.1888 22.131 13.0599 22.2846 12.9309C22.376 12.8542 22.5035 12.8464 22.5987 12.7822C22.6731 12.732 22.841 12.6191 22.9271 12.6024C23.0131 12.5856 23.3428 12.3174 23.3075 12.3022" stroke="#A3FC5C" stroke-opacity="0.97" stroke-width="0.65154" stroke-linecap="round"/>
<path d="M25.1723 12.0653C24.4939 12.3854 23.7937 12.6529 23.2168 13.137C23.1461 13.1964 23.0536 13.2573 22.9714 13.3C22.9027 13.3358 22.8237 13.4065 22.75 13.4271C22.6126 13.4655 22.4674 13.6439 22.3593 13.7347C22.2872 13.7951 22.2704 13.8208 22.2398 13.9072C22.2274 13.9425 22.2605 13.9712 22.2592 13.9543C22.2538 13.8867 22.1959 13.7932 22.1714 13.7297C22.1426 13.6548 22.0393 13.4918 22.0463 13.4099C22.0498 13.3693 22.06 13.2225 22.0495 13.3439C22.0341 13.5235 22.0373 13.8124 22.1637 13.962C22.5266 14.3915 23.06 14.2553 23.5487 14.2005" stroke="#A3FC5C" stroke-opacity="0.97" stroke-width="0.65154" stroke-linecap="round"/>
<path d="M26.1449 13.8924C25.865 13.956 25.5801 13.985 25.3005 14.0521C25.1204 14.0953 24.8668 14.1014 24.7027 14.1764C24.4863 14.2753 24.2439 14.2929 24.021 14.3757C23.8573 14.4366 23.6793 14.4936 23.5022 14.4835C23.284 14.4711 23.0581 14.3378 22.909 14.1679C22.7101 13.9413 22.5353 13.7511 22.8704 13.5587C23.3058 13.3087 23.8765 13.2766 24.3635 13.2116C24.661 13.1719 24.9842 13.0866 25.2824 13.1024C25.4434 13.111 25.621 13.0332 25.7746 13.0464C25.9371 13.0602 25.7499 13.1696 25.6885 13.2181C25.3815 13.4603 24.9516 13.6639 24.5752 13.7706C24.3746 13.8274 24.1759 13.8584 23.9704 13.9053C23.7699 13.9512 23.5919 13.9058 23.3935 13.9444C23.3325 13.9562 23.1511 13.9833 23.2077 13.958C23.2858 13.923 23.4407 13.948 23.5273 13.9337C24.0555 13.8467 24.5866 13.786 25.1159 13.7076C25.4181 13.6628 25.7942 13.6987 26.035 13.4966C26.1541 13.3967 26.0167 13.0907 25.9661 12.9805C25.8805 12.7939 25.6931 12.4986 25.5097 12.3921C25.3594 12.3048 25.2214 12.146 25.0628 12.2791C24.9787 12.3496 24.3257 12.7894 24.3818 12.9139C24.4351 13.0324 24.8635 12.7211 24.9279 12.6748C25.0701 12.5723 25.2583 12.4388 25.3524 12.2891C25.4002 12.213 25.3965 12.1147 25.4399 12.0439" stroke="#A3FC5C" stroke-opacity="0.97" stroke-width="0.65154" stroke-linecap="round"/>
<path d="M10.5953 14.2803C10.6974 14.4101 10.7255 14.4708 10.8837 14.4875C10.9766 14.4972 11.0465 14.5193 11.1267 14.5654C11.3029 14.6668 11.4366 14.5359 11.5792 14.4789C11.6998 14.4307 11.8535 14.3207 11.8768 14.1797C11.8808 14.1561 12.0051 14.0303 12.03 14.0044C12.0504 13.9833 12.0984 13.9496 12.1093 13.9228C12.1227 13.8895 12.104 13.8272 12.1304 13.8006C12.3127 13.617 12.3458 13.1018 12.0964 12.9429C11.8054 12.7574 11.7451 12.3825 11.3664 12.2997C11.3103 12.2875 11.2256 12.2149 11.1583 12.1878C11.1008 12.1647 11.0205 12.1012 10.9788 12.0527C10.8645 11.9199 10.6849 11.8549 10.564 11.721C10.3829 11.5204 10.1184 11.2936 9.89215 11.1494C9.74473 11.0555 9.62628 10.9316 9.50726 10.8143C9.39051 10.6992 9.2403 10.6783 9.09381 10.594C8.98733 10.5327 8.66231 10.5233 8.54323 10.5523C8.41222 10.5843 8.20974 10.6941 8.11379 10.7934C7.88398 11.0314 7.63116 11.1731 7.52213 11.4969C7.49356 11.5818 7.5056 11.685 7.49122 11.7735C7.4785 11.8518 7.41785 11.9083 7.40965 11.9858C7.39134 12.1589 7.40361 12.3222 7.38648 12.4841C7.34745 12.8529 7.50692 13.077 7.724 13.3444C7.83793 13.4848 7.99454 13.5824 8.16564 13.6397C8.24401 13.6659 8.35663 13.6909 8.43358 13.699C8.53628 13.7099 8.61882 13.7775 8.7262 13.7888C9.07659 13.8257 9.44509 13.9235 9.78692 13.9595C9.89281 13.9706 9.9882 14.0072 10.0907 14.021C10.211 14.0371 10.292 14.0865 10.4063 14.1115C10.4685 14.1251 10.596 14.1498 10.641 14.1902C10.6925 14.2366 10.858 14.308 10.9314 14.3158C11.0226 14.3254 11.1034 14.3633 11.1995 14.3735C11.2363 14.3773 11.4639 14.4013 11.3506 14.3894C11.1508 14.3683 10.9511 14.3473 10.7514 14.3262C10.6326 14.3137 10.5385 14.2275 10.4261 14.2036C10.3382 14.1849 10.1402 14.1425 10.0684 14.0922C9.99672 14.042 9.57421 13.991 9.58768 14.0269" stroke="#A3FC5C" stroke-opacity="0.97" stroke-width="0.65154" stroke-linecap="round"/>
<path d="M8.12397 12.851C8.82568 13.1166 9.50448 13.4343 10.2545 13.5132C10.3465 13.5229 10.4546 13.5471 10.5425 13.5765C10.616 13.6011 10.7218 13.6088 10.7878 13.6475C10.9109 13.7197 11.1405 13.7003 11.2811 13.7151C11.3748 13.7249 11.405 13.7192 11.4887 13.6813C11.5228 13.6659 11.5206 13.6221 11.5093 13.6348C11.4642 13.6855 11.4367 13.7919 11.4077 13.8535C11.3735 13.9261 11.3272 14.1133 11.2631 14.165C11.2313 14.1906 11.1181 14.285 11.2131 14.2084C11.3537 14.0951 11.5605 13.8926 11.5811 13.698C11.6403 13.1396 11.1721 12.8509 10.7938 12.5377" stroke="#A3FC5C" stroke-opacity="0.97" stroke-width="0.65154" stroke-linecap="round"/>
<path d="M8.77172 10.886C9.01179 11.043 9.23018 11.2276 9.47248 11.382C9.62855 11.4814 9.80868 11.6594 9.97668 11.7253C10.1982 11.8122 10.379 11.9742 10.5933 12.0769C10.7508 12.1524 10.9154 12.2407 11.0308 12.3749C11.1731 12.5403 11.2332 12.795 11.2136 13.0198C11.1876 13.3198 11.1711 13.5772 10.7997 13.4698C10.3171 13.3302 9.89838 12.9424 9.51381 12.6376C9.27898 12.4514 8.99323 12.2783 8.79801 12.0531C8.69268 11.9315 8.51333 11.8578 8.41634 11.7383C8.31378 11.612 8.52261 11.6707 8.60026 11.6812C8.98822 11.7339 9.43347 11.9017 9.77151 12.0982C9.95165 12.2029 10.1117 12.3242 10.2881 12.4393C10.4602 12.5516 10.5507 12.7109 10.7162 12.8267C10.767 12.8622 10.9123 12.9739 10.8547 12.9507C10.7753 12.9188 10.6861 12.7902 10.6157 12.7379C10.1867 12.4188 9.77477 12.0792 9.35118 11.7533C9.10939 11.5672 8.87469 11.2722 8.56165 11.2392C8.40678 11.2229 8.28067 11.5337 8.23601 11.6464C8.16038 11.8372 8.07664 12.1765 8.12666 12.3821C8.16763 12.5506 8.14848 12.7598 8.35463 12.7815C8.46392 12.793 9.23457 12.9574 9.28582 12.8308C9.33457 12.7104 8.81256 12.6183 8.73438 12.6042C8.56171 12.5731 8.33468 12.5304 8.16118 12.5665C8.07302 12.5848 8.00448 12.6557 7.92315 12.6735" stroke="#A3FC5C" stroke-opacity="0.97" stroke-width="0.65154" stroke-linecap="round"/>
<path d="M14.9929 22.1223C15.1383 22.0436 15.203 22.026 15.2458 21.8733C15.2708 21.7837 15.3042 21.7186 15.3632 21.6474C15.4927 21.4912 15.3855 21.338 15.3527 21.1884C15.325 21.0619 15.2417 20.8925 15.1061 20.8461C15.0833 20.8383 14.9795 20.6952 14.9581 20.6664C14.9406 20.6428 14.9152 20.5901 14.8905 20.5749C14.8598 20.5562 14.795 20.5642 14.7731 20.5339C14.6216 20.3242 14.1174 20.206 13.9187 20.4247C13.687 20.6798 13.306 20.6768 13.1612 21.0352C13.1398 21.0883 13.0539 21.1595 13.0159 21.2212C12.9835 21.2738 12.9074 21.3421 12.8525 21.3751C12.7021 21.4653 12.608 21.631 12.4554 21.7276C12.2269 21.8722 11.9586 22.0945 11.7784 22.2928C11.661 22.4221 11.5188 22.5179 11.3829 22.6154C11.2497 22.711 11.204 22.8551 11.0963 22.9851C11.0181 23.0795 10.9547 23.3974 10.9637 23.5193C10.9736 23.6533 11.0486 23.8706 11.131 23.9814C11.3284 24.2468 11.4266 24.5188 11.7289 24.6798C11.8081 24.722 11.9123 24.7273 11.9974 24.7562C12.0728 24.7817 12.1186 24.8507 12.1939 24.8716C12.3621 24.9184 12.5258 24.9335 12.6831 24.9773C13.0416 25.0769 13.2897 24.9575 13.5904 24.7886C13.7482 24.6999 13.8708 24.5623 13.9558 24.4036C13.9948 24.331 14.0382 24.2244 14.059 24.1502C14.0868 24.051 14.1674 23.9811 14.1964 23.8775C14.2911 23.5393 14.4489 23.1934 14.5413 22.8634C14.5699 22.7612 14.6219 22.6735 14.6526 22.575C14.6885 22.4596 14.7508 22.3882 14.7945 22.28C14.8183 22.2211 14.8639 22.0999 14.9114 22.0624C14.9658 22.0195 15.0639 21.8687 15.0838 21.7978C15.1084 21.7098 15.1594 21.6368 15.1854 21.5439C15.1953 21.5085 15.2568 21.2888 15.2262 21.3982C15.1722 21.591 15.1182 21.7838 15.0643 21.9765C15.0322 22.0912 14.9312 22.1693 14.8889 22.2758C14.8559 22.3591 14.781 22.5467 14.7194 22.6088C14.6578 22.671 14.5372 23.0777 14.5749 23.0704" stroke="#A3FC5C" stroke-opacity="0.97" stroke-width="0.65154" stroke-linecap="round"/>
<path d="M13.1686 24.3136C13.548 23.6682 13.9751 23.0539 14.1777 22.3299C14.2026 22.2411 14.2446 22.1389 14.2882 22.0574C14.3248 21.9893 14.35 21.8865 14.3992 21.8281C14.4911 21.7192 14.51 21.4903 14.548 21.3546C14.5734 21.2641 14.5727 21.2335 14.5491 21.1449C14.5395 21.1088 14.4959 21.1037 14.5065 21.1169C14.5492 21.1697 14.6499 21.2144 14.7061 21.2532C14.7722 21.2988 14.9497 21.3754 14.9903 21.447C15.0103 21.4825 15.0849 21.6094 15.0249 21.5033C14.9361 21.3463 14.7701 21.1095 14.581 21.0569C14.0383 20.906 13.6748 21.3181 13.3021 21.6379" stroke="#A3FC5C" stroke-opacity="0.97" stroke-width="0.65154" stroke-linecap="round"/>
<path d="M11.3318 23.3508C11.5271 23.1409 11.746 22.957 11.939 22.7445C12.0634 22.6077 12.2693 22.4602 12.3625 22.3061C12.4853 22.1028 12.6756 21.9521 12.8128 21.7585C12.9137 21.6162 13.0284 21.4692 13.1804 21.378C13.3677 21.2657 13.6296 21.249 13.8489 21.3055C14.1414 21.3809 14.3933 21.4399 14.2254 21.787C14.0071 22.2381 13.5538 22.5852 13.1883 22.9125C12.9651 23.1123 12.7463 23.3644 12.491 23.5188C12.3533 23.6021 12.2505 23.7661 12.1162 23.8416C11.9741 23.9214 12.0669 23.7259 12.0902 23.6514C12.2068 23.2789 12.4468 22.8692 12.6974 22.5696C12.8309 22.41 12.9775 22.2729 13.1207 22.1186C13.2604 21.9681 13.4331 21.9056 13.5751 21.7623C13.6188 21.7183 13.7534 21.594 13.7209 21.6467C13.6761 21.7194 13.5341 21.7858 13.4706 21.8463C13.0835 22.2149 12.6792 22.5633 12.2863 22.9254C12.062 23.1321 11.7311 23.3137 11.6465 23.6159C11.6046 23.7654 11.8912 23.941 11.9952 24.0035C12.1715 24.1096 12.4933 24.2482 12.7051 24.2332C12.8786 24.2209 13.0824 24.2745 13.1381 24.0755C13.1677 23.97 13.4584 23.24 13.3416 23.1686C13.2306 23.1007 13.0528 23.5984 13.0258 23.6729C12.9663 23.8374 12.8864 24.0534 12.8933 24.2299C12.8968 24.3196 12.9555 24.3987 12.9596 24.4816" stroke="#A3FC5C" stroke-opacity="0.97" stroke-width="0.65154" stroke-linecap="round"/>
<ellipse cx="19.3597" cy="15.6095" rx="0.579285" ry="0.578129" fill="white"/>
<ellipse cx="17.6202" cy="13.8751" rx="1.16023" ry="1.15626" fill="white"/>
<path d="M22.8235 17.9571C22.7023 17.8449 22.665 17.7893 22.5061 17.7976C22.4129 17.8025 22.3404 17.7917 22.2539 17.7586C22.064 17.6861 21.9524 17.8362 21.8206 17.9148C21.7091 17.9813 21.5746 18.114 21.5736 18.2568C21.5735 18.2808 21.4705 18.4245 21.4499 18.454C21.433 18.478 21.391 18.5188 21.3845 18.547C21.3764 18.582 21.4047 18.6405 21.3828 18.6709C21.2316 18.8808 21.2799 19.3948 21.5512 19.5128C21.8677 19.6504 21.9862 20.0112 22.3732 20.0338C22.4306 20.0371 22.5257 20.0955 22.5964 20.1118C22.6568 20.1256 22.7461 20.1757 22.7949 20.2171C22.9286 20.3304 23.1162 20.3665 23.2567 20.4799C23.4671 20.6496 23.764 20.8322 24.0101 20.9392C24.1705 21.009 24.3069 21.1128 24.4429 21.21C24.5763 21.3054 24.728 21.3026 24.8859 21.3629C25.0007 21.4068 25.3232 21.3653 25.4362 21.318C25.5606 21.2659 25.7433 21.1258 25.8224 21.0127C26.012 20.7417 26.2394 20.5622 26.2962 20.2254C26.3111 20.1371 26.283 20.037 26.2833 19.9474C26.2835 19.8681 26.3345 19.8028 26.3305 19.7249C26.3213 19.5511 26.2835 19.3918 26.275 19.2292C26.2556 18.8588 26.0629 18.6625 25.8064 18.4323C25.6719 18.3115 25.5018 18.2396 25.3238 18.2098C25.2423 18.1961 25.1272 18.189 25.0499 18.1931C24.9468 18.1984 24.8546 18.1446 24.7468 18.1502C24.3949 18.1685 24.0156 18.1296 23.6723 18.1475C23.566 18.153 23.466 18.1319 23.3626 18.1343C23.2413 18.1372 23.1536 18.1011 23.0367 18.0943C22.9731 18.0905 22.8434 18.0861 22.7926 18.0532C22.7343 18.0155 22.5597 17.9708 22.486 17.9747C22.3944 17.9794 22.3087 17.9546 22.2121 17.9596C22.1752 17.9615 21.9467 17.9734 22.0604 17.9675C22.261 17.957 22.4616 17.9466 22.6622 17.9361C22.7815 17.9299 22.8879 18.0004 23.0027 18.0064C23.0924 18.0111 23.2947 18.022 23.3734 18.0604C23.4522 18.0988 23.8775 18.0831 23.8585 18.0498" stroke="#A3FC5C" stroke-opacity="0.97" stroke-width="0.65154" stroke-linecap="round"/>
<path d="M25.4892 18.982C24.7544 18.8294 24.034 18.6217 23.2809 18.661C23.1885 18.6658 23.0779 18.6587 22.9865 18.6434C22.91 18.6306 22.8042 18.6395 22.733 18.6117C22.6001 18.5596 22.3764 18.6147 22.2352 18.622C22.1411 18.6269 22.1121 18.6373 22.0354 18.6878C22.0042 18.7084 22.0132 18.7512 22.0224 18.7369C22.059 18.6798 22.0694 18.5705 22.0884 18.5051C22.1107 18.428 22.127 18.2359 22.1822 18.1748C22.2095 18.1446 22.3065 18.0336 22.2247 18.1242C22.1037 18.258 21.9313 18.4904 21.9416 18.6858C21.971 19.2464 22.4788 19.4585 22.9017 19.7087" stroke="#A3FC5C" stroke-opacity="0.97" stroke-width="0.65154" stroke-linecap="round"/>
<path d="M25.1587 21.024C24.8969 20.9064 24.6522 20.7582 24.3886 20.6436C24.2188 20.5698 24.0129 20.4222 23.8366 20.3833C23.6041 20.3321 23.4002 20.2004 23.1723 20.1324C23.0049 20.0825 22.8285 20.0209 22.6933 19.9064C22.5268 19.7653 22.4274 19.5232 22.4113 19.2981C22.3899 18.9978 22.3657 18.741 22.7493 18.789C23.2479 18.8514 23.7225 19.169 24.1502 19.41C24.4115 19.5571 24.7209 19.6835 24.9492 19.8754C25.0723 19.979 25.261 20.0238 25.3756 20.1266C25.4968 20.2354 25.2813 20.2101 25.203 20.2118C24.8115 20.2203 24.3454 20.1242 23.9806 19.983C23.7862 19.9077 23.6091 19.8129 23.4167 19.7268C23.2291 19.6428 23.1146 19.4996 22.933 19.4111C22.8772 19.3839 22.7161 19.2963 22.7766 19.3102C22.8601 19.3293 22.9685 19.4424 23.0462 19.4831C23.5201 19.7312 23.9804 20.0022 24.45 20.2579C24.7181 20.4039 24.9963 20.6586 25.3106 20.6423C25.4662 20.6342 25.5418 20.3075 25.5682 20.1893C25.6129 19.989 25.6422 19.6408 25.5604 19.4455C25.4935 19.2856 25.4795 19.076 25.2725 19.0867C25.1627 19.0925 24.3757 19.0505 24.345 19.1835C24.3158 19.31 24.8459 19.3194 24.9253 19.3211C25.1007 19.3249 25.3317 19.3316 25.4973 19.2688C25.5815 19.237 25.6381 19.1563 25.7156 19.1259" stroke="#A3FC5C" stroke-opacity="0.97" stroke-width="0.65154" stroke-linecap="round"/>
<path d="M26.0222 5.08669C25.8718 5.29275 25.7591 5.65801 25.579 5.83751C25.5022 5.91407 25.3116 5.99593 25.3043 6.12017C25.2908 6.34872 25.4009 6.9759 25.0827 6.5795C25.0437 6.531 25.0649 6.394 25.0649 6.394C25.0649 6.394 25.0489 6.56278 25.1093 6.59717C25.2379 6.67045 25.4447 6.94484 25.5258 7.07416C25.6245 7.2314 24.8256 6.84627 24.8256 6.59717C24.8256 6.26951 25.0398 6.11064 25.3043 5.97884C25.6759 5.79363 25.8836 5.35125 26.2615 5.18386C26.4022 5.12154 27.0062 4.66393 27.0592 5.08669C27.0811 5.26099 27.1968 5.84824 27.3384 5.96118C27.5302 6.11405 26.6582 6.14763 26.5407 6.19967C26.2351 6.33503 26.0856 6.65042 25.8228 6.79591C25.7546 6.83368 25.5509 7.06523 25.7031 7.07416C25.868 7.08382 25.9832 6.90593 26.1419 6.83566C26.4511 6.6987 26.6732 6.18483 26.5762 5.84634C26.4817 5.51677 25.8795 6.25185 25.8272 6.31892C25.7728 6.38865 25.7861 6.79065 25.8449 6.7385C25.9727 6.62531 26.0816 6.46199 26.1773 6.31892C26.3446 6.06889 26.6203 5.75461 26.8598 5.56368C26.9741 5.4726 26.9827 5.11883 26.8376 5.26336C26.712 5.38854 26.7866 5.46102 26.5806 5.56368" stroke="#12FA0E" stroke-width="0.5" stroke-linecap="round"/>
<path d="M1.64038 16.0447C1.83107 16.0586 2.02962 16.0565 2.21512 16.0213C2.40879 15.9845 2.61562 15.9244 2.81416 15.906C2.90095 15.898 2.96961 15.8413 3.04941 15.8362C3.15187 15.8296 3.2293 15.7872 3.32393 15.7558C3.47787 15.7048 3.65805 15.6307 3.77032 15.5035C3.91133 15.3437 3.87125 15.175 3.90891 14.9796C3.9268 14.8867 3.91334 14.7848 3.93455 14.6877C3.95336 14.6016 3.89221 14.4836 3.88334 14.3884C3.87007 14.2458 3.76045 14.1007 3.63615 14.0237C3.56293 13.9783 3.42933 13.9443 3.34342 13.945C3.23389 13.9459 3.10658 13.8817 2.99673 13.8972C2.80179 13.9248 2.59072 13.8529 2.39468 13.8552C2.29982 13.8562 2.18652 13.8503 2.09748 13.8175C2.03834 13.7957 1.96692 13.789 1.90496 13.7785C1.86181 13.7711 1.82159 13.7299 1.77825 13.7273C1.59374 13.7161 1.42349 13.677 1.25005 13.7565C1.15624 13.7995 1.08018 13.9225 1.01175 14C0.906091 14.1198 0.860944 14.191 0.803884 14.3301C0.74284 14.4789 0.620346 14.7523 0.696953 14.9183C0.78244 15.1035 0.81995 15.328 0.940764 15.4929C0.965643 15.5269 0.955024 15.5811 0.983349 15.6167C1.01 15.6503 1.05084 15.6776 1.0832 15.7059C1.14248 15.7579 1.20175 15.8099 1.26103 15.8618C1.38038 15.9664 1.52533 15.8839 1.6363 15.9812" stroke="#12FA0E" stroke-width="0.5" stroke-linecap="round"/>
<path d="M1.72006 15.6527C1.96954 15.597 2.29622 15.3969 2.55042 15.3807C2.65884 15.3737 2.85622 15.4377 2.94407 15.3493C3.10566 15.1866 3.43864 14.6432 3.41486 15.1502C3.41195 15.2123 3.30523 15.3012 3.30523 15.3012C3.30523 15.3012 3.42915 15.185 3.4066 15.1195C3.35855 14.9798 3.38512 14.6376 3.40993 14.4871C3.44009 14.3042 3.78466 15.1191 3.61957 15.3062C3.40242 15.5522 3.13635 15.5305 2.8504 15.4554C2.44857 15.3498 1.99947 15.5453 1.60477 15.4222C1.45783 15.3764 0.701038 15.3225 0.941402 14.9701C1.0405 14.8249 1.34283 14.3078 1.31132 14.1298C1.26866 13.8888 1.94564 14.4375 2.06835 14.4757C2.38752 14.5753 2.70883 14.4369 3.00257 14.5006C3.07883 14.5172 3.3852 14.4773 3.27682 14.3705C3.15943 14.2547 2.95502 14.3124 2.78933 14.2607C2.46639 14.16 1.95902 14.3997 1.80756 14.7177C1.66009 15.0274 2.59937 14.8718 2.68312 14.8558C2.77019 14.8393 3.02665 14.5287 2.94788 14.5291C2.77694 14.53 2.58692 14.581 2.42024 14.6254C2.12895 14.703 1.71362 14.7575 1.40727 14.7433C1.26111 14.7364 1.02019 14.9964 1.22486 14.9833C1.40215 14.972 1.39418 14.8685 1.61691 14.927" stroke="#12FA0E" stroke-width="0.5" stroke-linecap="round"/>
<path d="M5.08048 6.61631C5.20469 6.76118 5.34585 6.90035 5.50146 7.00697C5.66392 7.11828 5.85226 7.22254 6.005 7.35026C6.07178 7.40609 6.16055 7.4148 6.22031 7.46774C6.29705 7.53572 6.38178 7.56073 6.47072 7.60569C6.61542 7.67882 6.79502 7.75432 6.9647 7.74437C7.17784 7.73188 7.26996 7.58485 7.43581 7.47407C7.51464 7.42142 7.57788 7.34018 7.66201 7.28693C7.73669 7.23967 7.77782 7.11336 7.83951 7.04009C7.93185 6.93041 7.95826 6.75068 7.92576 6.60845C7.90662 6.52467 7.83689 6.40611 7.77594 6.34577C7.69824 6.26883 7.65449 6.13349 7.56616 6.06658C7.40941 5.94785 7.31218 5.74781 7.1727 5.61051C7.10521 5.54407 7.02973 5.45965 6.99051 5.37349C6.96446 5.31627 6.91896 5.261 6.88293 5.20966C6.85784 5.17391 6.85894 5.11643 6.83032 5.08389C6.70847 4.94538 6.6166 4.79728 6.43789 4.73034C6.34124 4.69414 6.20003 4.72677 6.0966 4.73283C5.93689 4.74219 5.85429 4.76035 5.71498 4.81774C5.56594 4.87914 5.28474 4.98472 5.22025 5.15573C5.14829 5.34656 5.01452 5.53107 4.9819 5.73264C4.97518 5.77415 4.92906 5.80475 4.92354 5.8499C4.91835 5.89238 4.92763 5.9405 4.93016 5.98337C4.9348 6.06191 4.93943 6.14045 4.94406 6.21899C4.9534 6.37712 5.1142 6.42176 5.12287 6.56879" stroke="#12FA0E" stroke-width="0.5" stroke-linecap="round"/>
<path d="M5.41601 6.39705C5.63125 6.53456 6.00375 6.62522 6.19413 6.79387C6.27533 6.86581 6.36852 7.05063 6.49341 7.05064C6.72313 7.05064 7.34492 6.90428 6.96652 7.24412C6.92022 7.2857 6.78175 7.27265 6.78175 7.27265C6.78175 7.27265 6.95176 7.27872 6.98266 7.21663C7.04851 7.08431 7.31123 6.86246 7.43601 6.77419C7.58773 6.66685 7.24884 7.48418 6.99931 7.49881C6.6711 7.51804 6.49938 7.31434 6.35183 7.05893C6.14449 6.70003 5.68916 6.51941 5.4993 6.15326C5.42862 6.01695 4.93477 5.44292 5.35514 5.36535C5.52845 5.33337 6.10992 5.1838 6.21473 5.03625C6.35661 4.83651 6.44143 5.70204 6.50046 5.81587C6.65399 6.11196 6.97869 6.24223 7.13986 6.49512C7.1817 6.56077 7.4256 6.74979 7.4256 6.59783C7.42561 6.43324 7.24065 6.32905 7.16095 6.17534C7.0056 5.87576 6.47781 5.68492 6.14445 5.80134C5.81985 5.91469 6.59154 6.47058 6.66179 6.51871C6.73483 6.56876 7.13674 6.53196 7.08105 6.47645C6.96017 6.35598 6.79017 6.25722 6.64124 6.1704C6.38097 6.01868 6.04996 5.7628 5.84465 5.53575C5.7467 5.42744 5.39183 5.43964 5.54511 5.57543C5.67788 5.69305 5.74611 5.61458 5.86104 5.81352" stroke="#12FA0E" stroke-width="0.5" stroke-linecap="round"/>
<path d="M28.5972 24.1365C28.4634 24.0004 28.3131 23.871 28.1506 23.7752C27.981 23.6751 27.786 23.5838 27.6249 23.4667C27.5545 23.4155 27.4653 23.4128 27.4021 23.364C27.3209 23.3013 27.2347 23.2821 27.1429 23.2433C26.9936 23.1801 26.8092 23.1169 26.6406 23.1382C26.4288 23.1651 26.3469 23.318 26.189 23.4397C26.1139 23.4976 26.0563 23.5829 25.976 23.6417C25.9047 23.6939 25.8723 23.8227 25.8157 23.9C25.731 24.0156 25.7169 24.1967 25.759 24.3364C25.7838 24.4187 25.8614 24.5323 25.9263 24.5884C26.0091 24.6599 26.0619 24.792 26.1546 24.8528C26.3191 24.9607 26.4297 25.1537 26.5781 25.2812C26.65 25.343 26.731 25.4221 26.776 25.5054C26.8059 25.5608 26.8551 25.6128 26.8945 25.6616C26.922 25.6956 26.9248 25.753 26.9555 25.7835C27.0865 25.9135 27.1882 26.0551 27.3711 26.1098C27.47 26.1394 27.6087 26.0973 27.7114 26.0843C27.8701 26.0641 27.9513 26.0404 28.0864 25.9738C28.2309 25.9025 28.5043 25.7782 28.557 25.6032C28.6158 25.4079 28.7368 25.2148 28.7556 25.0115C28.7595 24.9696 28.8034 24.936 28.8059 24.8906C28.8082 24.8478 28.7956 24.8005 28.7902 24.7579C28.7802 24.6798 28.7703 24.6018 28.7603 24.5237C28.7402 24.3666 28.5768 24.3329 28.5581 24.1868" stroke="#12FA0E" stroke-width="0.5" stroke-linecap="round"/>
<path d="M28.2773 24.3779C28.0532 24.2553 27.6754 24.19 27.474 24.0346C27.3881 23.9683 27.2826 23.7902 27.158 23.7986C26.9288 23.8141 26.3183 24.0021 26.6728 23.6375C26.7161 23.5929 26.8552 23.5965 26.8552 23.5965C26.8552 23.5965 26.6852 23.602 26.6585 23.666C26.6018 23.8025 26.3548 24.0415 26.2363 24.138C26.0922 24.2554 26.3748 23.417 26.6228 23.3856C26.9489 23.3442 27.1341 23.5359 27.2986 23.7807C27.5299 24.1248 27.9965 24.2743 28.2108 24.6268C28.2906 24.758 28.8223 25.2974 28.4082 25.4032C28.2374 25.4468 27.6675 25.6352 27.5729 25.7895C27.4449 25.9984 27.3015 25.1406 27.2349 25.031C27.0616 24.7459 26.7287 24.6379 26.5508 24.3965C26.5045 24.3338 26.2484 24.1617 26.2587 24.3133C26.2699 24.4775 26.4615 24.569 26.5514 24.7169C26.7268 25.0053 27.2664 25.1601 27.591 25.0215C27.9072 24.8865 27.0995 24.3839 27.0261 24.3406C26.9498 24.2957 26.5514 24.3595 26.6107 24.4111C26.7395 24.5232 26.9158 24.6102 27.0703 24.6868C27.3403 24.8206 27.6879 25.0535 27.9082 25.2662C28.0133 25.3676 28.3665 25.3315 28.2043 25.2064C28.0639 25.098 28.0011 25.1809 27.873 24.9902" stroke="#12FA0E" stroke-width="0.5" stroke-linecap="round"/>
<path d="M30.6097 13.4636C30.4194 13.4822 30.2241 13.5179 30.0473 13.5841C29.8627 13.6531 29.6691 13.7474 29.4766 13.7991C29.3925 13.8217 29.3345 13.8893 29.2567 13.9078C29.1569 13.9316 29.0878 13.9865 28.9999 14.0335C28.8569 14.1099 28.692 14.2134 28.603 14.3578C28.4913 14.5391 28.5596 14.6986 28.5558 14.8975C28.554 14.9921 28.5847 15.0902 28.5803 15.1895C28.5765 15.2775 28.6569 15.3834 28.6819 15.4758C28.7193 15.614 28.852 15.7385 28.9877 15.7933C29.0676 15.8256 29.205 15.8365 29.2896 15.8212C29.3973 15.8018 29.5337 15.8435 29.6394 15.8096C29.8268 15.7494 30.047 15.7845 30.2398 15.7491C30.3331 15.7319 30.4458 15.7186 30.5391 15.7358C30.6011 15.7473 30.6726 15.7418 30.7355 15.7417C30.7793 15.7416 30.8259 15.7754 30.8691 15.7707C31.0528 15.7504 31.2273 15.7601 31.3846 15.6523C31.4697 15.5941 31.5237 15.46 31.5779 15.372C31.6616 15.2361 31.6939 15.1582 31.7265 15.0115C31.7612 14.8546 31.8353 14.5644 31.7315 14.4138C31.6157 14.2458 31.5404 14.0309 31.3932 13.8888C31.3629 13.8596 31.3641 13.8044 31.3301 13.774C31.2981 13.7455 31.2532 13.7255 31.2165 13.7031C31.1492 13.6619 31.082 13.6207 31.0147 13.5796C30.8792 13.4967 30.7505 13.6025 30.6245 13.5255" stroke="#12FA0E" stroke-width="0.5" stroke-linecap="round"/>
<path d="M30.598 13.8634C30.3617 13.9606 30.0739 14.2131 29.8261 14.2722C29.7205 14.2974 29.515 14.2677 29.4436 14.3698C29.3121 14.5575 29.0766 15.1494 29.0136 14.6457C29.0059 14.5841 29.0959 14.4784 29.0959 14.4784C29.0959 14.4784 28.9936 14.6138 29.027 14.6746C29.0981 14.8042 29.1303 15.1458 29.1315 15.2983C29.133 15.4837 28.6545 14.739 28.7852 14.5267C28.9573 14.2475 29.2232 14.2238 29.5178 14.2494C29.9318 14.2853 30.341 14.0166 30.7509 14.071C30.9035 14.0913 31.6585 14.0162 31.4818 14.4042C31.4089 14.5641 31.1991 15.1249 31.2606 15.295C31.3437 15.5252 30.583 15.0992 30.4555 15.0823C30.124 15.0383 29.831 15.2291 29.5307 15.216C29.4527 15.2126 29.1576 15.3038 29.2826 15.3908C29.418 15.485 29.6096 15.3934 29.7817 15.4163C30.1171 15.4608 30.5762 15.1387 30.6713 14.7997C30.7638 14.4695 29.8647 14.782 29.7849 14.8118C29.7019 14.8429 29.5021 15.1924 29.5797 15.1787C29.748 15.1488 29.9266 15.0664 30.0832 14.9944C30.357 14.8685 30.757 14.7445 31.0614 14.7067C31.2066 14.6886 31.3996 14.3916 31.2002 14.4392C31.0274 14.4803 31.0529 14.581 30.8234 14.5611" stroke="#12FA0E" stroke-width="0.5" stroke-linecap="round"/>
<path d="M15.0196 1.48103C15.0113 1.6714 15.0194 1.86912 15.0602 2.05286C15.1029 2.24467 15.1693 2.44892 15.1936 2.64615C15.2042 2.73237 15.2632 2.79907 15.2707 2.87841C15.2803 2.98028 15.3251 3.05615 15.3594 3.14948C15.4152 3.30131 15.4949 3.47858 15.6258 3.58663C15.7902 3.72235 15.9582 3.67741 16.1553 3.70911C16.249 3.72417 16.3509 3.70773 16.4488 3.72596C16.5358 3.74215 16.6523 3.67772 16.7476 3.66606C16.8902 3.64859 17.0325 3.53508 17.106 3.40897C17.1494 3.33469 17.1795 3.20059 17.1762 3.11503C17.172 3.00595 17.2326 2.87723 17.2138 2.76826C17.1804 2.57489 17.2462 2.3625 17.2381 2.16729C17.2342 2.07283 17.2368 1.95979 17.2671 1.87011C17.2872 1.81056 17.2917 1.73922 17.3005 1.67718C17.3066 1.63398 17.3468 1.59269 17.3481 1.54944C17.3537 1.36532 17.3879 1.19456 17.303 1.02415C17.2571 0.931987 17.1315 0.859881 17.0517 0.794021C16.9285 0.692327 16.8556 0.649476 16.7145 0.596772C16.5634 0.540389 16.2855 0.426502 16.1213 0.50775C15.9381 0.598415 15.714 0.642458 15.5522 0.76771C15.5189 0.793502 15.4642 0.784536 15.4293 0.813813C15.3964 0.84136 15.3703 0.882855 15.3428 0.91593C15.2925 0.976524 15.2421 1.03712 15.1917 1.09771C15.0904 1.21971 15.1774 1.36165 15.0831 1.47508" stroke="#12FA0E" stroke-width="0.5" stroke-linecap="round"/>
<path d="M15.4146 1.5492C15.4778 1.79587 15.688 2.11509 15.7118 2.36764C15.722 2.47536 15.6637 2.67375 15.7549 2.75855C15.9228 2.91455 16.4773 3.22979 15.9683 3.22126C15.9061 3.22021 15.8138 3.11664 15.8138 3.11664C15.8138 3.11664 15.9339 3.23652 15.9989 3.21212C16.1376 3.16011 16.4813 3.17635 16.6328 3.19655C16.8171 3.22112 16.0105 3.58844 15.8181 3.42969C15.5651 3.22088 15.579 2.95537 15.6458 2.66848C15.7397 2.26533 15.5305 1.82412 15.6422 1.42755C15.6837 1.27991 15.7154 0.524961 16.0757 0.753709C16.2242 0.84802 16.7514 1.13353 16.9289 1.09685C17.1692 1.04719 16.6392 1.73747 16.6045 1.86075C16.5142 2.18144 16.6624 2.49716 16.6072 2.79146C16.5929 2.86786 16.6419 3.17165 16.7458 3.06057C16.8584 2.94026 16.7945 2.7385 16.8413 2.57203C16.9327 2.24755 16.6775 1.74966 16.3543 1.60838C16.0396 1.47082 16.2233 2.40118 16.2418 2.48407C16.2609 2.57025 16.5798 2.81627 16.577 2.73787C16.5711 2.56773 16.5144 2.3801 16.4649 2.21551C16.3785 1.92787 16.3116 1.51605 16.3169 1.21067C16.3194 1.06498 16.0517 0.832924 16.0708 1.03627C16.0874 1.21241 16.1909 1.20138 16.1389 1.42484" stroke="#12FA0E" stroke-width="0.5" stroke-linecap="round"/>
<path d="M3.20115 22.9659C3.38168 22.9031 3.56303 22.8226 3.71919 22.7167C3.88222 22.6063 4.04804 22.4692 4.22289 22.3737C4.29933 22.3319 4.33969 22.2527 4.41087 22.2164C4.50229 22.1698 4.55641 22.1002 4.63073 22.0339C4.75161 21.926 4.88737 21.7867 4.93965 21.6255C5.00531 21.423 4.90125 21.2841 4.85785 21.0899C4.83722 20.9976 4.78421 20.9094 4.76494 20.8119C4.74785 20.7254 4.64467 20.6414 4.59854 20.5575C4.52949 20.432 4.37102 20.3422 4.22624 20.3208C4.14095 20.3082 4.00479 20.3299 3.92625 20.3646C3.82612 20.4089 3.68369 20.4004 3.58907 20.4581C3.42118 20.5606 3.19885 20.5783 3.01986 20.658C2.93325 20.6966 2.82692 20.736 2.73212 20.7412C2.66916 20.7446 2.60098 20.7668 2.5399 20.7817C2.49737 20.792 2.44402 20.7701 2.40321 20.7849C2.22948 20.8478 2.05766 20.8793 1.93022 21.021C1.8613 21.0976 1.84057 21.2406 1.80871 21.3389C1.75951 21.4906 1.74652 21.5739 1.74963 21.7241C1.75296 21.8847 1.74965 22.1842 1.88615 22.3061C2.03847 22.4422 2.16246 22.6334 2.3391 22.7368C2.37547 22.7581 2.38735 22.8121 2.42757 22.8336C2.46541 22.8538 2.51376 22.8626 2.55477 22.8758C2.62989 22.9 2.70501 22.9242 2.78013 22.9484C2.93138 22.9972 3.03147 22.864 3.1721 22.9093" stroke="#12FA0E" stroke-width="0.5" stroke-linecap="round"/>
<path d="M3.11786 22.5747C3.32454 22.4247 3.54448 22.1117 3.77126 21.9961C3.86798 21.9468 4.07462 21.9273 4.11994 21.8113C4.2033 21.598 4.29207 20.9675 4.47253 21.4422C4.49461 21.5003 4.43216 21.6241 4.43216 21.6241C4.43216 21.6241 4.49953 21.4685 4.45268 21.4172C4.35285 21.3081 4.24075 20.9836 4.20348 20.8357C4.15817 20.6558 4.79944 21.2671 4.72257 21.5042C4.62146 21.8159 4.36868 21.9015 4.07633 21.9458C3.66549 22.0081 3.33139 22.3655 2.92013 22.4089C2.76703 22.4251 2.05108 22.6754 2.13109 22.2569C2.16407 22.0843 2.23521 21.4901 2.13527 21.3392C1.99999 21.135 2.84008 21.3703 2.96793 21.3567C3.3005 21.3216 3.54013 21.0673 3.83508 21.0094C3.91165 20.9944 4.17689 20.8365 4.0348 20.7814C3.8809 20.7216 3.71637 20.8556 3.54372 20.8738C3.20723 20.9094 2.83727 21.3303 2.82516 21.6821C2.81337 22.0247 3.61316 21.5097 3.68367 21.462C3.75696 21.4123 3.86839 21.0257 3.79628 21.0573C3.63977 21.1258 3.48574 21.2479 3.35052 21.3547C3.11421 21.5413 2.75484 21.7558 2.46805 21.8641C2.33122 21.9158 2.21386 22.2498 2.39645 22.1567C2.55461 22.0761 2.506 21.9842 2.73372 21.9497" stroke="#12FA0E" stroke-width="0.5" stroke-linecap="round"/>
<path d="M9.6371 29.6448C9.75767 29.4969 9.86955 29.3334 9.94669 29.1616C10.0272 28.9823 10.0961 28.7789 10.1946 28.6061C10.2377 28.5306 10.2303 28.442 10.2717 28.3738C10.325 28.2864 10.3344 28.1988 10.3627 28.1035C10.4087 27.9485 10.4508 27.7588 10.4104 27.5943C10.3596 27.3876 10.1979 27.3238 10.0586 27.1813C9.99242 27.1135 9.90083 27.0662 9.83309 26.9933C9.77296 26.9286 9.64088 26.9111 9.55744 26.8639C9.43252 26.7932 9.25036 26.7997 9.11586 26.8572C9.03662 26.8911 8.93219 26.9809 8.88363 27.0515C8.82172 27.1415 8.69604 27.2088 8.64595 27.3075C8.55706 27.4826 8.37717 27.614 8.26683 27.7755C8.21344 27.8536 8.14374 27.9428 8.06578 27.9968C8.014 28.0327 7.96767 28.0873 7.9235 28.1319C7.89275 28.1629 7.83582 28.1722 7.80887 28.2061C7.69415 28.3506 7.56456 28.4673 7.53075 28.6546C7.51246 28.7559 7.57015 28.8884 7.59479 28.9887C7.63285 29.1435 7.66569 29.2212 7.74747 29.3474C7.83496 29.4824 7.98991 29.739 8.17033 29.7714C8.37166 29.8075 8.57791 29.9053 8.78274 29.9009C8.82492 29.9 8.86344 29.9397 8.909 29.9369C8.95187 29.9344 8.99768 29.9166 9.03953 29.9064C9.11621 29.8876 9.1929 29.8689 9.26958 29.8502C9.42397 29.8125 9.439 29.6468 9.58255 29.6118" stroke="#12FA0E" stroke-width="0.5" stroke-linecap="round"/>
<path d="M9.36016 29.3554C9.45703 29.1196 9.47929 28.7381 9.61139 28.521C9.66773 28.4285 9.83333 28.3038 9.81079 28.1813C9.76934 27.9562 9.51267 27.3731 9.91637 27.6827C9.96577 27.7205 9.97787 27.8586 9.97787 27.8586C9.97787 27.8586 9.95318 27.6909 9.88633 27.6718C9.74385 27.6311 9.47748 27.4137 9.36784 27.3073C9.23452 27.1779 10.1024 27.3626 10.1618 27.6046C10.24 27.9228 10.07 28.1279 9.84453 28.3186C9.52772 28.5866 9.43164 29.0655 9.10452 29.3177C8.98275 29.4116 8.50532 29.9993 8.3529 29.6012C8.29006 29.4371 8.03751 28.8941 7.87296 28.818C7.65022 28.715 8.48915 28.4757 8.59085 28.3973C8.85537 28.1933 8.92534 27.8515 9.14585 27.6479C9.2031 27.5951 9.34563 27.3219 9.19565 27.3493C9.03321 27.379 8.96376 27.5791 8.82644 27.685C8.55879 27.8913 8.4657 28.4431 8.64076 28.7489C8.81121 29.0466 9.22058 28.1898 9.25541 28.1123C9.29162 28.0317 9.18277 27.6443 9.13804 27.709C9.04095 27.8492 8.97416 28.0336 8.91535 28.1953C8.81258 28.4778 8.61977 28.8484 8.43274 29.0906C8.34351 29.2062 8.4196 29.5519 8.52596 29.3771C8.61808 29.2257 8.52832 29.173 8.70393 29.0245" stroke="#12FA0E" stroke-width="0.5" stroke-linecap="round"/>
<path d="M17.4925 30.5443C17.5052 30.3542 17.5018 30.1563 17.4653 29.9717C17.4271 29.779 17.3654 29.5732 17.3457 29.3755C17.3371 29.2891 17.2797 29.221 17.274 29.1415C17.2668 29.0395 17.2237 28.9626 17.1916 28.8685C17.1394 28.7154 17.0638 28.5363 16.9354 28.4253C16.7742 28.2858 16.6052 28.3269 16.4089 28.2906C16.3156 28.2734 16.2134 28.2875 16.1159 28.267C16.0293 28.2488 15.9113 28.3105 15.8158 28.32C15.6729 28.3342 15.528 28.4444 15.4515 28.5688C15.4064 28.642 15.3732 28.7754 15.3745 28.861C15.3761 28.9701 15.3126 29.0974 15.3288 29.2068C15.3577 29.4009 15.287 29.6117 15.2906 29.8071C15.2923 29.9016 15.2871 30.0145 15.2547 30.1035C15.2332 30.1626 15.227 30.2338 15.2168 30.2956C15.2097 30.3386 15.1686 30.379 15.1663 30.4222C15.1564 30.6061 15.1182 30.7761 15.1992 30.9484C15.2429 31.0416 15.3668 31.1166 15.4451 31.1843C15.5659 31.2888 15.6377 31.3333 15.7776 31.3892C15.9273 31.4491 16.2025 31.5694 16.3685 31.4919C16.5538 31.4055 16.7788 31.3666 16.9435 31.2452C16.9774 31.2201 17.0319 31.2304 17.0675 31.2019C17.101 31.1751 17.1281 31.1342 17.1563 31.1018C17.2081 31.0424 17.2598 30.983 17.3116 30.9236C17.4158 30.8039 17.332 30.66 17.4289 30.5488" stroke="#12FA0E" stroke-width="0.5" stroke-linecap="round"/>
<path d="M17.0993 30.467C17.0418 30.219 16.8391 29.895 16.8212 29.6419C16.8135 29.534 16.8764 29.337 16.7872 29.2501C16.6229 29.0903 16.0759 28.7623 16.5845 28.7826C16.6468 28.7851 16.7366 28.8908 16.7366 28.8908C16.7366 28.8908 16.6193 28.7682 16.5537 28.7911C16.414 28.8398 16.0707 28.8157 15.9197 28.792C15.736 28.7632 16.5509 28.4146 16.7395 28.5777C16.9876 28.7923 16.9677 29.0574 16.8942 29.3427C16.7909 29.7436 16.9898 30.1895 16.869 30.5834C16.824 30.73 16.7748 31.484 16.42 31.247C16.2737 31.1493 15.7533 30.8517 15.575 30.8843C15.3336 30.9284 15.8794 30.2505 15.917 30.1281C16.0147 29.8095 15.8738 29.4905 15.9358 29.1975C15.9519 29.1215 15.91 28.8167 15.8035 28.9253C15.6882 29.043 15.7474 29.2462 15.6967 29.4115C15.5978 29.7338 15.8414 30.2374 16.1613 30.3861C16.4727 30.5309 16.3106 29.5966 16.2941 29.5133C16.2769 29.4267 15.9639 29.1734 15.9648 29.2518C15.9668 29.422 16.0191 29.6109 16.0647 29.7766C16.1445 30.0662 16.2018 30.4794 16.1895 30.7846C16.1836 30.9302 16.4458 31.1684 16.4314 30.9646C16.4189 30.7882 16.3151 30.7968 16.3724 30.5746" stroke="#12FA0E" stroke-width="0.5" stroke-linecap="round"/>
<path d="M18.0505 9.40126C17.9446 9.52792 17.891 9.56804 17.9079 9.72573C17.9178 9.81823 17.9108 9.89096 17.8824 9.97883C17.82 10.1717 17.9764 10.2746 18.0623 10.4016C18.135 10.5089 18.2752 10.6356 18.4184 10.6288C18.4424 10.6277 18.592 10.7224 18.6225 10.7413C18.6476 10.7568 18.6907 10.7965 18.7193 10.8014C18.7548 10.8076 18.8119 10.7763 18.8436 10.7964C19.0621 10.9355 19.5744 10.8597 19.678 10.5833C19.7988 10.2609 20.1539 10.1235 20.1556 9.73718C20.1559 9.6799 20.2093 9.58212 20.2217 9.51085C20.2323 9.44999 20.2777 9.35849 20.3165 9.30765C20.4228 9.16848 20.4489 8.97985 20.5549 8.8339C20.7136 8.61539 20.8805 8.31008 20.9745 8.05939C21.0357 7.89604 21.1323 7.75466 21.2224 7.61408C21.3108 7.47617 21.2998 7.32542 21.3517 7.16501C21.3894 7.04841 21.3304 6.72974 21.2769 6.6198C21.218 6.49885 21.0678 6.32459 20.9502 6.25194C20.6684 6.07794 20.4763 5.86132 20.1357 5.82301C20.0464 5.81297 19.9477 5.84636 19.8579 5.85091C19.7784 5.85493 19.7102 5.80768 19.6324 5.81595C19.4588 5.83441 19.3012 5.88063 19.1387 5.8979C18.7686 5.93724 18.5823 6.13961 18.3656 6.40723C18.2518 6.54768 18.1889 6.72076 18.1686 6.89949C18.1594 6.98135 18.1585 7.09632 18.1667 7.173C18.1777 7.27534 18.1287 7.36995 18.1401 7.47695C18.1775 7.82611 18.159 8.20566 18.1955 8.54629C18.2068 8.65181 18.1909 8.75242 18.199 8.85523C18.2084 8.97577 18.1769 9.06505 18.1764 9.18166C18.1762 9.24517 18.1787 9.37455 18.1485 9.42684C18.1138 9.48683 18.0785 9.66299 18.0864 9.73621C18.0961 9.82704 18.0758 9.91373 18.086 10.0095C18.09 10.0462 18.1142 10.2729 18.1022 10.16C18.0809 9.961 18.0596 9.76197 18.0382 9.56294C18.0256 9.44457 18.0904 9.33482 18.0902 9.22028C18.0901 9.13075 18.0901 8.92887 18.1243 8.84843C18.1585 8.76803 18.1198 8.34565 18.0875 8.36629" stroke="#A3FC5C" stroke-opacity="0.97" stroke-width="0.65154" stroke-linecap="round"/>
<path d="M18.9334 6.69326C18.8202 7.43273 18.651 8.16081 18.731 8.90816C18.7408 8.99984 18.7397 9.1103 18.7293 9.20207C18.7206 9.27886 18.7353 9.38363 18.7112 9.45601C18.6662 9.59107 18.7334 9.81075 18.7484 9.95086C18.7584 10.0442 18.7704 10.0725 18.8251 10.1461C18.8475 10.1761 18.8899 10.1647 18.8751 10.1564C18.8158 10.1231 18.7057 10.1186 18.6392 10.1033C18.5608 10.0852 18.3674 10.0794 18.3032 10.0277C18.2714 10.0021 18.155 9.91165 18.2502 9.98818C18.3908 10.1014 18.6329 10.2603 18.8282 10.2396C19.3884 10.18 19.5734 9.66328 19.8013 9.22889" stroke="#A3FC5C" stroke-opacity="0.97" stroke-width="0.65154" stroke-linecap="round"/>
<path d="M20.9973 6.91187C20.8936 7.17876 20.7583 7.4303 20.6577 7.69879C20.5929 7.87173 20.4562 8.0846 20.4268 8.26213C20.388 8.49626 20.267 8.70635 20.2112 8.9368C20.1702 9.10606 20.1181 9.28495 20.0107 9.42565C19.8783 9.599 19.6411 9.71093 19.4164 9.7391C19.1166 9.77668 18.8606 9.81464 18.888 9.43028C18.9237 8.9307 19.2162 8.44132 19.4346 8.00262C19.5679 7.73473 19.6778 7.41996 19.8578 7.18248C19.9549 7.05433 19.9896 6.8641 20.0864 6.74452C20.1889 6.61806 20.1751 6.83386 20.1811 6.91174C20.2108 7.30081 20.1397 7.76986 20.0179 8.14049C19.9529 8.33799 19.8675 8.51939 19.7917 8.71549C19.7176 8.90674 19.5803 9.02836 19.5014 9.21387C19.4772 9.27084 19.3982 9.43589 19.4088 9.37492C19.4235 9.29086 19.5309 9.1769 19.5674 9.09735C19.7905 8.61231 20.0371 8.1397 20.268 7.65854C20.3998 7.38389 20.64 7.09327 20.6066 6.78134C20.5901 6.62701 20.2587 6.56937 20.1388 6.54951C19.9357 6.51587 19.5853 6.5055 19.394 6.5974C19.2374 6.67267 19.0281 6.69793 19.0501 6.90335C19.0617 7.01226 19.0622 7.79767 19.1971 7.82104C19.3255 7.84326 19.3063 7.3153 19.3037 7.23616C19.298 7.06138 19.2922 6.83121 19.2204 6.66973C19.1839 6.58768 19.1 6.53577 19.0654 6.46027" stroke="#A3FC5C" stroke-opacity="0.97" stroke-width="0.65154" stroke-linecap="round"/>
<path d="M13.4638 9.54095C13.4788 9.70512 13.4693 9.77128 13.5931 9.87091C13.6658 9.92935 13.7125 9.98566 13.7547 10.0678C13.8474 10.2482 14.031 10.2108 14.1818 10.24C14.3094 10.2648 14.4984 10.2556 14.5949 10.1499C14.6111 10.1321 14.784 10.0938 14.8191 10.0856C14.8477 10.0789 14.9064 10.0766 14.9301 10.0599C14.9596 10.0392 14.9778 9.97683 15.0144 9.96879C15.2676 9.91321 15.5762 9.4986 15.4533 9.23017C15.31 8.91704 15.4637 8.56967 15.1908 8.29525C15.1504 8.25457 15.1188 8.14778 15.077 8.08863C15.0413 8.03811 15.0085 7.9414 14.9999 7.8781C14.9764 7.70479 14.8609 7.55306 14.8324 7.37515C14.7896 7.10879 14.691 6.77524 14.5796 6.53177C14.507 6.37312 14.475 6.20506 14.439 6.04215C14.4037 5.88234 14.289 5.78349 14.2119 5.63348C14.1558 5.52444 13.888 5.34062 13.7722 5.3006C13.6447 5.25657 13.4149 5.23918 13.2801 5.27069C12.9574 5.34615 12.6679 5.32833 12.3998 5.54121C12.3296 5.597 12.2834 5.6902 12.2232 5.75669C12.1698 5.81556 12.0881 5.83014 12.0389 5.89082C11.9292 6.02622 11.8505 6.16998 11.7479 6.29666C11.5141 6.58522 11.5259 6.85961 11.5625 7.20161C11.5817 7.38108 11.66 7.54782 11.7725 7.68848C11.824 7.7529 11.9049 7.83482 11.9651 7.88326C12.0455 7.94792 12.078 8.04935 12.162 8.11695C12.4361 8.33753 12.6923 8.61898 12.9598 8.83418C13.0426 8.90085 13.1028 8.98314 13.1814 9.05019C13.2736 9.1288 13.3147 9.21409 13.3971 9.29692C13.4419 9.34203 13.5355 9.43173 13.5512 9.49C13.5693 9.55686 13.6693 9.70631 13.7268 9.75257C13.7981 9.80995 13.8453 9.88554 13.9205 9.94608C13.9492 9.96921 14.1273 10.1125 14.0386 10.0412C13.8824 9.91541 13.7261 9.78967 13.5698 9.66392C13.4769 9.58914 13.4449 9.46584 13.3635 9.38496C13.2999 9.32173 13.1567 9.17895 13.1238 9.09796C13.0909 9.01702 12.7639 8.74558 12.7557 8.78294" stroke="#A3FC5C" stroke-opacity="0.97" stroke-width="0.65154" stroke-linecap="round"/>
<path d="M12.1671 7.00368C12.6116 7.60641 13.0085 8.2405 13.5953 8.71266C13.6673 8.77058 13.7448 8.84947 13.8026 8.92169C13.8509 8.98212 13.9356 9.04591 13.9699 9.11407C14.0339 9.24127 14.2373 9.34925 14.3473 9.43777C14.4206 9.49674 14.4491 9.5083 14.5401 9.52176C14.5771 9.52725 14.5991 9.48934 14.5827 9.49388C14.5172 9.51205 14.4361 9.58645 14.3782 9.62252C14.31 9.66499 14.1691 9.79712 14.087 9.80582C14.0464 9.81014 13.8999 9.82816 14.0214 9.81525C14.2012 9.79616 14.4852 9.738 14.6086 9.58577C14.9625 9.14894 14.7267 8.65314 14.5797 8.18537" stroke="#A3FC5C" stroke-opacity="0.97" stroke-width="0.65154" stroke-linecap="round"/>
<path d="M13.7817 5.7041C13.8977 5.96591 13.9805 6.2391 14.0998 6.49986C14.1767 6.66782 14.231 6.91471 14.3362 7.06098C14.4748 7.25388 14.5383 7.48769 14.6624 7.68997C14.7535 7.83855 14.8435 8.00178 14.8674 8.17699C14.8967 8.39286 14.8084 8.63918 14.6695 8.8174C14.4841 9.05519 14.33 9.26241 14.0767 8.97128C13.7475 8.59287 13.6072 8.04066 13.4504 7.57656C13.3546 7.29316 13.209 6.99314 13.1678 6.69837C13.1456 6.53931 13.0351 6.38034 13.0188 6.22753C13.0015 6.06593 13.1449 6.22822 13.2044 6.2791C13.5014 6.53332 13.7839 6.91512 13.9607 7.26307C14.0549 7.44849 14.1232 7.63694 14.2086 7.82909C14.292 8.0165 14.2812 8.19927 14.357 8.38603C14.3803 8.4434 14.4415 8.6158 14.4057 8.5652C14.3565 8.49543 14.3516 8.33915 14.321 8.25713C14.1346 7.75695 13.9737 7.24894 13.7956 6.746C13.694 6.45892 13.6577 6.08413 13.4128 5.88706C13.2916 5.78956 13.0164 5.98227 12.9175 6.05271C12.75 6.17203 12.4948 6.41162 12.4248 6.61136C12.3674 6.77497 12.2373 6.9403 12.3986 7.07008C12.4841 7.13888 13.0416 7.694 13.1536 7.61544C13.2602 7.54072 12.872 7.1809 12.8141 7.12674C12.686 7.00713 12.5186 6.84844 12.3533 6.78486C12.2693 6.75255 12.1731 6.77495 12.0951 6.74591" stroke="#A3FC5C" stroke-opacity="0.97" stroke-width="0.65154" stroke-linecap="round"/>
</svg>
